Book.ufo
<glyph name="exclam" format="1">
  <advance width="244"/>
  <unicode hex="0021"/>
  <outline>
    <contour>
      <point x="174" y="29" type="curve" smooth="yes"/>
      <point x="174" y="-24.0196"/>
      <point x="71" y="-24.0196"/>
      <point x="71" y="29" type="curve" smooth="yes"/>
      <point x="71" y="82.0196"/>
      <point x="174" y="82.0196"/>
    </contour>
    <contour>
      <point x="148" y="616" type="curve" smooth="yes"/>
      <point x="148" y="197" type="line" smooth="yes"/>
      <point x="148" y="153"/>
      <point x="96" y="153"/>
      <point x="96" y="197" type="curve" smooth="yes"/>
      <point x="96" y="616" type="line" smooth="yes"/>
      <point x="96" y="660"/>
      <point x="148" y="660"/>
    </contour>
  </outline>
</glyph>
<glyph name="quotedbl" format="1">
  <advance width="295"/>
  <unicode hex="0022"/>
  <outline>
    <contour>
      <point x="224" y="466" type="line" smooth="yes"/>
      <point x="224" y="422"/>
      <point x="172" y="422"/>
      <point x="172" y="466" type="curve" smooth="yes"/>
      <point x="172" y="615" type="line" smooth="yes"/>
      <point x="172" y="659"/>
      <point x="224" y="659"/>
      <point x="224" y="615" type="curve" smooth="yes"/>
    </contour>
    <contour>
      <point x="122" y="466" type="line" smooth="yes"/>
      <point x="122" y="422"/>
      <point x="71" y="422"/>
      <point x="71" y="466" type="curve" smooth="yes"/>
      <point x="71" y="615" type="line" smooth="yes"/>
      <point x="71" y="659"/>
      <point x="122" y="659"/>
      <point x="122" y="615" type="curve" smooth="yes"/>
    </contour>
  </outline>
</glyph>
<glyph name="numbersign" format="1">
  <advance width="603"/>
  <unicode hex="0023"/>
  <outline>
    <contour>
      <point x="496" y="630" type="curve" smooth="yes"/>
      <point x="513.333" y="630"/>
      <point x="522" y="621.333"/>
      <point x="522" y="604" type="curve" smooth="yes"/>
      <point x="522" y="599.333"/>
      <point x="521" y="594"/>
      <point x="519" y="588" type="curve" smooth="yes"/>
      <point x="463" y="436" type="line"/>
      <point x="526" y="436" type="line" smooth="yes"/>
      <point x="570" y="436"/>
      <point x="570" y="384"/>
      <point x="526" y="384" type="curve" smooth="yes"/>
      <point x="444" y="384" type="line"/>
      <point x="396" y="252" type="line"/>
      <point x="495" y="252" type="line" smooth="yes"/>
      <point x="539" y="252"/>
      <point x="539" y="200"/>
      <point x="495" y="200" type="curve" smooth="yes"/>
      <point x="377" y="200" type="line"/>
      <point x="315" y="30" type="line" smooth="yes"/>
      <point x="309.667" y="14"/>
      <point x="300.667" y="6"/>
      <point x="288" y="6" type="curve" smooth="yes"/>
      <point x="270.667" y="6"/>
      <point x="262" y="14.6667"/>
      <point x="262" y="32" type="curve" smooth="yes"/>
      <point x="262" y="36.6667"/>
      <point x="263" y="42"/>
      <point x="265" y="48" type="curve" smooth="yes"/>
      <point x="322" y="200" type="line"/>
      <point x="197" y="200" type="line"/>
      <point x="136" y="30" type="line" smooth="yes"/>
      <point x="130.667" y="14"/>
      <point x="121.667" y="6"/>
      <point x="109" y="6" type="curve" smooth="yes"/>
      <point x="92.3333" y="6"/>
      <point x="84" y="14.3333"/>
      <point x="84" y="31" type="curve" smooth="yes"/>
      <point x="84" y="34.3333"/>
      <point x="85" y="40"/>
      <point x="87" y="48" type="curve"/>
      <point x="143" y="200" type="line"/>
      <point x="77" y="200" type="line" smooth="yes"/>
      <point x="33" y="200"/>
      <point x="33" y="252"/>
      <point x="77" y="252" type="curve" smooth="yes"/>
      <point x="162" y="252" type="line"/>
      <point x="210" y="384" type="line"/>
      <point x="107" y="384" type="line" smooth="yes"/>
      <point x="64.3333" y="384"/>
      <point x="64.3333" y="436"/>
      <point x="107" y="436" type="curve" smooth="yes"/>
      <point x="229" y="436" type="line"/>
      <point x="291" y="606" type="line"/>
      <point x="297.667" y="622"/>
      <point x="306.333" y="630"/>
      <point x="317" y="630" type="curve" smooth="yes"/>
      <point x="334.333" y="630"/>
      <point x="343" y="621.667"/>
      <point x="343" y="605" type="curve" smooth="yes"/>
      <point x="343" y="601.667"/>
      <point x="342" y="596"/>
      <point x="340" y="588" type="curve"/>
      <point x="283" y="436" type="line"/>
      <point x="407" y="436" type="line"/>
      <point x="469" y="606" type="line" smooth="yes"/>
      <point x="475" y="622"/>
      <point x="484" y="630"/>
    </contour>
    <contour>
      <point x="265" y="384" type="line"/>
      <point x="217" y="252" type="line"/>
      <point x="340" y="252" type="line"/>
      <point x="388" y="384" type="line"/>
    </contour>
  </outline>
</glyph>
<glyph name="dollar" format="1">
  <advance width="587"/>
  <unicode hex="0024"/>
  <outline>
    <contour>
      <point x="399" y="353" type="line" smooth="yes"/>
      <point x="484.333" y="353"/>
      <point x="527" y="309.167"/>
      <point x="527" y="221.5" type="curve" smooth="yes"/>
      <point x="527" y="133.833"/>
      <point x="484.333" y="90"/>
      <point x="399" y="90" type="curve" smooth="yes"/>
      <point x="324" y="90" type="line"/>
      <point x="324" y="25" type="line" smooth="yes"/>
      <point x="324" y="-17.6667"/>
      <point x="272" y="-17.3333"/>
      <point x="272" y="24" type="curve" smooth="yes"/>
      <point x="272" y="89" type="line"/>
      <point x="161" y="89" type="line" smooth="yes"/>
      <point x="104.333" y="89"/>
      <point x="72" y="112.333"/>
      <point x="64" y="159" type="curve" smooth="yes"/>
      <point x="60" y="181.667"/>
      <point x="52.3333" y="234"/>
      <point x="87" y="234" type="curve" smooth="yes"/>
      <point x="104.333" y="234"/>
      <point x="113" y="222.833"/>
      <point x="113" y="200.5" type="curve" smooth="yes"/>
      <point x="113" y="155.833"/>
      <point x="126.667" y="141"/>
      <point x="168" y="141" type="curve" smooth="yes"/>
      <point x="272" y="141" type="line"/>
      <point x="272" y="301" type="line"/>
      <point x="190" y="301" type="line" smooth="yes"/>
      <point x="104" y="301"/>
      <point x="61" y="344.667"/>
      <point x="61" y="432" type="curve" smooth="yes"/>
      <point x="61" y="512.667"/>
      <point x="104" y="553"/>
      <point x="190" y="553" type="curve" smooth="yes"/>
      <point x="272" y="553" type="line"/>
      <point x="272" y="610" type="line" smooth="yes"/>
      <point x="272" y="654"/>
      <point x="324" y="653.667"/>
      <point x="324" y="611" type="curve" smooth="yes"/>
      <point x="324" y="554" type="line"/>
      <point x="425" y="554" type="line" smooth="yes"/>
      <point x="481.667" y="554"/>
      <point x="514" y="530.667"/>
      <point x="522" y="484" type="curve" smooth="yes"/>
      <point x="526" y="461.333"/>
      <point x="533.667" y="409"/>
      <point x="499" y="409" type="curve" smooth="yes"/>
      <point x="481.667" y="409"/>
      <point x="473" y="420.167"/>
      <point x="473" y="442.5" type="curve" smooth="yes"/>
      <point x="473" y="487.167"/>
      <point x="459.333" y="501"/>
      <point x="418" y="501" type="curve" smooth="yes"/>
      <point x="324" y="501" type="line"/>
      <point x="324" y="353" type="line"/>
    </contour>
    <contour>
      <point x="416" y="301" type="curve" smooth="yes"/>
      <point x="324" y="301" type="line"/>
      <point x="324" y="141" type="line"/>
      <point x="416" y="141" type="line" smooth="yes"/>
      <point x="455.333" y="141"/>
      <point x="475" y="165.333"/>
      <point x="475" y="214" type="curve" smooth="yes"/>
      <point x="475" y="264.667"/>
      <point x="450.667" y="301"/>
    </contour>
    <contour>
      <point x="172" y="353" type="curve" smooth="yes"/>
      <point x="272" y="353" type="line"/>
      <point x="272" y="501" type="line"/>
      <point x="172" y="501" type="line" smooth="yes"/>
      <point x="132.667" y="501"/>
      <point x="113" y="478.667"/>
      <point x="113" y="434" type="curve" smooth="yes"/>
      <point x="113" y="382"/>
      <point x="137.333" y="353"/>
    </contour>
  </outline>
</glyph>
<glyph name="percent" format="1">
  <advance width="559"/>
  <unicode hex="0025"/>
  <outline>
    <contour>
      <point x="397" y="213" type="curve" smooth="yes"/>
      <point x="358.631" y="213"/>
      <point x="357.908" y="153"/>
      <point x="397.5" y="153" type="curve" smooth="yes"/>
      <point x="436.209" y="153"/>
      <point x="435.154" y="213"/>
    </contour>
    <contour>
      <point x="337" y="125" type="curve" smooth="yes"/>
      <point x="303.667" y="157"/>
      <point x="303.667" y="209"/>
      <point x="337" y="241" type="curve" smooth="yes"/>
      <point x="370.333" y="273"/>
      <point x="423" y="273"/>
      <point x="455" y="241" type="curve" smooth="yes"/>
      <point x="487" y="209"/>
      <point x="487" y="157"/>
      <point x="455" y="125" type="curve" smooth="yes"/>
      <point x="423" y="93"/>
      <point x="370.333" y="93"/>
    </contour>
    <contour>
      <point x="143" y="487" type="curve" smooth="yes"/>
      <point x="115.645" y="459.645"/>
      <point x="156.388" y="419.347"/>
      <point x="184.5" y="444.5" type="curve" smooth="yes"/>
      <point x="214.463" y="471.309"/>
      <point x="169.695" y="513.695"/>
    </contour>
    <contour>
      <point x="105.5" y="408" type="curve" smooth="yes"/>
      <point x="72.8333" y="440"/>
      <point x="72.8333" y="492"/>
      <point x="105.5" y="524" type="curve" smooth="yes"/>
      <point x="138.167" y="556"/>
      <point x="190.833" y="556"/>
      <point x="223.5" y="524" type="curve" smooth="yes"/>
      <point x="256.167" y="492"/>
      <point x="256.167" y="440"/>
      <point x="223.5" y="408" type="curve" smooth="yes"/>
      <point x="190.833" y="376"/>
      <point x="138.167" y="376"/>
    </contour>
    <contour>
      <point x="442" y="516" type="line"/>
      <point x="472.716" y="544.353"/>
      <point x="509.354" y="511.883"/>
      <point x="479" y="479" type="curve"/>
      <point x="119" y="133" type="line"/>
      <point x="87.4941" y="103.918"/>
      <point x="49.8444" y="138.844"/>
      <point x="81" y="170" type="curve"/>
    </contour>
  </outline>
</glyph>
<glyph name="ampersand" format="1">
  <advance width="508"/>
  <unicode hex="0026"/>
  <outline>
    <contour>
      <point x="123" y="357" type="curve"/>
      <point x="83.6667" y="403.667"/>
      <point x="64" y="447.833"/>
      <point x="64" y="489.5" type="curve" smooth="yes"/>
      <point x="64" y="531.167"/>
      <point x="82.8333" y="568.667"/>
      <point x="120.5" y="602" type="curve" smooth="yes"/>
      <point x="158.167" y="635.333"/>
      <point x="199" y="652"/>
      <point x="243" y="652" type="curve" smooth="yes"/>
      <point x="297" y="652"/>
      <point x="341.333" y="619.333"/>
      <point x="376" y="554" type="curve"/>
      <point x="404.105" y="515.778"/>
      <point x="367.66" y="484.222"/>
      <point x="336" y="518" type="curve"/>
      <point x="329.333" y="528.667"/>
      <point x="322.667" y="540"/>
      <point x="316" y="552" type="curve" smooth="yes"/>
      <point x="298" y="584"/>
      <point x="273.667" y="600"/>
      <point x="243" y="600" type="curve"/>
      <point x="142" y="601.333"/>
      <point x="70.25" y="478.167"/>
      <point x="156" y="397" type="curve"/>
      <point x="392" y="125" type="line"/>
      <point x="411.333" y="154.333"/>
      <point x="421" y="184.667"/>
      <point x="421" y="216" type="curve" smooth="yes"/>
      <point x="421" y="278.667"/>
      <point x="472" y="275"/>
      <point x="472" y="227" type="curve" smooth="yes"/>
      <point x="472" y="173.667"/>
      <point x="457" y="126"/>
      <point x="427" y="84" type="curve"/>
      <point x="473" y="32" type="line" smooth="yes"/>
      <point x="477.667" y="26.6667"/>
      <point x="480" y="19.6667"/>
      <point x="480" y="11" type="curve" smooth="yes"/>
      <point x="480" y="-4.33333"/>
      <point x="472.667" y="-12"/>
      <point x="458" y="-12" type="curve" smooth="yes"/>
      <point x="448" y="-12"/>
      <point x="438" y="-6.66667"/>
      <point x="428" y="4" type="curve" smooth="yes"/>
      <point x="393" y="45" type="line"/>
      <point x="348.333" y="5.66667"/>
      <point x="300" y="-14"/>
      <point x="248" y="-14" type="curve" smooth="yes"/>
      <point x="200.667" y="-14"/>
      <point x="160.667" y="-3.33333"/>
      <point x="128" y="18" type="curve" smooth="yes"/>
      <point x="68.6667" y="57.3333"/>
      <point x="39" y="113.833"/>
      <point x="39" y="187.5" type="curve" smooth="yes"/>
      <point x="39" y="261.167"/>
      <point x="67" y="317.667"/>
    </contour>
    <contour>
      <point x="359" y="84" type="curve"/>
      <point x="157" y="319" type="line"/>
      <point x="113" y="291"/>
      <point x="91" y="248.667"/>
      <point x="91" y="192" type="curve" smooth="yes"/>
      <point x="91" y="135.333"/>
      <point x="107" y="95.5"/>
      <point x="139" y="72.5" type="curve" smooth="yes"/>
      <point x="203" y="26.5"/>
      <point x="289.667" y="22.6667"/>
    </contour>
  </outline>
</glyph>
<glyph name="quotesingle" format="1">
  <advance width="194"/>
  <unicode hex="0027"/>
  <outline>
    <contour>
      <point x="122" y="466" type="line" smooth="yes"/>
      <point x="122" y="422"/>
      <point x="71" y="422"/>
      <point x="71" y="466" type="curve" smooth="yes"/>
      <point x="71" y="615" type="line" smooth="yes"/>
      <point x="71" y="659"/>
      <point x="122" y="659"/>
      <point x="122" y="615" type="curve" smooth="yes"/>
    </contour>
  </outline>
</glyph>
<glyph name="parenleft" format="1">
  <advance width="248"/>
  <unicode hex="0028"/>
  <outline>
    <contour>
      <point x="125" y="503" type="curve" smooth="yes"/>
      <point x="125" y="133" type="line" smooth="yes"/>
      <point x="125" y="73"/>
      <point x="127.333" y="38.3333"/>
      <point x="132" y="29" type="curve" smooth="yes"/>
      <point x="137.333" y="19"/>
      <point x="143.667" y="12.6667"/>
      <point x="151" y="10" type="curve" smooth="yes"/>
      <point x="160.333" y="6.66667"/>
      <point x="177.667" y="5"/>
      <point x="203" y="5" type="curve"/>
      <point x="203" y="-47" type="line"/>
      <point x="77.1833" y="-47"/>
      <point x="73" y="18.85"/>
      <point x="73" y="133" type="curve" smooth="yes"/>
      <point x="73" y="503" type="line" smooth="yes"/>
      <point x="73" y="583.667"/>
      <point x="84.3333" y="634.667"/>
      <point x="107" y="656" type="curve" smooth="yes"/>
      <point x="126.333" y="674"/>
      <point x="156.667" y="683"/>
      <point x="198" y="683" type="curve"/>
      <point x="199.333" y="683"/>
      <point x="201" y="683"/>
      <point x="203" y="683" type="curve"/>
      <point x="203" y="631" type="line"/>
      <point x="163.667" y="630.333"/>
      <point x="141.333" y="624.667"/>
      <point x="136" y="614" type="curve" smooth="yes"/>
      <point x="128.667" y="600.667"/>
      <point x="125" y="568"/>
      <point x="125" y="516" type="curve" smooth="yes"/>
      <point x="125" y="512"/>
      <point x="125" y="507.667"/>
    </contour>
  </outline>
</glyph>
<glyph name="parenright" format="1">
  <advance width="248"/>
  <unicode hex="0029"/>
  <outline>
    <contour>
      <point x="123" y="503" type="line" smooth="yes"/>
      <point x="123" y="563"/>
      <point x="120.667" y="597.667"/>
      <point x="116" y="607" type="curve" smooth="yes"/>
      <point x="110.667" y="617"/>
      <point x="104.333" y="623.333"/>
      <point x="97" y="626" type="curve" smooth="yes"/>
      <point x="87.6667" y="629.333"/>
      <point x="73.6667" y="631"/>
      <point x="55" y="631" type="curve" smooth="yes"/>
      <point x="51.6667" y="631"/>
      <point x="48.3333" y="631"/>
      <point x="45" y="631" type="curve"/>
      <point x="45" y="683" type="line"/>
      <point x="170.817" y="683"/>
      <point x="175" y="617.15"/>
      <point x="175" y="503" type="curve" smooth="yes"/>
      <point x="175" y="133" type="line" smooth="yes"/>
      <point x="175" y="52.3333"/>
      <point x="163.667" y="1.33333"/>
      <point x="141" y="-20" type="curve" smooth="yes"/>
      <point x="121" y="-38"/>
      <point x="89" y="-47"/>
      <point x="45" y="-47" type="curve"/>
      <point x="45" y="5" type="line"/>
      <point x="84.3333" y="5.66667"/>
      <point x="106.667" y="11.3333"/>
      <point x="112" y="22" type="curve" smooth="yes"/>
      <point x="119.333" y="34.6667"/>
      <point x="123" y="67.3333"/>
      <point x="123" y="120" type="curve" smooth="yes"/>
      <point x="123" y="124.667"/>
      <point x="123" y="129"/>
      <point x="123" y="133" type="curve" smooth="yes"/>
    </contour>
  </outline>
</glyph>
<glyph name="asterisk" format="1">
  <advance width="397"/>
  <unicode hex="002A"/>
  <outline>
    <contour>
      <point x="287" y="410" type="curve"/>
      <point x="224" y="446" type="line"/>
      <point x="224" y="374" type="line" smooth="yes"/>
      <point x="224" y="330"/>
      <point x="172" y="330"/>
      <point x="172" y="374" type="curve" smooth="yes"/>
      <point x="172" y="446" type="line"/>
      <point x="109" y="410" type="line"/>
      <point x="84.6993" y="388.712"/>
      <point x="40.4771" y="423.268"/>
      <point x="83" y="455" type="curve"/>
      <point x="146" y="492" type="line"/>
      <point x="83" y="527" type="line" smooth="yes"/>
      <point x="71" y="534.333"/>
      <point x="65" y="541.667"/>
      <point x="65" y="549" type="curve" smooth="yes"/>
      <point x="65" y="568.333"/>
      <point x="73" y="578"/>
      <point x="89" y="578" type="curve" smooth="yes"/>
      <point x="94.3333" y="578"/>
      <point x="101" y="576"/>
      <point x="109" y="572" type="curve" smooth="yes"/>
      <point x="172" y="536" type="line"/>
      <point x="172" y="608" type="line" smooth="yes"/>
      <point x="172" y="652"/>
      <point x="224" y="652"/>
      <point x="224" y="608" type="curve" smooth="yes"/>
      <point x="224" y="536" type="line"/>
      <point x="287" y="572" type="line"/>
      <point x="311.745" y="592.634"/>
      <point x="357.745" y="559.856"/>
      <point x="313" y="527" type="curve"/>
      <point x="251" y="492" type="line"/>
      <point x="313" y="455" type="line"/>
      <point x="357.405" y="425.02"/>
      <point x="313.183" y="388.686"/>
    </contour>
  </outline>
</glyph>
<glyph name="plus" format="1">
  <advance width="518"/>
  <unicode hex="002B"/>
  <outline>
    <contour>
      <point x="447" y="257" type="line" smooth="yes"/>
      <point x="492.333" y="257"/>
      <point x="492.333" y="204"/>
      <point x="447" y="204" type="curve" smooth="yes"/>
      <point x="285" y="204" type="line"/>
      <point x="285" y="20" type="line" smooth="yes"/>
      <point x="285" y="-22.6667"/>
      <point x="233" y="-22.6667"/>
      <point x="233" y="20" type="curve" smooth="yes"/>
      <point x="233" y="204" type="line"/>
      <point x="69" y="204" type="line" smooth="yes"/>
      <point x="27.6667" y="204"/>
      <point x="27.6667" y="257"/>
      <point x="69" y="257" type="curve" smooth="yes"/>
      <point x="233" y="257" type="line"/>
      <point x="233" y="440" type="line" smooth="yes"/>
      <point x="233" y="484"/>
      <point x="285" y="484"/>
      <point x="285" y="440" type="curve" smooth="yes"/>
      <point x="285" y="257" type="line"/>
    </contour>
  </outline>
</glyph>
<glyph name="comma" format="1">
  <advance width="210"/>
  <unicode hex="002C"/>
  <outline>
    <contour>
      <point x="137" y="22" type="curve"/>
      <point x="96" y="-61" type="line"/>
      <point x="89.3333" y="-77"/>
      <point x="81" y="-85"/>
      <point x="71" y="-85" type="curve" smooth="yes"/>
      <point x="56.3333" y="-85"/>
      <point x="49" y="-76.6667"/>
      <point x="49" y="-60" type="curve" smooth="yes"/>
      <point x="49" y="-57.3333"/>
      <point x="50" y="-52"/>
      <point x="52" y="-44" type="curve" smooth="yes"/>
      <point x="76" y="43" type="line" smooth="yes"/>
      <point x="80.6667" y="58.3333"/>
      <point x="89" y="66"/>
      <point x="101" y="66" type="curve" smooth="yes"/>
      <point x="133.967" y="66"/>
      <point x="149.417" y="44.35"/>
    </contour>
  </outline>
</glyph>
<glyph name="period" format="1">
  <advance width="232"/>
  <unicode hex="002E"/>
  <outline>
    <contour>
      <point x="65" y="29" type="curve" smooth="yes"/>
      <point x="65" y="82.0196"/>
      <point x="167" y="82.0196"/>
      <point x="167" y="29" type="curve" smooth="yes"/>
      <point x="167" y="-24.0196"/>
      <point x="65" y="-24.0196"/>
    </contour>
  </outline>
</glyph>
<glyph name="slash" format="1">
  <advance width="359"/>
  <unicode hex="002F"/>
  <outline>
    <contour>
      <point x="289" y="650" type="curve" smooth="yes"/>
      <point x="307" y="650"/>
      <point x="316" y="642"/>
      <point x="316" y="626" type="curve" smooth="yes"/>
      <point x="316" y="620.667"/>
      <point x="315" y="614.667"/>
      <point x="313" y="608" type="curve" smooth="yes"/>
      <point x="95" y="10" type="line" smooth="yes"/>
      <point x="89.6667" y="-5.33333"/>
      <point x="81" y="-13"/>
      <point x="69" y="-13" type="curve" smooth="yes"/>
      <point x="51.6667" y="-13"/>
      <point x="43" y="-5"/>
      <point x="43" y="11" type="curve" smooth="yes"/>
      <point x="43" y="15"/>
      <point x="44" y="21"/>
      <point x="46" y="29" type="curve"/>
      <point x="264" y="627" type="line" smooth="yes"/>
      <point x="269.333" y="642.333"/>
      <point x="277.667" y="650"/>
    </contour>
  </outline>
</glyph>
<glyph name="zero" format="1">
  <advance width="592"/>
  <unicode hex="0030"/>
  <outline>
    <contour>
      <point x="116" y="497" type="curve" smooth="yes"/>
      <point x="116" y="138" type="line" smooth="yes"/>
      <point x="116" y="92.6667"/>
      <point x="166.333" y="47"/>
      <point x="233" y="47" type="curve" smooth="yes"/>
      <point x="359" y="47" type="line" smooth="yes"/>
      <point x="425.667" y="47"/>
      <point x="476" y="92.6667"/>
      <point x="476" y="138" type="curve" smooth="yes"/>
      <point x="476" y="497" type="line" smooth="yes"/>
      <point x="476" y="542.333"/>
      <point x="425.667" y="588"/>
      <point x="359" y="588" type="curve" smooth="yes"/>
      <point x="233" y="588" type="line" smooth="yes"/>
      <point x="166.333" y="588"/>
      <point x="116" y="542.333"/>
    </contour>
    <contour>
      <point x="528" y="154" type="line" smooth="yes"/>
      <point x="528" y="60.6667"/>
      <point x="452.667" y="-5"/>
      <point x="350" y="-5" type="curve" smooth="yes"/>
      <point x="242" y="-5" type="line" smooth="yes"/>
      <point x="139.333" y="-5"/>
      <point x="64" y="60.6667"/>
      <point x="64" y="154" type="curve" smooth="yes"/>
      <point x="64" y="482" type="line" smooth="yes"/>
      <point x="64" y="575.333"/>
      <point x="139.333" y="641"/>
      <point x="242" y="641" type="curve" smooth="yes"/>
      <point x="350" y="641" type="line" smooth="yes"/>
      <point x="452.667" y="641"/>
      <point x="528" y="575.333"/>
      <point x="528" y="482" type="curve" smooth="yes"/>
    </contour>
  </outline>
</glyph>
<glyph name="one" format="1">
  <advance width="592"/>
  <unicode hex="0031"/>
  <outline>
    <contour>
      <point x="225" y="562" type="curve" smooth="yes"/>
      <point x="209" y="562"/>
      <point x="201" y="569.333"/>
      <point x="201" y="584" type="curve" smooth="yes"/>
      <point x="201" y="592.667"/>
      <point x="205.667" y="601.333"/>
      <point x="215" y="610" type="curve" smooth="yes"/>
      <point x="276" y="672" type="line"/>
      <point x="286" y="680.667"/>
      <point x="294.667" y="685"/>
      <point x="302" y="685" type="curve" smooth="yes"/>
      <point x="321.333" y="685"/>
      <point x="331" y="675.667"/>
      <point x="331" y="657" type="curve" smooth="yes"/>
      <point x="331" y="25" type="line" smooth="yes"/>
      <point x="331" y="-17.6667"/>
      <point x="279" y="-17.6667"/>
      <point x="279" y="25" type="curve" smooth="yes"/>
      <point x="279" y="600" type="line"/>
      <point x="254" y="576" type="line" smooth="yes"/>
      <point x="244.667" y="566.667"/>
      <point x="235" y="562"/>
    </contour>
  </outline>
</glyph>
<glyph name="two" format="1">
  <advance width="592"/>
  <unicode hex="0032"/>
  <outline>
    <contour>
      <point x="528" y="460" type="curve" smooth="yes"/>
      <point x="528" y="400"/>
      <point x="480.333" y="346"/>
      <point x="385" y="298" type="curve" smooth="yes"/>
      <point x="268.932" y="239.966"/>
      <point x="121.199" y="172.981"/>
      <point x="117" y="47" type="curve"/>
      <point x="493" y="47" type="line" smooth="yes"/>
      <point x="539.667" y="47"/>
      <point x="539.667" y="-5"/>
      <point x="493" y="-5" type="curve" smooth="yes"/>
      <point x="65" y="-5" type="line"/>
      <point x="65" y="44" type="line" smooth="yes"/>
      <point x="65" y="192.868"/>
      <point x="214.371" y="266.04"/>
      <point x="330" y="320" type="curve" smooth="yes"/>
      <point x="427.333" y="365.333"/>
      <point x="476" y="414"/>
      <point x="476" y="466" type="curve" smooth="yes"/>
      <point x="476" y="568.667"/>
      <point x="437.333" y="589"/>
      <point x="312" y="589" type="curve" smooth="yes"/>
      <point x="171" y="589" type="line" smooth="yes"/>
      <point x="128.333" y="589"/>
      <point x="117" y="573.333"/>
      <point x="117" y="528" type="curve" smooth="yes"/>
      <point x="117" y="482.667"/>
      <point x="65" y="478"/>
      <point x="65" y="542" type="curve" smooth="yes"/>
      <point x="65" y="608"/>
      <point x="97.3333" y="641"/>
      <point x="162" y="641" type="curve"/>
      <point x="162.667" y="641"/>
      <point x="163.333" y="641"/>
      <point x="164" y="641" type="curve"/>
      <point x="312" y="641" type="line" smooth="yes"/>
      <point x="460" y="641"/>
      <point x="528" y="604"/>
    </contour>
  </outline>
</glyph>
<glyph name="three" format="1">
  <advance width="592"/>
  <unicode hex="0033"/>
  <outline>
    <contour>
      <point x="338" y="589" type="curve" smooth="yes"/>
      <point x="254" y="589" type="line" smooth="yes"/>
      <point x="222.667" y="589"/>
      <point x="192" y="583.333"/>
      <point x="162" y="572" type="curve" smooth="yes"/>
      <point x="131.333" y="560"/>
      <point x="116" y="544"/>
      <point x="116" y="524" type="curve" smooth="yes"/>
      <point x="116" y="504"/>
      <point x="107.333" y="494"/>
      <point x="90" y="494" type="curve" smooth="yes"/>
      <point x="72.6667" y="494"/>
      <point x="64" y="507.333"/>
      <point x="64" y="534" type="curve" smooth="yes"/>
      <point x="64" y="587.333"/>
      <point x="135" y="641"/>
      <point x="247" y="641" type="curve" smooth="yes"/>
      <point x="327" y="641" type="line" smooth="yes"/>
      <point x="472.333" y="641"/>
      <point x="528" y="591"/>
      <point x="528" y="451" type="curve" smooth="yes"/>
      <point x="528" y="429"/>
      <point x="513.333" y="405"/>
      <point x="484" y="379" type="curve" smooth="yes"/>
      <point x="454.667" y="353"/>
      <point x="427" y="335.333"/>
      <point x="401" y="326" type="curve"/>
      <point x="425.667" y="318.667"/>
      <point x="453" y="299.167"/>
      <point x="483" y="267.5" type="curve" smooth="yes"/>
      <point x="513" y="235.833"/>
      <point x="528" y="208.333"/>
      <point x="528" y="185" type="curve" smooth="yes"/>
      <point x="528" y="45"/>
      <point x="472.333" y="-5"/>
      <point x="327" y="-5" type="curve" smooth="yes"/>
      <point x="247" y="-5" type="line" smooth="yes"/>
      <point x="191" y="-5"/>
      <point x="146.5" y="6.16667"/>
      <point x="113.5" y="28.5" type="curve" smooth="yes"/>
      <point x="47.5" y="73.1667"/>
      <point x="55.3333" y="142"/>
      <point x="90" y="142" type="curve" smooth="yes"/>
      <point x="107.333" y="142"/>
      <point x="116" y="132"/>
      <point x="116" y="112" type="curve" smooth="yes"/>
      <point x="116" y="72"/>
      <point x="191.333" y="47"/>
      <point x="254" y="47" type="curve" smooth="yes"/>
      <point x="338" y="47" type="line" smooth="yes"/>
      <point x="390.667" y="47"/>
      <point x="427" y="57.1667"/>
      <point x="447" y="77.5" type="curve" smooth="yes"/>
      <point x="487" y="118.167"/>
      <point x="498.333" y="206.667"/>
      <point x="413" y="260" type="curve" smooth="yes"/>
      <point x="369.667" y="286"/>
      <point x="332" y="299"/>
      <point x="300" y="299" type="curve" smooth="yes"/>
      <point x="268" y="299"/>
      <point x="252" y="308"/>
      <point x="252" y="326" type="curve" smooth="yes"/>
      <point x="252" y="343.333"/>
      <point x="268.667" y="352"/>
      <point x="302" y="352" type="curve" smooth="yes"/>
      <point x="335.333" y="352"/>
      <point x="372.833" y="363"/>
      <point x="414.5" y="385" type="curve" smooth="yes"/>
      <point x="456.167" y="407"/>
      <point x="477" y="436.333"/>
      <point x="477" y="473" type="curve" smooth="yes"/>
      <point x="477" y="546.333"/>
      <point x="443.333" y="589"/>
    </contour>
  </outline>
</glyph>
<glyph name="four" format="1">
  <advance width="592"/>
  <unicode hex="0034"/>
  <outline>
    <contour>
      <point x="498" y="170" type="curve" smooth="yes"/>
      <point x="442" y="170" type="line"/>
      <point x="442" y="24" type="line" smooth="yes"/>
      <point x="442" y="-17.3333"/>
      <point x="390.333" y="-17.3333"/>
      <point x="389" y="24" type="curve"/>
      <point x="389" y="170" type="line"/>
      <point x="62" y="170" type="line"/>
      <point x="62" y="233" type="line"/>
      <point x="376" y="641" type="line"/>
      <point x="442" y="641" type="line"/>
      <point x="442" y="222" type="line"/>
      <point x="498" y="222" type="line" smooth="yes"/>
      <point x="540.667" y="222"/>
      <point x="540.667" y="170"/>
    </contour>
    <contour>
      <point x="114" y="222" type="line"/>
      <point x="389" y="222" type="line"/>
      <point x="389" y="579" type="line"/>
    </contour>
  </outline>
</glyph>
<glyph name="five" format="1">
  <advance width="592"/>
  <unicode hex="0035"/>
  <outline>
    <contour>
      <point x="92" y="121" type="curve"/>
      <point x="93" y="121" type="line"/>
      <point x="97.6667" y="121"/>
      <point x="108.667" y="114.667"/>
      <point x="126" y="102" type="curve" smooth="yes"/>
      <point x="180" y="63.3333"/>
      <point x="235.333" y="44"/>
      <point x="292" y="44" type="curve"/>
      <point x="293.333" y="44"/>
      <point x="294.333" y="44"/>
      <point x="295" y="44" type="curve"/>
      <point x="350.333" y="44"/>
      <point x="393.333" y="60"/>
      <point x="424" y="92" type="curve" smooth="yes"/>
      <point x="455.333" y="124.667"/>
      <point x="471" y="170.333"/>
      <point x="471" y="229" type="curve"/>
      <point x="471" y="229.667"/>
      <point x="471" y="230.333"/>
      <point x="471" y="231" type="curve"/>
      <point x="471" y="307"/>
      <point x="436" y="356.333"/>
      <point x="366" y="379" type="curve" smooth="yes"/>
      <point x="350" y="384.333"/>
      <point x="333.667" y="387"/>
      <point x="317" y="387" type="curve" smooth="yes"/>
      <point x="75" y="387" type="line"/>
      <point x="84" y="512" type="line" smooth="yes"/>
      <point x="90.6667" y="608"/>
      <point x="122" y="641"/>
      <point x="198" y="641" type="curve" smooth="yes"/>
      <point x="449" y="641" type="line" smooth="yes"/>
      <point x="491.667" y="641"/>
      <point x="491.667" y="589"/>
      <point x="449" y="589" type="curve" smooth="yes"/>
      <point x="192" y="589" type="line" smooth="yes"/>
      <point x="158.667" y="589"/>
      <point x="142" y="574.333"/>
      <point x="138" y="529" type="curve"/>
      <point x="132" y="439" type="line"/>
      <point x="308" y="439" type="line" smooth="yes"/>
      <point x="420" y="439"/>
      <point x="523" y="359.5"/>
      <point x="523" y="221.5" type="curve" smooth="yes"/>
      <point x="523" y="83.5"/>
      <point x="428.333" y="-9"/>
      <point x="291" y="-9" type="curve" smooth="yes"/>
      <point x="249" y="-9"/>
      <point x="201.5" y="2.66667"/>
      <point x="148.5" y="26" type="curve" smooth="yes"/>
      <point x="95.5" y="49.3333"/>
      <point x="69" y="72.3333"/>
      <point x="69" y="95" type="curve" smooth="yes"/>
      <point x="69" y="108.333"/>
      <point x="82.6667" y="121"/>
    </contour>
  </outline>
</glyph>
<glyph name="six" format="1">
  <advance width="592"/>
  <unicode hex="0036"/>
  <outline>
    <contour>
      <point x="139" y="497" type="curve" smooth="yes"/>
      <point x="159.667" y="529.667"/>
      <point x="181.667" y="557.333"/>
      <point x="205" y="580" type="curve" smooth="yes"/>
      <point x="291.667" y="665.333"/>
      <point x="333" y="651.667"/>
      <point x="333" y="621" type="curve"/>
      <point x="339.583" y="598.25"/>
      <point x="185.667" y="550"/>
      <point x="139" y="375" type="curve"/>
      <point x="181.667" y="410.333"/>
      <point x="235.167" y="428"/>
      <point x="299.5" y="428" type="curve" smooth="yes"/>
      <point x="363.833" y="428"/>
      <point x="418" y="407.5"/>
      <point x="462" y="366.5" type="curve" smooth="yes"/>
      <point x="506" y="325.5"/>
      <point x="528" y="273.167"/>
      <point x="528" y="209.5" type="curve" smooth="yes"/>
      <point x="528" y="145.833"/>
      <point x="506" y="93.5"/>
      <point x="462" y="52.5" type="curve" smooth="yes"/>
      <point x="418" y="11.5"/>
      <point x="362.5" y="-9"/>
      <point x="295.5" y="-9" type="curve" smooth="yes"/>
      <point x="228.5" y="-9"/>
      <point x="173.167" y="11.3333"/>
      <point x="129.5" y="52" type="curve" smooth="yes"/>
      <point x="85.8333" y="92.6667"/>
      <point x="64" y="143.5"/>
      <point x="64" y="204.5" type="curve" smooth="yes"/>
      <point x="64" y="326.5"/>
      <point x="97.6667" y="433"/>
    </contour>
    <contour>
      <point x="296" y="376" type="curve" smooth="yes"/>
      <point x="184" y="376"/>
      <point x="116" y="310.167"/>
      <point x="116" y="209.5" type="curve" smooth="yes"/>
      <point x="116" y="108.833"/>
      <point x="184" y="43"/>
      <point x="296" y="43" type="curve" smooth="yes"/>
      <point x="408" y="43"/>
      <point x="476" y="108.833"/>
      <point x="476" y="209.5" type="curve" smooth="yes"/>
      <point x="476" y="310.167"/>
      <point x="408" y="376"/>
    </contour>
  </outline>
</glyph>
<glyph name="seven" format="1">
  <advance width="592"/>
  <unicode hex="0037"/>
  <outline>
    <contour>
      <point x="270" y="-10" type="curve" smooth="yes"/>
      <point x="250.667" y="-10"/>
      <point x="241" y="-2"/>
      <point x="241" y="14" type="curve" smooth="yes"/>
      <point x="241" y="20.6667"/>
      <point x="242.667" y="27.6667"/>
      <point x="246" y="35" type="curve" smooth="yes"/>
      <point x="457" y="594" type="line"/>
      <point x="181" y="594" type="line" smooth="yes"/>
      <point x="159.667" y="594"/>
      <point x="145" y="589.5"/>
      <point x="137" y="580.5" type="curve" smooth="yes"/>
      <point x="129" y="571.5"/>
      <point x="125" y="555.667"/>
      <point x="125" y="533" type="curve" smooth="yes"/>
      <point x="125" y="510.333"/>
      <point x="116.333" y="499"/>
      <point x="99" y="499" type="curve"/>
      <point x="98" y="499" type="line"/>
      <point x="81.3333" y="499"/>
      <point x="73" y="514.667"/>
      <point x="73" y="546" type="curve" smooth="yes"/>
      <point x="73" y="612.667"/>
      <point x="106.333" y="646"/>
      <point x="173" y="646" type="curve" smooth="yes"/>
      <point x="493" y="646" type="line" smooth="yes"/>
      <point x="510.333" y="646"/>
      <point x="519" y="638.333"/>
      <point x="519" y="623" type="curve" smooth="yes"/>
      <point x="519" y="617"/>
      <point x="517.667" y="610"/>
      <point x="515" y="602" type="curve" smooth="yes"/>
      <point x="297" y="16" type="line" smooth="yes"/>
      <point x="290.333" y="-1.33333"/>
      <point x="281.333" y="-10"/>
    </contour>
  </outline>
</glyph>
<glyph name="eight" format="1">
  <advance width="592"/>
  <unicode hex="0038"/>
  <outline>
    <contour>
      <point x="124" y="105" type="curve" smooth="yes"/>
      <point x="130" y="87"/>
      <point x="140.667" y="74"/>
      <point x="156" y="66" type="curve" smooth="yes"/>
      <point x="180" y="53.3333"/>
      <point x="219" y="47"/>
      <point x="273" y="47" type="curve" smooth="yes"/>
      <point x="275.667" y="47"/>
      <point x="278.333" y="47"/>
      <point x="281" y="47" type="curve" smooth="yes"/>
      <point x="312" y="47" type="line" smooth="yes"/>
      <point x="429.333" y="47"/>
      <point x="456.167" y="70.3333"/>
      <point x="467.5" y="105" type="curve" smooth="yes"/>
      <point x="473.167" y="122.333"/>
      <point x="476" y="151.833"/>
      <point x="476" y="193.5" type="curve" smooth="yes"/>
      <point x="476" y="276.833"/>
      <point x="437.333" y="302"/>
      <point x="312" y="302" type="curve" smooth="yes"/>
      <point x="281" y="302" type="line" smooth="yes"/>
      <point x="161" y="302"/>
      <point x="135.833" y="277.667"/>
      <point x="124.5" y="243" type="curve" smooth="yes"/>
      <point x="113.167" y="208.333"/>
      <point x="113.333" y="139.667"/>
    </contour>
    <contour>
      <point x="312" y="-5" type="curve" smooth="yes"/>
      <point x="281" y="-5" type="line" smooth="yes"/>
      <point x="192.333" y="-5"/>
      <point x="132.667" y="11.3333"/>
      <point x="102" y="44" type="curve" smooth="yes"/>
      <point x="76.6667" y="72"/>
      <point x="64" y="119.333"/>
      <point x="64" y="186" type="curve" smooth="yes"/>
      <point x="64" y="252.667"/>
      <point x="85.3333" y="299.333"/>
      <point x="128" y="326" type="curve"/>
      <point x="85.3333" y="349.333"/>
      <point x="64" y="398"/>
      <point x="64" y="472" type="curve" smooth="yes"/>
      <point x="64" y="557.333"/>
      <point x="92.6667" y="608.667"/>
      <point x="150" y="626" type="curve" smooth="yes"/>
      <point x="181.333" y="635.333"/>
      <point x="225" y="640.333"/>
      <point x="281" y="641" type="curve"/>
      <point x="312" y="641" type="line"/>
      <point x="314" y="641"/>
      <point x="316" y="641"/>
      <point x="318" y="641" type="curve"/>
      <point x="406.667" y="641"/>
      <point x="464" y="627.333"/>
      <point x="490" y="600" type="curve" smooth="yes"/>
      <point x="515.333" y="572.667"/>
      <point x="528" y="526"/>
      <point x="528" y="460" type="curve" smooth="yes"/>
      <point x="528" y="394"/>
      <point x="507" y="349.333"/>
      <point x="465" y="326" type="curve"/>
      <point x="507" y="298.667"/>
      <point x="528" y="248"/>
      <point x="528" y="174" type="curve" smooth="yes"/>
      <point x="528" y="26"/>
      <point x="452" y="-5"/>
    </contour>
    <contour>
      <point x="426" y="580" type="curve" smooth="yes"/>
      <point x="420.667" y="582.667"/>
      <point x="410.667" y="584.667"/>
      <point x="396" y="586" type="curve" smooth="yes"/>
      <point x="374" y="588"/>
      <point x="346" y="589"/>
      <point x="312" y="589" type="curve" smooth="yes"/>
      <point x="281" y="589" type="line" smooth="yes"/>
      <point x="278.333" y="589"/>
      <point x="275.333" y="589"/>
      <point x="272" y="589" type="curve" smooth="yes"/>
      <point x="196.667" y="589"/>
      <point x="152.667" y="580.667"/>
      <point x="140" y="564" type="curve" smooth="yes"/>
      <point x="124" y="543.333"/>
      <point x="116" y="517"/>
      <point x="116" y="485" type="curve" smooth="yes"/>
      <point x="116" y="421"/>
      <point x="126.667" y="397.333"/>
      <point x="140" y="380" type="curve" smooth="yes"/>
      <point x="146.667" y="372"/>
      <point x="158" y="366"/>
      <point x="174" y="362" type="curve" smooth="yes"/>
      <point x="195.333" y="356.667"/>
      <point x="231" y="354"/>
      <point x="281" y="354" type="curve" smooth="yes"/>
      <point x="312" y="354" type="line" smooth="yes"/>
      <point x="382.667" y="354"/>
      <point x="423" y="357.667"/>
      <point x="433" y="365" type="curve" smooth="yes"/>
      <point x="443" y="372.333"/>
      <point x="451.5" y="380.333"/>
      <point x="458.5" y="389" type="curve" smooth="yes"/>
      <point x="472.5" y="406.333"/>
      <point x="476" y="434"/>
      <point x="476" y="470" type="curve" smooth="yes"/>
      <point x="476" y="542.636"/>
      <point x="459.795" y="563.103"/>
    </contour>
  </outline>
</glyph>
<glyph name="nine" format="1">
  <advance width="592"/>
  <unicode hex="0039"/>
  <outline>
    <contour>
      <point x="312" y="641" type="curve" smooth="yes"/>
      <point x="456" y="641"/>
      <point x="528" y="584"/>
      <point x="528" y="470" type="curve" smooth="yes"/>
      <point x="528" y="328.667"/>
      <point x="480.667" y="198.667"/>
      <point x="414" y="116" type="curve" smooth="yes"/>
      <point x="343.333" y="28"/>
      <point x="262" y="-16"/>
      <point x="170" y="-16" type="curve" smooth="yes"/>
      <point x="128.667" y="-16"/>
      <point x="128" y="37"/>
      <point x="172" y="37" type="curve" smooth="yes"/>
      <point x="216" y="37"/>
      <point x="273.667" y="60.6667"/>
      <point x="331" y="106" type="curve" smooth="yes"/>
      <point x="395.667" y="156.667"/>
      <point x="439.667" y="232.667"/>
      <point x="463" y="334" type="curve"/>
      <point x="429" y="312.667"/>
      <point x="378.667" y="302"/>
      <point x="312" y="302" type="curve" smooth="yes"/>
      <point x="146.667" y="302"/>
      <point x="64" y="358.5"/>
      <point x="64" y="471.5" type="curve" smooth="yes"/>
      <point x="64" y="584.5"/>
      <point x="146.667" y="641"/>
    </contour>
    <contour>
      <point x="312" y="354" type="curve" smooth="yes"/>
      <point x="421.333" y="354"/>
      <point x="476" y="393.167"/>
      <point x="476" y="471.5" type="curve" smooth="yes"/>
      <point x="476" y="549.833"/>
      <point x="421.333" y="589"/>
      <point x="312" y="589" type="curve" smooth="yes"/>
      <point x="181.333" y="589"/>
      <point x="116" y="549.667"/>
      <point x="116" y="471" type="curve" smooth="yes"/>
      <point x="116" y="419.667"/>
      <point x="138.333" y="386.667"/>
      <point x="183" y="372" type="curve" smooth="yes"/>
      <point x="218.333" y="360"/>
      <point x="261.333" y="354"/>
    </contour>
  </outline>
</glyph>
<glyph name="colon" format="1">
  <advance width="248"/>
  <unicode hex="003A"/>
  <outline>
    <contour>
      <point x="73" y="80" type="curve" smooth="yes"/>
      <point x="73" y="133.02"/>
      <point x="175" y="133.02"/>
      <point x="175" y="80" type="curve" smooth="yes"/>
      <point x="175" y="26.9804"/>
      <point x="73" y="26.9804"/>
    </contour>
    <contour>
      <point x="73" y="433" type="curve" smooth="yes"/>
      <point x="73" y="486.02"/>
      <point x="175" y="486.02"/>
      <point x="175" y="433" type="curve" smooth="yes"/>
      <point x="175" y="379.98"/>
      <point x="73" y="379.98"/>
    </contour>
  </outline>
</glyph>
<glyph name="less" format="1">
  <advance width="530"/>
  <unicode hex="003C"/>
  <outline>
    <contour>
      <point x="435" y="574" type="curve" smooth="yes"/>
      <point x="451.667" y="574"/>
      <point x="460" y="566.333"/>
      <point x="460" y="551" type="curve" smooth="yes"/>
      <point x="460" y="537.667"/>
      <point x="453.667" y="528.333"/>
      <point x="441" y="523" type="curve"/>
      <point x="110" y="333" type="line"/>
      <point x="440" y="141" type="line"/>
      <point x="453.333" y="134.333"/>
      <point x="460" y="127.333"/>
      <point x="460" y="120" type="curve" smooth="yes"/>
      <point x="460" y="99.3333"/>
      <point x="452" y="89"/>
      <point x="436" y="89" type="curve" smooth="yes"/>
      <point x="429.333" y="89"/>
      <point x="422.333" y="91.3333"/>
      <point x="415" y="96" type="curve" smooth="yes"/>
      <point x="51" y="306" type="line" smooth="yes"/>
      <point x="27" y="320.667"/>
      <point x="27" y="344.667"/>
      <point x="51" y="358" type="curve" smooth="yes"/>
      <point x="415" y="568" type="line"/>
      <point x="420.333" y="572"/>
      <point x="427" y="574"/>
    </contour>
  </outline>
</glyph>
<glyph name="equal" format="1">
  <advance width="468"/>
  <unicode hex="003D"/>
  <outline>
    <contour>
      <point x="355" y="410" type="line" smooth="yes"/>
      <point x="400.333" y="410"/>
      <point x="400.333" y="357"/>
      <point x="355" y="357" type="curve" smooth="yes"/>
      <point x="110" y="357" type="line" smooth="yes"/>
      <point x="68.6667" y="357"/>
      <point x="68.6667" y="410"/>
      <point x="110" y="410" type="curve" smooth="yes"/>
    </contour>
    <contour>
      <point x="355" y="307" type="line" smooth="yes"/>
      <point x="400.333" y="307"/>
      <point x="400.333" y="254"/>
      <point x="355" y="254" type="curve" smooth="yes"/>
      <point x="110" y="254" type="line" smooth="yes"/>
      <point x="68.6667" y="254"/>
      <point x="68.6667" y="307"/>
      <point x="110" y="307" type="curve" smooth="yes"/>
    </contour>
  </outline>
</glyph>
<glyph name="greater" format="1">
  <advance width="530"/>
  <unicode hex="003E"/>
  <outline>
    <contour>
      <point x="95" y="574" type="curve" smooth="yes"/>
      <point x="103" y="574"/>
      <point x="109.667" y="572"/>
      <point x="115" y="568" type="curve"/>
      <point x="479" y="358" type="line" smooth="yes"/>
      <point x="503" y="344.667"/>
      <point x="503" y="320.667"/>
      <point x="479" y="306" type="curve" smooth="yes"/>
      <point x="115" y="96" type="line"/>
      <point x="88.9412" y="70.4771"/>
      <point x="43.2745" y="115.699"/>
      <point x="90" y="141" type="curve"/>
      <point x="420" y="333" type="line"/>
      <point x="89" y="523" type="line"/>
      <point x="63.6667" y="533.667"/>
      <point x="61.6667" y="574"/>
    </contour>
  </outline>
</glyph>
<glyph name="question" format="1">
  <advance width="536"/>
  <unicode hex="003F"/>
  <outline>
    <contour>
      <point x="200" y="29" type="curve" smooth="yes"/>
      <point x="200" y="82.0196"/>
      <point x="302" y="82.0196"/>
      <point x="302" y="29" type="curve" smooth="yes"/>
      <point x="302" y="-24.0196"/>
      <point x="200" y="-24.0196"/>
    </contour>
    <contour>
      <point x="277" y="194" type="line" smooth="yes"/>
      <point x="277" y="150"/>
      <point x="225" y="150"/>
      <point x="225" y="194" type="curve" smooth="yes"/>
      <point x="225" y="338" type="line"/>
      <point x="382" y="381" type="line" smooth="yes"/>
      <point x="416.667" y="390.333"/>
      <point x="442" y="430.333"/>
      <point x="442" y="485" type="curve" smooth="yes"/>
      <point x="442" y="539.667"/>
      <point x="411.667" y="597"/>
      <point x="345" y="597" type="curve" smooth="yes"/>
      <point x="252" y="597" type="line" smooth="yes"/>
      <point x="176" y="597"/>
      <point x="130" y="586.667"/>
      <point x="114" y="566" type="curve" smooth="yes"/>
      <point x="98.6667" y="546"/>
      <point x="91" y="516"/>
      <point x="91" y="476" type="curve"/>
      <point x="91" y="474"/>
      <point x="91" y="472.333"/>
      <point x="91" y="471" type="curve"/>
      <point x="91" y="427"/>
      <point x="38" y="423.167"/>
      <point x="38" y="482.5" type="curve" smooth="yes"/>
      <point x="38" y="541.833"/>
      <point x="56.6667" y="594"/>
      <point x="98" y="618" type="curve" smooth="yes"/>
      <point x="133.333" y="638.667"/>
      <point x="184.667" y="649"/>
      <point x="252" y="649" type="curve" smooth="yes"/>
      <point x="328" y="649" type="line" smooth="yes"/>
      <point x="445.333" y="649"/>
      <point x="494" y="574.5"/>
      <point x="494" y="484.5" type="curve" smooth="yes"/>
      <point x="494" y="394.5"/>
      <point x="460.333" y="349.333"/>
      <point x="367" y="324" type="curve" smooth="yes"/>
      <point x="277" y="299" type="line"/>
    </contour>
  </outline>
</glyph>
<glyph name="at" format="1">
  <advance width="593"/>
  <unicode hex="0040"/>
  <outline>
    <contour>
      <point x="283" y="-5" type="line" smooth="yes"/>
      <point x="153.667" y="-5"/>
      <point x="70" y="87.6667"/>
      <point x="70" y="241" type="curve" smooth="yes"/>
      <point x="70" y="395" type="line" smooth="yes"/>
      <point x="70" y="548.333"/>
      <point x="153.667" y="641"/>
      <point x="283" y="641" type="curve" smooth="yes"/>
      <point x="312" y="641" type="line" smooth="yes"/>
      <point x="441.333" y="641"/>
      <point x="525" y="548.333"/>
      <point x="525" y="395" type="curve" smooth="yes"/>
      <point x="525" y="327.667"/>
      <point x="520" y="285.667"/>
      <point x="510" y="269" type="curve" smooth="yes"/>
      <point x="500" y="252.333"/>
      <point x="489.333" y="238.667"/>
      <point x="478" y="228" type="curve" smooth="yes"/>
      <point x="467.333" y="217.333"/>
      <point x="454" y="209.333"/>
      <point x="438" y="204" type="curve" smooth="yes"/>
      <point x="398" y="190.667"/>
      <point x="354" y="184"/>
      <point x="306" y="184" type="curve"/>
      <point x="254" y="184.667"/>
      <point x="219.167" y="196.333"/>
      <point x="201.5" y="219" type="curve" smooth="yes"/>
      <point x="183.833" y="241.667"/>
      <point x="175" y="279.167"/>
      <point x="175" y="331.5" type="curve" smooth="yes"/>
      <point x="175" y="383.833"/>
      <point x="183.833" y="421.333"/>
      <point x="201.5" y="444" type="curve" smooth="yes"/>
      <point x="219.167" y="466.667"/>
      <point x="252.333" y="478"/>
      <point x="301" y="478" type="curve" smooth="yes"/>
      <point x="349.667" y="478"/>
      <point x="383" y="466.667"/>
      <point x="401" y="444" type="curve" smooth="yes"/>
      <point x="419" y="421.333"/>
      <point x="428" y="388.5"/>
      <point x="428" y="345.5" type="curve" smooth="yes"/>
      <point x="428" y="302.5"/>
      <point x="424.667" y="270.667"/>
      <point x="418" y="250" type="curve"/>
      <point x="460.667" y="262"/>
      <point x="473" y="286.333"/>
      <point x="473" y="401" type="curve" smooth="yes"/>
      <point x="473" y="515.667"/>
      <point x="417.333" y="589"/>
      <point x="312" y="589" type="curve" smooth="yes"/>
      <point x="283" y="589" type="line" smooth="yes"/>
      <point x="176.333" y="589"/>
      <point x="122" y="517.667"/>
      <point x="122" y="395" type="curve" smooth="yes"/>
      <point x="122" y="241" type="line" smooth="yes"/>
      <point x="122" y="118.333"/>
      <point x="176.333" y="47"/>
      <point x="283" y="47" type="curve" smooth="yes"/>
      <point x="417" y="47" type="line" smooth="yes"/>
      <point x="458.333" y="47"/>
      <point x="473" y="62.6667"/>
      <point x="473" y="108" type="curve" smooth="yes"/>
      <point x="473" y="130.667"/>
      <point x="481.667" y="142"/>
      <point x="499" y="142" type="curve" smooth="yes"/>
      <point x="533.667" y="142"/>
      <point x="526" y="88.6667"/>
      <point x="522" y="66" type="curve" smooth="yes"/>
      <point x="519.333" y="55.3333"/>
      <point x="514.667" y="44"/>
      <point x="508" y="32" type="curve" smooth="yes"/>
      <point x="494" y="7.33333"/>
      <point x="466" y="-5"/>
      <point x="424" y="-5" type="curve" smooth="yes"/>
    </contour>
    <contour>
      <point x="227" y="331.5" type="curve" smooth="yes"/>
      <point x="227" y="254.833"/>
      <point x="236.833" y="237"/>
      <point x="301.5" y="237" type="curve" smooth="yes"/>
      <point x="366.167" y="237"/>
      <point x="376" y="256"/>
      <point x="376" y="332" type="curve" smooth="yes"/>
      <point x="376" y="408"/>
      <point x="366.167" y="426"/>
      <point x="301.5" y="426" type="curve" smooth="yes"/>
      <point x="236.833" y="426"/>
      <point x="227" y="408.167"/>
    </contour>
  </outline>
</glyph>
<glyph name="A" format="1">
  <advance width="570"/>
  <unicode hex="0041"/>
  <outline>
    <contour>
      <point x="50" y="-16" type="curve" smooth="yes"/>
      <point x="32.6667" y="-16"/>
      <point x="24" y="-7.66667"/>
      <point x="24" y="9" type="curve" smooth="yes"/>
      <point x="24" y="13.6667"/>
      <point x="25" y="19"/>
      <point x="27" y="25" type="curve" smooth="yes"/>
      <point x="254" y="636" type="line"/>
      <point x="316" y="636" type="line"/>
      <point x="543" y="25" type="line" smooth="yes"/>
      <point x="545" y="19"/>
      <point x="546" y="13.6667"/>
      <point x="546" y="9" type="curve" smooth="yes"/>
      <point x="546" y="-7.66667"/>
      <point x="537.333" y="-16"/>
      <point x="520" y="-16" type="curve" smooth="yes"/>
      <point x="508.667" y="-16"/>
      <point x="499.667" y="-8.33333"/>
      <point x="493" y="7" type="curve"/>
      <point x="422" y="199" type="line"/>
      <point x="148" y="199" type="line"/>
      <point x="77" y="7" type="line"/>
      <point x="70.3333" y="-8.33333"/>
      <point x="61.3333" y="-16"/>
    </contour>
    <contour>
      <point x="284" y="560" type="line"/>
      <point x="168" y="251" type="line"/>
      <point x="402" y="251" type="line"/>
    </contour>
  </outline>
</glyph>
<glyph name="B" format="1">
  <advance width="605"/>
  <unicode hex="0042"/>
  <outline>
    <contour>
      <point x="136" y="332" type="line"/>
      <point x="136" y="52" type="line"/>
      <point x="326" y="52" type="line" smooth="yes"/>
      <point x="456.667" y="52"/>
      <point x="496" y="70"/>
      <point x="496" y="178" type="curve" smooth="yes"/>
      <point x="496" y="206" type="line" smooth="yes"/>
      <point x="496" y="314"/>
      <point x="457.333" y="332"/>
      <point x="332" y="332" type="curve" smooth="yes"/>
    </contour>
    <contour>
      <point x="457" y="374" type="curve"/>
      <point x="517.667" y="351.333"/>
      <point x="548" y="296.333"/>
      <point x="548" y="209" type="curve" smooth="yes"/>
      <point x="548" y="180" type="line" smooth="yes"/>
      <point x="548" y="36"/>
      <point x="479.333" y="0"/>
      <point x="326" y="0" type="curve" smooth="yes"/>
      <point x="108" y="0" type="line" smooth="yes"/>
      <point x="92" y="0"/>
      <point x="84" y="12"/>
      <point x="84" y="36" type="curve" smooth="yes"/>
      <point x="84" y="600" type="line" smooth="yes"/>
      <point x="84" y="624"/>
      <point x="92" y="636"/>
      <point x="108" y="636" type="curve" smooth="yes"/>
      <point x="288" y="636" type="line" smooth="yes"/>
      <point x="362" y="636"/>
      <point x="416.833" y="625.667"/>
      <point x="452.5" y="605" type="curve" smooth="yes"/>
      <point x="488.167" y="584.333"/>
      <point x="506" y="546.667"/>
      <point x="506" y="492" type="curve" smooth="yes"/>
      <point x="506" y="437.333"/>
      <point x="489.667" y="398"/>
    </contour>
    <contour>
      <point x="288" y="384" type="line" smooth="yes"/>
      <point x="410.667" y="384"/>
      <point x="454" y="401.667"/>
      <point x="454" y="483" type="curve" smooth="yes"/>
      <point x="454" y="564.333"/>
      <point x="412" y="579"/>
      <point x="288" y="579" type="curve" smooth="yes"/>
      <point x="136" y="579" type="line"/>
      <point x="136" y="384" type="line"/>
    </contour>
  </outline>
</glyph>
<glyph name="C" format="1">
  <advance width="592"/>
  <unicode hex="0043"/>
  <outline>
    <contour>
      <point x="436" y="0" type="curve" smooth="yes"/>
      <point x="295" y="0" type="line" smooth="yes"/>
      <point x="140.333" y="0"/>
      <point x="72" y="36"/>
      <point x="72" y="180" type="curve" smooth="yes"/>
      <point x="72" y="456" type="line" smooth="yes"/>
      <point x="72" y="600"/>
      <point x="141" y="636"/>
      <point x="289" y="636" type="curve" smooth="yes"/>
      <point x="436" y="636" type="line" smooth="yes"/>
      <point x="492" y="636"/>
      <point x="524.333" y="612.333"/>
      <point x="533" y="565" type="curve" smooth="yes"/>
      <point x="537" y="542.333"/>
      <point x="544.667" y="489"/>
      <point x="510" y="489" type="curve" smooth="yes"/>
      <point x="492.667" y="489"/>
      <point x="484" y="500.333"/>
      <point x="484" y="523" type="curve" smooth="yes"/>
      <point x="484" y="568.333"/>
      <point x="470.333" y="584"/>
      <point x="429" y="584" type="curve" smooth="yes"/>
      <point x="289" y="584" type="line"/>
      <point x="111.75" y="580.333"/>
      <point x="135.5" y="538.417"/>
      <point x="124" y="456" type="curve"/>
      <point x="124" y="180" type="line" smooth="yes"/>
      <point x="124" y="69.3333"/>
      <point x="163" y="52"/>
      <point x="295" y="52" type="curve" smooth="yes"/>
      <point x="429" y="52" type="line" smooth="yes"/>
      <point x="450.333" y="52"/>
      <point x="464.833" y="56.6667"/>
      <point x="472.5" y="66" type="curve" smooth="yes"/>
      <point x="480.167" y="75.3333"/>
      <point x="484" y="91.1667"/>
      <point x="484" y="113.5" type="curve" smooth="yes"/>
      <point x="484" y="135.833"/>
      <point x="492.667" y="147"/>
      <point x="510" y="147" type="curve" smooth="yes"/>
      <point x="527.333" y="147"/>
      <point x="536" y="137.167"/>
      <point x="536" y="117.5" type="curve" smooth="yes"/>
      <point x="536" y="78.1667"/>
      <point x="533.333" y="60"/>
      <point x="520" y="36" type="curve" smooth="yes"/>
      <point x="506.667" y="12"/>
      <point x="478.667" y="0"/>
    </contour>
  </outline>
</glyph>
<glyph name="D" format="1">
  <advance width="620"/>
  <unicode hex="0044"/>
  <outline>
    <contour>
      <point x="548" y="456" type="curve"/>
      <point x="548" y="180" type="line" smooth="yes"/>
      <point x="548" y="36"/>
      <point x="479.333" y="0"/>
      <point x="326" y="0" type="curve" smooth="yes"/>
      <point x="108" y="0" type="line" smooth="yes"/>
      <point x="92" y="0"/>
      <point x="84" y="12"/>
      <point x="84" y="36" type="curve" smooth="yes"/>
      <point x="84" y="600" type="line" smooth="yes"/>
      <point x="84" y="624"/>
      <point x="92" y="636"/>
      <point x="108" y="636" type="curve" smooth="yes"/>
      <point x="332" y="636" type="line"/>
      <point x="539.75" y="630.75"/>
      <point x="537.5" y="561.75"/>
    </contour>
    <contour>
      <point x="496" y="180" type="curve" smooth="yes"/>
      <point x="496" y="456" type="line" smooth="yes"/>
      <point x="496" y="565.333"/>
      <point x="457.333" y="584"/>
      <point x="332" y="584" type="curve" smooth="yes"/>
      <point x="136" y="584" type="line"/>
      <point x="136" y="52" type="line"/>
      <point x="326" y="52" type="line" smooth="yes"/>
      <point x="456.667" y="52"/>
      <point x="496" y="69.3333"/>
    </contour>
  </outline>
</glyph>
<glyph name="E" format="1">
  <advance width="598"/>
  <unicode hex="0045"/>
  <outline>
    <contour>
      <point x="136" y="332" type="line"/>
      <point x="136" y="52" type="line"/>
      <point x="514" y="52" type="line" smooth="yes"/>
      <point x="559.333" y="52"/>
      <point x="559.333" y="0"/>
      <point x="514" y="0" type="curve" smooth="yes"/>
      <point x="108" y="0" type="line" smooth="yes"/>
      <point x="92" y="0"/>
      <point x="84" y="12"/>
      <point x="84" y="36" type="curve" smooth="yes"/>
      <point x="84" y="600" type="line" smooth="yes"/>
      <point x="84" y="624"/>
      <point x="92" y="636"/>
      <point x="108" y="636" type="curve" smooth="yes"/>
      <point x="514" y="636" type="line" smooth="yes"/>
      <point x="559.333" y="636"/>
      <point x="559.333" y="584"/>
      <point x="514" y="584" type="curve" smooth="yes"/>
      <point x="136" y="584" type="line"/>
      <point x="136" y="384" type="line"/>
      <point x="395" y="384" type="line" smooth="yes"/>
      <point x="443" y="384"/>
      <point x="443" y="332"/>
      <point x="395" y="332" type="curve" smooth="yes"/>
    </contour>
  </outline>
</glyph>
<glyph name="F" format="1">
  <advance width="577"/>
  <unicode hex="0046"/>
  <outline>
    <contour>
      <point x="136" y="27" type="line" smooth="yes"/>
      <point x="136" y="-18.3333"/>
      <point x="84" y="-18.6667"/>
      <point x="84" y="28" type="curve" smooth="yes"/>
      <point x="84" y="600" type="line" smooth="yes"/>
      <point x="84" y="624"/>
      <point x="92" y="636"/>
      <point x="108" y="636" type="curve" smooth="yes"/>
      <point x="514" y="636" type="line" smooth="yes"/>
      <point x="559.333" y="636"/>
      <point x="559.333" y="584"/>
      <point x="514" y="584" type="curve" smooth="yes"/>
      <point x="136" y="584" type="line"/>
      <point x="136" y="384" type="line"/>
      <point x="395" y="384" type="line" smooth="yes"/>
      <point x="443" y="384"/>
      <point x="443" y="332"/>
      <point x="395" y="332" type="curve" smooth="yes"/>
      <point x="136" y="332" type="line"/>
    </contour>
  </outline>
</glyph>
<glyph name="G" format="1">
  <advance width="606"/>
  <unicode hex="0047"/>
  <outline>
    <contour>
      <point x="484" y="246" type="line"/>
      <point x="353" y="246" type="line" smooth="yes"/>
      <point x="305" y="246"/>
      <point x="305" y="298"/>
      <point x="353" y="298" type="curve" smooth="yes"/>
      <point x="536" y="298" type="line"/>
      <point x="536" y="109" type="line" smooth="yes"/>
      <point x="536" y="43.6667"/>
      <point x="517.333" y="0"/>
      <point x="436" y="0" type="curve" smooth="yes"/>
      <point x="289" y="0" type="line"/>
      <point x="80.9167" y="5"/>
      <point x="82.0833" y="70.75"/>
      <point x="72" y="177" type="curve"/>
      <point x="72" y="459" type="line" smooth="yes"/>
      <point x="72" y="600.333"/>
      <point x="140.333" y="636"/>
      <point x="295" y="636" type="curve" smooth="yes"/>
      <point x="436" y="636" type="line" smooth="yes"/>
      <point x="492" y="636"/>
      <point x="524.333" y="612.333"/>
      <point x="533" y="565" type="curve" smooth="yes"/>
      <point x="537" y="542.333"/>
      <point x="544.667" y="489"/>
      <point x="510" y="489" type="curve" smooth="yes"/>
      <point x="492.667" y="489"/>
      <point x="484" y="500.167"/>
      <point x="484" y="522.5" type="curve" smooth="yes"/>
      <point x="484" y="567.167"/>
      <point x="471.667" y="584"/>
      <point x="429" y="584" type="curve" smooth="yes"/>
      <point x="295" y="584" type="line" smooth="yes"/>
      <point x="163" y="584"/>
      <point x="124" y="566"/>
      <point x="124" y="458" type="curve" smooth="yes"/>
      <point x="124" y="178" type="line" smooth="yes"/>
      <point x="124" y="70"/>
      <point x="163.667" y="52"/>
      <point x="289" y="52" type="curve" smooth="yes"/>
      <point x="429" y="52" type="line" smooth="yes"/>
      <point x="471.667" y="52"/>
      <point x="484" y="68"/>
      <point x="484" y="112" type="curve" smooth="yes"/>
    </contour>
  </outline>
</glyph>
<glyph name="H" format="1">
  <advance width="632"/>
  <unicode hex="0048"/>
  <outline>
    <contour>
      <point x="136" y="27" type="line" smooth="yes"/>
      <point x="136" y="-18.3333"/>
      <point x="84" y="-18.3333"/>
      <point x="84" y="27" type="curve" smooth="yes"/>
      <point x="84" y="608" type="line" smooth="yes"/>
      <point x="84" y="654.667"/>
      <point x="136" y="654.667"/>
      <point x="136" y="608" type="curve" smooth="yes"/>
      <point x="136" y="369" type="line"/>
      <point x="496" y="369" type="line"/>
      <point x="496" y="608" type="line" smooth="yes"/>
      <point x="496" y="654.667"/>
      <point x="548" y="654.667"/>
      <point x="548" y="608" type="curve" smooth="yes"/>
      <point x="548" y="27" type="line" smooth="yes"/>
      <point x="548" y="-18.3333"/>
      <point x="496" y="-18.3333"/>
      <point x="496" y="27" type="curve" smooth="yes"/>
      <point x="496" y="317" type="line"/>
      <point x="136" y="317" type="line"/>
    </contour>
  </outline>
</glyph>
<glyph name="I" format="1">
  <advance width="220"/>
  <unicode hex="0049"/>
  <outline>
    <contour>
      <point x="136" y="25" type="line" smooth="yes"/>
      <point x="136" y="-17.6667"/>
      <point x="84" y="-17.6667"/>
      <point x="84" y="25" type="curve" smooth="yes"/>
      <point x="84" y="610" type="line" smooth="yes"/>
      <point x="84" y="654"/>
      <point x="136" y="654"/>
      <point x="136" y="610" type="curve" smooth="yes"/>
    </contour>
  </outline>
</glyph>
<glyph name="J" format="1">
  <advance width="550"/>
  <unicode hex="004A"/>
  <outline>
    <contour>
      <point x="417" y="170" type="curve" smooth="yes"/>
      <point x="417" y="611" type="line" smooth="yes"/>
      <point x="417" y="653.667"/>
      <point x="469" y="654"/>
      <point x="469" y="610" type="curve" smooth="yes"/>
      <point x="469" y="169" type="line"/>
      <point x="469" y="167.667"/>
      <point x="469" y="166.333"/>
      <point x="469" y="165" type="curve"/>
      <point x="469" y="93"/>
      <point x="449.333" y="45.6667"/>
      <point x="410" y="23" type="curve" smooth="yes"/>
      <point x="374.667" y="2.33333"/>
      <point x="330.167" y="-8"/>
      <point x="276.5" y="-8" type="curve" smooth="yes"/>
      <point x="222.833" y="-8"/>
      <point x="184" y="-6"/>
      <point x="160" y="-2" type="curve"/>
      <point x="135.333" y="3.33333"/>
      <point x="112.667" y="12"/>
      <point x="92" y="24" type="curve" smooth="yes"/>
      <point x="52" y="47.3333"/>
      <point x="32" y="96.6667"/>
      <point x="32" y="172" type="curve" smooth="yes"/>
      <point x="32" y="216"/>
      <point x="85" y="216"/>
      <point x="85" y="172" type="curve" smooth="yes"/>
      <point x="85" y="61.3333"/>
      <point x="123.167" y="44"/>
      <point x="250.5" y="44" type="curve" smooth="yes"/>
      <point x="377.833" y="44"/>
      <point x="417" y="62"/>
    </contour>
  </outline>
</glyph>
<glyph name="K" format="1">
  <advance width="518"/>
  <unicode hex="004B"/>
  <outline>
    <contour>
      <point x="463" y="8" type="curve" smooth="yes"/>
      <point x="189" y="322" type="line"/>
      <point x="136" y="258" type="line"/>
      <point x="136" y="25" type="line" smooth="yes"/>
      <point x="136" y="-17.6667"/>
      <point x="84" y="-17.6667"/>
      <point x="84" y="25" type="curve" smooth="yes"/>
      <point x="84" y="610" type="line" smooth="yes"/>
      <point x="84" y="654"/>
      <point x="136" y="654"/>
      <point x="136" y="610" type="curve" smooth="yes"/>
      <point x="136" y="330" type="line"/>
      <point x="397" y="628" type="line"/>
      <point x="411.667" y="648"/>
      <point x="427.333" y="645.333"/>
      <point x="438" y="636" type="curve" smooth="yes"/>
      <point x="450" y="625.333"/>
      <point x="450.333" y="612.333"/>
      <point x="437" y="595" type="curve"/>
      <point x="224" y="356" type="line"/>
      <point x="503" y="41" type="line"/>
      <point x="530.005" y="9.08555"/>
      <point x="493.783" y="-27.5191"/>
    </contour>
  </outline>
</glyph>
<glyph name="L" format="1">
  <advance width="516"/>
  <unicode hex="004C"/>
  <outline>
    <contour>
      <point x="108" y="0" type="line" smooth="yes"/>
      <point x="92" y="0"/>
      <point x="84" y="11.6667"/>
      <point x="84" y="35" type="curve" smooth="yes"/>
      <point x="84" y="611" type="line" smooth="yes"/>
      <point x="84" y="653.667"/>
      <point x="136" y="653.667"/>
      <point x="136" y="611" type="curve" smooth="yes"/>
      <point x="136" y="52" type="line"/>
      <point x="459" y="52" type="line" smooth="yes"/>
      <point x="503" y="52"/>
      <point x="503" y="0"/>
      <point x="459" y="0" type="curve" smooth="yes"/>
    </contour>
  </outline>
</glyph>
<glyph name="M" format="1">
  <advance width="653"/>
  <unicode hex="004D"/>
  <outline>
    <contour>
      <point x="344" y="287" type="line" smooth="yes"/>
      <point x="336" y="276.333"/>
      <point x="317" y="276.333"/>
      <point x="309" y="287" type="curve" smooth="yes"/>
      <point x="136" y="545" type="line"/>
      <point x="136" y="28" type="line" smooth="yes"/>
      <point x="136" y="-18.6667"/>
      <point x="84" y="-18.3333"/>
      <point x="84" y="27" type="curve" smooth="yes"/>
      <point x="84" y="608" type="line" smooth="yes"/>
      <point x="84" y="631.333"/>
      <point x="92" y="643"/>
      <point x="108" y="643" type="curve" smooth="yes"/>
      <point x="120" y="643"/>
      <point x="130" y="636.667"/>
      <point x="138" y="624" type="curve" smooth="yes"/>
      <point x="326" y="346" type="line"/>
      <point x="515" y="624" type="line" smooth="yes"/>
      <point x="523.667" y="636.667"/>
      <point x="533.333" y="643"/>
      <point x="544" y="643" type="curve" smooth="yes"/>
      <point x="560.667" y="643"/>
      <point x="569" y="631.333"/>
      <point x="569" y="608" type="curve" smooth="yes"/>
      <point x="569" y="27" type="line" smooth="yes"/>
      <point x="569" y="-18.3333"/>
      <point x="517" y="-18.6667"/>
      <point x="517" y="28" type="curve" smooth="yes"/>
      <point x="517" y="545" type="line"/>
    </contour>
  </outline>
</glyph>
<glyph name="N" format="1">
  <advance width="632"/>
  <unicode hex="004E"/>
  <outline>
    <contour>
      <point x="523" y="-7" type="curve" smooth="yes"/>
      <point x="513.667" y="-7"/>
      <point x="507" y="-4.66667"/>
      <point x="503" y="0" type="curve" smooth="yes"/>
      <point x="136" y="543" type="line"/>
      <point x="136" y="26" type="line" smooth="yes"/>
      <point x="136" y="-18"/>
      <point x="84" y="-18.3333"/>
      <point x="84" y="27" type="curve" smooth="yes"/>
      <point x="84" y="608" type="line" smooth="yes"/>
      <point x="84" y="631.333"/>
      <point x="92" y="643"/>
      <point x="108" y="643" type="curve" smooth="yes"/>
      <point x="120" y="643"/>
      <point x="130" y="636.667"/>
      <point x="138" y="624" type="curve" smooth="yes"/>
      <point x="496" y="96" type="line"/>
      <point x="496" y="607" type="line" smooth="yes"/>
      <point x="496" y="655"/>
      <point x="548" y="654.667"/>
      <point x="548" y="608" type="curve" smooth="yes"/>
      <point x="548" y="27" type="line" smooth="yes"/>
      <point x="548" y="4.33333"/>
      <point x="539.667" y="-7"/>
    </contour>
  </outline>
</glyph>
<glyph name="O" format="1">
  <advance width="594"/>
  <unicode hex="004F"/>
  <outline>
    <contour>
      <point x="65" y="228" type="curve" smooth="yes"/>
      <point x="65" y="408" type="line" smooth="yes"/>
      <point x="65" y="556"/>
      <point x="161" y="645"/>
      <point x="297" y="645" type="curve" smooth="yes"/>
      <point x="433" y="645"/>
      <point x="529" y="554.667"/>
      <point x="529" y="408" type="curve" smooth="yes"/>
      <point x="529" y="228" type="line" smooth="yes"/>
      <point x="529" y="81.3333"/>
      <point x="433" y="-9"/>
      <point x="297" y="-9" type="curve" smooth="yes"/>
      <point x="161" y="-9"/>
      <point x="65" y="80"/>
    </contour>
    <contour>
      <point x="117" y="407" type="curve" smooth="yes"/>
      <point x="117" y="229" type="line" smooth="yes"/>
      <point x="117" y="111.667"/>
      <point x="182.333" y="43"/>
      <point x="297" y="43" type="curve" smooth="yes"/>
      <point x="411.667" y="43"/>
      <point x="477" y="111.667"/>
      <point x="477" y="229" type="curve" smooth="yes"/>
      <point x="477" y="407" type="line" smooth="yes"/>
      <point x="477" y="524.333"/>
      <point x="411.667" y="593"/>
      <point x="297" y="593" type="curve" smooth="yes"/>
      <point x="182.333" y="593"/>
      <point x="117" y="524.333"/>
    </contour>
  </outline>
</glyph>
<glyph name="P" format="1">
  <advance width="540"/>
  <unicode hex="0050"/>
  <outline>
    <contour>
      <point x="136" y="25" type="line" smooth="yes"/>
      <point x="136" y="-17.6667"/>
      <point x="84" y="-17.6667"/>
      <point x="84" y="25" type="curve" smooth="yes"/>
      <point x="84" y="600" type="line" smooth="yes"/>
      <point x="84" y="624"/>
      <point x="92" y="636"/>
      <point x="108" y="636" type="curve" smooth="yes"/>
      <point x="289" y="636" type="line" smooth="yes"/>
      <point x="433" y="636"/>
      <point x="506" y="597.333"/>
      <point x="506" y="488" type="curve" smooth="yes"/>
      <point x="506" y="380.667"/>
      <point x="448.333" y="327"/>
      <point x="333" y="327" type="curve" smooth="yes"/>
      <point x="136" y="327" type="line"/>
    </contour>
    <contour>
      <point x="289" y="379" type="line" smooth="yes"/>
      <point x="411.667" y="379"/>
      <point x="454" y="398"/>
      <point x="454" y="482" type="curve" smooth="yes"/>
      <point x="454" y="566"/>
      <point x="410.333" y="584"/>
      <point x="289" y="584" type="curve" smooth="yes"/>
      <point x="136" y="584" type="line"/>
      <point x="136" y="379" type="line"/>
    </contour>
  </outline>
</glyph>
<glyph name="Q" format="1">
  <advance width="594"/>
  <unicode hex="0051"/>
  <outline>
    <contour>
      <point x="117" y="407" type="curve" smooth="yes"/>
      <point x="117" y="229" type="line" smooth="yes"/>
      <point x="117" y="170.333"/>
      <point x="132.667" y="124.667"/>
      <point x="164" y="92" type="curve" smooth="yes"/>
      <point x="195.333" y="59.3333"/>
      <point x="236.667" y="43"/>
      <point x="288" y="43" type="curve" smooth="yes"/>
      <point x="339.333" y="43"/>
      <point x="378.667" y="52.6667"/>
      <point x="406" y="72" type="curve"/>
      <point x="350" y="124" type="line"/>
      <point x="317.455" y="151.538"/>
      <point x="353.1" y="193.336"/>
      <point x="389" y="160" type="curve"/>
      <point x="443" y="107" type="line"/>
      <point x="465.667" y="137.667"/>
      <point x="477" y="178.333"/>
      <point x="477" y="229" type="curve" smooth="yes"/>
      <point x="477" y="407" type="line" smooth="yes"/>
      <point x="477" y="524.333"/>
      <point x="411.667" y="593"/>
      <point x="297" y="593" type="curve" smooth="yes"/>
      <point x="182.333" y="593"/>
      <point x="117" y="524.333"/>
    </contour>
    <contour>
      <point x="443" y="34" type="line"/>
      <point x="403" y="5.33333"/>
      <point x="351.667" y="-9"/>
      <point x="289" y="-9" type="curve" smooth="yes"/>
      <point x="163.667" y="-9"/>
      <point x="65" y="80"/>
      <point x="65" y="228" type="curve" smooth="yes"/>
      <point x="65" y="408" type="line" smooth="yes"/>
      <point x="65" y="556"/>
      <point x="161" y="645"/>
      <point x="297" y="645" type="curve" smooth="yes"/>
      <point x="433" y="645"/>
      <point x="529" y="554.667"/>
      <point x="529" y="408" type="curve" smooth="yes"/>
      <point x="529" y="228" type="line" smooth="yes"/>
      <point x="529" y="163.333"/>
      <point x="512.667" y="111"/>
      <point x="480" y="71" type="curve"/>
      <point x="515" y="37" type="line"/>
      <point x="542.044" y="5.03924"/>
      <point x="508.065" y="-31.0654"/>
      <point x="478" y="-1" type="curve" smooth="yes"/>
    </contour>
  </outline>
</glyph>
<glyph name="R" format="1">
  <advance width="569"/>
  <unicode hex="0052"/>
  <outline>
    <contour>
      <point x="288" y="374" type="line" smooth="yes"/>
      <point x="412" y="374"/>
      <point x="454" y="393"/>
      <point x="454" y="477" type="curve" smooth="yes"/>
      <point x="454" y="561"/>
      <point x="410.667" y="579"/>
      <point x="288" y="579" type="curve" smooth="yes"/>
      <point x="136" y="579" type="line"/>
      <point x="136" y="374" type="line"/>
    </contour>
    <contour>
      <point x="514" y="25" type="curve" smooth="yes"/>
      <point x="514" y="-17.6667"/>
      <point x="462" y="-17.6667"/>
      <point x="462" y="25" type="curve" smooth="yes"/>
      <point x="462" y="33.6667"/>
      <point x="457.333" y="55.6667"/>
      <point x="448" y="91" type="curve" smooth="yes"/>
      <point x="438.667" y="126.333"/>
      <point x="422.667" y="168.333"/>
      <point x="400" y="217" type="curve" smooth="yes"/>
      <point x="377.333" y="265.667"/>
      <point x="352" y="300.667"/>
      <point x="324" y="322" type="curve"/>
      <point x="136" y="322" type="line"/>
      <point x="136" y="25" type="line" smooth="yes"/>
      <point x="136" y="-17.6667"/>
      <point x="84" y="-17.6667"/>
      <point x="84" y="25" type="curve" smooth="yes"/>
      <point x="84" y="600" type="line" smooth="yes"/>
      <point x="84" y="624"/>
      <point x="92" y="636"/>
      <point x="108" y="636" type="curve" smooth="yes"/>
      <point x="288" y="636" type="line" smooth="yes"/>
      <point x="433.333" y="636"/>
      <point x="506" y="599.667"/>
      <point x="506" y="481" type="curve" smooth="yes"/>
      <point x="506" y="397.667"/>
      <point x="467" y="348"/>
      <point x="389" y="332" type="curve"/>
      <point x="411" y="310.667"/>
      <point x="432.333" y="275"/>
      <point x="453" y="225" type="curve" smooth="yes"/>
      <point x="494.333" y="125"/>
      <point x="514" y="39.6667"/>
    </contour>
  </outline>
</glyph>
<glyph name="S" format="1">
  <advance width="599"/>
  <unicode hex="0053"/>
  <outline>
    <contour>
      <point x="173" y="379" type="curve"/>
      <point x="410" y="328" type="line" smooth="yes"/>
      <point x="494.667" y="309.333"/>
      <point x="537" y="252"/>
      <point x="537" y="156" type="curve" smooth="yes"/>
      <point x="537" y="66.6667"/>
      <point x="488.333" y="-8"/>
      <point x="367" y="-8" type="curve" smooth="yes"/>
      <point x="284" y="-8" type="line"/>
      <point x="67.9167" y="-2.75"/>
      <point x="71.5833" y="64"/>
      <point x="61" y="172" type="curve"/>
      <point x="61" y="216"/>
      <point x="114" y="216"/>
      <point x="114" y="172" type="curve" smooth="yes"/>
      <point x="114" y="61.3333"/>
      <point x="152" y="44"/>
      <point x="284" y="44" type="curve" smooth="yes"/>
      <point x="386" y="44" type="line"/>
      <point x="532.15" y="46.5621"/>
      <point x="488.261" y="273.673"/>
      <point x="425" y="272" type="curve"/>
      <point x="190" y="324" type="line" smooth="yes"/>
      <point x="96.6667" y="344"/>
      <point x="61" y="391.5"/>
      <point x="61" y="481.5" type="curve" smooth="yes"/>
      <point x="61" y="571.5"/>
      <point x="111.333" y="644"/>
      <point x="238" y="644" type="curve" smooth="yes"/>
      <point x="314" y="644" type="line"/>
      <point x="527.083" y="638.667"/>
      <point x="527.917" y="574.083"/>
      <point x="537" y="466" type="curve"/>
      <point x="537" y="422"/>
      <point x="484" y="422"/>
      <point x="484" y="466" type="curve" smooth="yes"/>
      <point x="484" y="576.667"/>
      <point x="447.333" y="592"/>
      <point x="314" y="592" type="curve" smooth="yes"/>
      <point x="216" y="592" type="line"/>
      <point x="67.8105" y="585.34"/>
      <point x="105.033" y="379.229"/>
    </contour>
  </outline>
</glyph>
<glyph name="T" format="1">
  <advance width="481"/>
  <unicode hex="0054"/>
  <outline>
    <contour>
      <point x="421" y="636" type="line" smooth="yes"/>
      <point x="465" y="636"/>
      <point x="465" y="584"/>
      <point x="421" y="584" type="curve" smooth="yes"/>
      <point x="269" y="584" type="line"/>
      <point x="269" y="25" type="line"/>
      <point x="269" y="24.3333"/>
      <point x="269" y="23.6667"/>
      <point x="269" y="23" type="curve"/>
      <point x="269" y="3"/>
      <point x="260" y="-7"/>
      <point x="242" y="-7" type="curve" smooth="yes"/>
      <point x="223.333" y="-7"/>
      <point x="214" y="3.66667"/>
      <point x="214" y="25" type="curve" smooth="yes"/>
      <point x="214" y="584" type="line"/>
      <point x="60" y="584" type="line" smooth="yes"/>
      <point x="16" y="584"/>
      <point x="16" y="636"/>
      <point x="60" y="636" type="curve" smooth="yes"/>
    </contour>
  </outline>
</glyph>
<glyph name="U" format="1">
  <advance width="620"/>
  <unicode hex="0055"/>
  <outline>
    <contour>
      <point x="490" y="611" type="line" smooth="yes"/>
      <point x="490" y="653.667"/>
      <point x="542" y="654"/>
      <point x="542" y="610" type="curve" smooth="yes"/>
      <point x="542" y="228" type="line" smooth="yes"/>
      <point x="542" y="81.3333"/>
      <point x="446" y="-9"/>
      <point x="310" y="-9" type="curve" smooth="yes"/>
      <point x="174" y="-9"/>
      <point x="78" y="80"/>
      <point x="78" y="228" type="curve" smooth="yes"/>
      <point x="78" y="610" type="line" smooth="yes"/>
      <point x="78" y="654"/>
      <point x="130" y="653.667"/>
      <point x="130" y="611" type="curve" smooth="yes"/>
      <point x="130" y="229" type="line" smooth="yes"/>
      <point x="130" y="111.667"/>
      <point x="195.333" y="43"/>
      <point x="310" y="43" type="curve" smooth="yes"/>
      <point x="424.667" y="43"/>
      <point x="490" y="111.667"/>
      <point x="490" y="229" type="curve" smooth="yes"/>
    </contour>
  </outline>
</glyph>
<glyph name="V" format="1">
  <advance width="570"/>
  <unicode hex="0056"/>
  <outline>
    <contour>
      <point x="24" y="627" type="curve" smooth="yes"/>
      <point x="24" y="643.667"/>
      <point x="32.6667" y="652"/>
      <point x="50" y="652" type="curve" smooth="yes"/>
      <point x="61.3333" y="652"/>
      <point x="70.3333" y="644.333"/>
      <point x="77" y="629" type="curve"/>
      <point x="286" y="76" type="line"/>
      <point x="493" y="629" type="line"/>
      <point x="499.667" y="644.333"/>
      <point x="508.667" y="652"/>
      <point x="520" y="652" type="curve" smooth="yes"/>
      <point x="537.333" y="652"/>
      <point x="546" y="643.667"/>
      <point x="546" y="627" type="curve" smooth="yes"/>
      <point x="546" y="622.333"/>
      <point x="545" y="617"/>
      <point x="543" y="611" type="curve" smooth="yes"/>
      <point x="316" y="0" type="line"/>
      <point x="254" y="0" type="line"/>
      <point x="27" y="611" type="line" smooth="yes"/>
      <point x="25" y="617"/>
      <point x="24" y="622.333"/>
    </contour>
  </outline>
</glyph>
<glyph name="W" format="1">
  <advance width="915"/>
  <unicode hex="0057"/>
  <outline>
    <contour>
      <point x="664" y="72" type="line"/>
      <point x="836" y="627" type="line"/>
      <point x="846.667" y="656.333"/>
      <point x="888" y="655.333"/>
      <point x="888" y="630" type="curve" smooth="yes"/>
      <point x="888" y="626"/>
      <point x="886.667" y="620"/>
      <point x="884" y="612" type="curve" smooth="yes"/>
      <point x="692" y="0" type="line"/>
      <point x="634" y="0" type="line"/>
      <point x="457" y="553" type="line"/>
      <point x="281" y="0" type="line"/>
      <point x="224" y="0" type="line"/>
      <point x="31" y="616" type="line" smooth="yes"/>
      <point x="28.3333" y="624"/>
      <point x="27" y="630"/>
      <point x="27" y="634" type="curve" smooth="yes"/>
      <point x="27" y="659.333"/>
      <point x="68.3333" y="660.333"/>
      <point x="79" y="631" type="curve"/>
      <point x="253" y="72" type="line"/>
      <point x="428" y="626" type="line" smooth="yes"/>
      <point x="438.667" y="660.667"/>
      <point x="477.333" y="660.667"/>
      <point x="488" y="626" type="curve" smooth="yes"/>
    </contour>
  </outline>
</glyph>
<glyph name="X" format="1">
  <advance width="559"/>
  <unicode hex="0058"/>
  <outline>
    <contour>
      <point x="472" y="625" type="line" smooth="yes"/>
      <point x="481.333" y="637"/>
      <point x="489.333" y="643"/>
      <point x="496" y="643" type="curve" smooth="yes"/>
      <point x="514" y="643"/>
      <point x="523" y="635"/>
      <point x="523" y="619" type="curve"/>
      <point x="523" y="618.333"/>
      <point x="523" y="617.667"/>
      <point x="523" y="617" type="curve"/>
      <point x="523" y="609"/>
      <point x="520.333" y="602"/>
      <point x="515" y="596" type="curve"/>
      <point x="312" y="317" type="line"/>
      <point x="515" y="39" type="line" smooth="yes"/>
      <point x="536.543" y="9.37819"/>
      <point x="501.917" y="-30.8894"/>
      <point x="472" y="9" type="curve"/>
      <point x="279" y="277" type="line"/>
      <point x="87" y="9" type="line"/>
      <point x="56.3809" y="-31.8254"/>
      <point x="23.2806" y="10.5109"/>
      <point x="44" y="39" type="curve" smooth="yes"/>
      <point x="247" y="317" type="line"/>
      <point x="44" y="596" type="line"/>
      <point x="20.0808" y="622.909"/>
      <point x="55.5077" y="668.605"/>
      <point x="87" y="625" type="curve" smooth="yes"/>
      <point x="279" y="358" type="line"/>
    </contour>
  </outline>
</glyph>
<glyph name="Y" format="1">
  <advance width="521"/>
  <unicode hex="0059"/>
  <outline>
    <contour>
      <point x="234" y="308" type="line"/>
      <point x="25" y="597" type="line"/>
      <point x="6.12349" y="625.315"/>
      <point x="33.2232" y="668.427"/>
      <point x="67" y="625" type="curve"/>
      <point x="260" y="358" type="line"/>
      <point x="452" y="625" type="line"/>
      <point x="485.822" y="668.485"/>
      <point x="514.267" y="623.492"/>
      <point x="495" y="597" type="curve" smooth="yes"/>
      <point x="287" y="308" type="line"/>
      <point x="287" y="24" type="line"/>
      <point x="285.667" y="-17.3333"/>
      <point x="234" y="-17.3333"/>
      <point x="234" y="24" type="curve" smooth="yes"/>
    </contour>
  </outline>
</glyph>
<glyph name="Z" format="1">
  <advance width="555"/>
  <unicode hex="005A"/>
  <outline>
    <contour>
      <point x="46" y="0" type="line"/>
      <point x="46" y="51" type="line"/>
      <point x="447" y="594" type="line"/>
      <point x="81" y="594" type="line" smooth="yes"/>
      <point x="33" y="594"/>
      <point x="33" y="646"/>
      <point x="81" y="646" type="curve" smooth="yes"/>
      <point x="509" y="646" type="line"/>
      <point x="509" y="593" type="line"/>
      <point x="110" y="52" type="line"/>
      <point x="474" y="52" type="line" smooth="yes"/>
      <point x="520.667" y="52"/>
      <point x="520.667" y="0"/>
      <point x="474" y="0" type="curve" smooth="yes"/>
    </contour>
  </outline>
</glyph>
<glyph name="bracketleft" format="1">
  <advance width="255"/>
  <unicode hex="005B"/>
  <outline>
    <contour>
      <point x="132" y="631" type="line"/>
      <point x="132" y="5" type="line"/>
      <point x="210" y="5" type="line"/>
      <point x="210" y="-47" type="line"/>
      <point x="80" y="-47" type="line"/>
      <point x="80" y="683" type="line"/>
      <point x="210" y="683" type="line"/>
      <point x="210" y="631" type="line"/>
    </contour>
  </outline>
</glyph>
<glyph name="backslash" format="1">
  <advance width="359"/>
  <unicode hex="005C"/>
  <outline>
    <contour>
      <point x="43" y="626" type="curve" smooth="yes"/>
      <point x="43" y="642"/>
      <point x="51.6667" y="650"/>
      <point x="69" y="650" type="curve" smooth="yes"/>
      <point x="81" y="650"/>
      <point x="89.6667" y="642.333"/>
      <point x="95" y="627" type="curve" smooth="yes"/>
      <point x="313" y="29" type="line"/>
      <point x="315" y="21"/>
      <point x="316" y="15"/>
      <point x="316" y="11" type="curve" smooth="yes"/>
      <point x="316" y="-5"/>
      <point x="307" y="-13"/>
      <point x="289" y="-13" type="curve" smooth="yes"/>
      <point x="277.667" y="-13"/>
      <point x="269.333" y="-5.33333"/>
      <point x="264" y="10" type="curve" smooth="yes"/>
      <point x="46" y="608" type="line" smooth="yes"/>
      <point x="44" y="614.667"/>
      <point x="43" y="620.667"/>
    </contour>
  </outline>
</glyph>
<glyph name="bracketright" format="1">
  <advance width="255"/>
  <unicode hex="005D"/>
  <outline>
    <contour>
      <point x="123" y="5" type="line"/>
      <point x="123" y="631" type="line"/>
      <point x="45" y="631" type="line"/>
      <point x="45" y="683" type="line"/>
      <point x="175" y="683" type="line"/>
      <point x="175" y="-47" type="line"/>
      <point x="45" y="-47" type="line"/>
      <point x="45" y="5" type="line"/>
    </contour>
  </outline>
</glyph>
<glyph name="asciicircum" format="1">
  <advance width="443"/>
  <unicode hex="005E"/>
  <outline>
    <contour>
      <point x="132" y="381" type="line"/>
      <point x="117.333" y="353"/>
      <point x="80" y="352.333"/>
      <point x="80" y="383" type="curve" smooth="yes"/>
      <point x="80" y="385.667"/>
      <point x="80.6667" y="389.667"/>
      <point x="82" y="395" type="curve"/>
      <point x="192" y="641" type="line"/>
      <point x="252" y="641" type="line"/>
      <point x="361" y="395" type="line" smooth="yes"/>
      <point x="362.333" y="392.333"/>
      <point x="363" y="388.333"/>
      <point x="363" y="383" type="curve" smooth="yes"/>
      <point x="363" y="352.333"/>
      <point x="325.667" y="353"/>
      <point x="311" y="381" type="curve"/>
      <point x="222" y="581" type="line"/>
    </contour>
  </outline>
</glyph>
<glyph name="underscore" format="1">
  <advance width="475"/>
  <unicode hex="005F"/>
  <outline>
    <contour>
      <point x="28" y="-47" type="line" smooth="yes"/>
      <point x="-16" y="-47"/>
      <point x="-16" y="5"/>
      <point x="28" y="5" type="curve" smooth="yes"/>
      <point x="447" y="5" type="line" smooth="yes"/>
      <point x="491" y="5"/>
      <point x="491" y="-47"/>
      <point x="447" y="-47" type="curve" smooth="yes"/>
    </contour>
  </outline>
</glyph>
<glyph name="grave" format="1">
  <advance width="212"/>
  <unicode hex="0060"/>
  <outline>
    <contour>
      <point x="79" y="668" type="curve" smooth="yes"/>
      <point x="175" y="553" type="line" smooth="yes"/>
      <point x="198.854" y="523.846"/>
      <point x="168.307" y="483.242"/>
      <point x="134" y="520" type="curve"/>
      <point x="38" y="635" type="line" smooth="yes"/>
      <point x="14.676" y="663.507"/>
      <point x="46.3032" y="705.727"/>
    </contour>
  </outline>
</glyph>
<glyph name="a" format="1">
  <advance width="554"/>
  <unicode hex="0061"/>
  <outline>
    <contour>
      <point x="260" y="52" type="line" smooth="yes"/>
      <point x="373.333" y="52"/>
      <point x="430" y="110.667"/>
      <point x="430" y="228" type="curve" smooth="yes"/>
      <point x="430" y="243" type="line"/>
      <point x="283" y="243" type="line" smooth="yes"/>
      <point x="159" y="243"/>
      <point x="131.833" y="219.333"/>
      <point x="120.5" y="186" type="curve"/>
      <point x="97.75" y="133.833"/>
      <point x="120" y="44.9167"/>
      <point x="167" y="52" type="curve"/>
    </contour>
    <contour>
      <point x="60" y="349" type="curve" smooth="yes"/>
      <point x="60" y="423.667"/>
      <point x="115.667" y="461"/>
      <point x="227" y="461" type="curve" smooth="yes"/>
      <point x="382" y="461" type="line" smooth="yes"/>
      <point x="459.333" y="461"/>
      <point x="482" y="428.333"/>
      <point x="482" y="335" type="curve" smooth="yes"/>
      <point x="482" y="27" type="line" smooth="yes"/>
      <point x="482" y="-18.3333"/>
      <point x="430" y="-18.6667"/>
      <point x="430" y="28" type="curve" smooth="yes"/>
      <point x="430" y="63" type="line"/>
      <point x="392" y="21"/>
      <point x="335.333" y="0"/>
      <point x="260" y="0" type="curve" smooth="yes"/>
      <point x="167" y="0" type="line" smooth="yes"/>
      <point x="104.333" y="0"/>
      <point x="60" y="48.3333"/>
      <point x="60" y="123" type="curve" smooth="yes"/>
      <point x="60" y="257.667"/>
      <point x="131" y="295"/>
      <point x="283" y="295" type="curve" smooth="yes"/>
      <point x="430" y="295" type="line"/>
      <point x="430" y="352" type="line" smooth="yes"/>
      <point x="430" y="393.333"/>
      <point x="417.667" y="409"/>
      <point x="375" y="409" type="curve" smooth="yes"/>
      <point x="234" y="409" type="line" smooth="yes"/>
      <point x="152.667" y="409"/>
      <point x="112" y="389"/>
      <point x="112" y="349" type="curve" smooth="yes"/>
      <point x="112" y="302.333"/>
      <point x="60" y="302.333"/>
    </contour>
  </outline>
</glyph>
<glyph name="b" format="1">
  <advance width="611"/>
  <unicode hex="0062"/>
  <outline>
    <contour>
      <point x="127" y="398" type="line"/>
      <point x="166.333" y="440"/>
      <point x="223.333" y="461"/>
      <point x="298" y="461" type="curve" smooth="yes"/>
      <point x="327" y="461" type="line" smooth="yes"/>
      <point x="480.333" y="461"/>
      <point x="549" y="425"/>
      <point x="549" y="285" type="curve" smooth="yes"/>
      <point x="549" y="176" type="line" smooth="yes"/>
      <point x="549" y="36"/>
      <point x="480.333" y="0"/>
      <point x="327" y="0" type="curve" smooth="yes"/>
      <point x="298" y="0" type="line" smooth="yes"/>
      <point x="223.333" y="0"/>
      <point x="166.333" y="21"/>
      <point x="127" y="63" type="curve"/>
      <point x="127" y="28" type="line" smooth="yes"/>
      <point x="127" y="-18.6667"/>
      <point x="75" y="-18.3333"/>
      <point x="75" y="27" type="curve" smooth="yes"/>
      <point x="75" y="607" type="line" smooth="yes"/>
      <point x="75" y="655"/>
      <point x="127" y="655"/>
      <point x="127" y="607" type="curve" smooth="yes"/>
    </contour>
    <contour>
      <point x="298" y="409" type="line" smooth="yes"/>
      <point x="184" y="409"/>
      <point x="127" y="350"/>
      <point x="127" y="232" type="curve" smooth="yes"/>
      <point x="127" y="228" type="line" smooth="yes"/>
      <point x="127" y="110.667"/>
      <point x="184" y="52"/>
      <point x="298" y="52" type="curve" smooth="yes"/>
      <point x="327" y="52" type="line"/>
      <point x="510.417" y="56.1667"/>
      <point x="485.333" y="94.8333"/>
      <point x="497" y="177" type="curve"/>
      <point x="497" y="284" type="line"/>
      <point x="496.333" y="340"/>
      <point x="482.667" y="375.333"/>
      <point x="456" y="390" type="curve" smooth="yes"/>
      <point x="432.667" y="402.667"/>
      <point x="392.667" y="409"/>
      <point x="336" y="409" type="curve" smooth="yes"/>
      <point x="333.333" y="409"/>
      <point x="330.333" y="409"/>
      <point x="327" y="409" type="curve" smooth="yes"/>
    </contour>
  </outline>
</glyph>
<glyph name="c" format="1">
  <advance width="584"/>
  <unicode hex="0063"/>
  <outline>
    <contour>
      <point x="426" y="0" type="curve" smooth="yes"/>
      <point x="285" y="0" type="line" smooth="yes"/>
      <point x="131.667" y="0"/>
      <point x="62" y="36"/>
      <point x="62" y="176" type="curve" smooth="yes"/>
      <point x="62" y="285" type="line" smooth="yes"/>
      <point x="62" y="425"/>
      <point x="131.667" y="461"/>
      <point x="285" y="461" type="curve" smooth="yes"/>
      <point x="426" y="461" type="line" smooth="yes"/>
      <point x="482" y="461"/>
      <point x="514.333" y="437"/>
      <point x="523" y="389" type="curve" smooth="yes"/>
      <point x="527" y="366.333"/>
      <point x="534.667" y="314"/>
      <point x="500" y="314" type="curve" smooth="yes"/>
      <point x="482.667" y="314"/>
      <point x="474" y="325.333"/>
      <point x="474" y="348" type="curve" smooth="yes"/>
      <point x="474" y="393.333"/>
      <point x="460.333" y="409"/>
      <point x="419" y="409" type="curve" smooth="yes"/>
      <point x="285" y="409" type="line"/>
      <point x="101.25" y="404.833"/>
      <point x="125.25" y="366.167"/>
      <point x="114" y="284" type="curve"/>
      <point x="114" y="177" type="line" smooth="yes"/>
      <point x="114" y="121.667"/>
      <point x="127.667" y="86.6667"/>
      <point x="155" y="72" type="curve" smooth="yes"/>
      <point x="179.667" y="58.6667"/>
      <point x="223" y="52"/>
      <point x="285" y="52" type="curve" smooth="yes"/>
      <point x="419" y="52" type="line" smooth="yes"/>
      <point x="440.333" y="52"/>
      <point x="454.833" y="56.6667"/>
      <point x="462.5" y="66" type="curve" smooth="yes"/>
      <point x="470.167" y="75.3333"/>
      <point x="474" y="91.1667"/>
      <point x="474" y="113.5" type="curve" smooth="yes"/>
      <point x="474" y="135.833"/>
      <point x="482.667" y="147"/>
      <point x="500" y="147" type="curve" smooth="yes"/>
      <point x="517.333" y="147"/>
      <point x="526" y="137.167"/>
      <point x="526" y="117.5" type="curve" smooth="yes"/>
      <point x="526" y="78.1667"/>
      <point x="523.333" y="60"/>
      <point x="510" y="36" type="curve" smooth="yes"/>
      <point x="496.667" y="12"/>
      <point x="468.667" y="0"/>
    </contour>
  </outline>
</glyph>
<glyph name="e" format="1">
  <advance width="592"/>
  <unicode hex="0065"/>
  <outline>
    <contour>
      <point x="536" y="285" type="curve" smooth="yes"/>
      <point x="536" y="245" type="line"/>
      <point x="114" y="245" type="line"/>
      <point x="114" y="177" type="line" smooth="yes"/>
      <point x="114" y="121.667"/>
      <point x="127.667" y="86.6667"/>
      <point x="155" y="72" type="curve" smooth="yes"/>
      <point x="179.667" y="58.6667"/>
      <point x="223" y="52"/>
      <point x="285" y="52" type="curve" smooth="yes"/>
      <point x="419" y="52" type="line" smooth="yes"/>
      <point x="440.333" y="52"/>
      <point x="454.833" y="56.6667"/>
      <point x="462.5" y="66" type="curve" smooth="yes"/>
      <point x="470.167" y="75.3333"/>
      <point x="474" y="91.1667"/>
      <point x="474" y="113.5" type="curve" smooth="yes"/>
      <point x="474" y="135.833"/>
      <point x="482.667" y="147"/>
      <point x="500" y="147" type="curve" smooth="yes"/>
      <point x="517.333" y="147"/>
      <point x="526" y="137.167"/>
      <point x="526" y="117.5" type="curve" smooth="yes"/>
      <point x="526" y="78.1667"/>
      <point x="523.333" y="60"/>
      <point x="510" y="36" type="curve" smooth="yes"/>
      <point x="497.333" y="12"/>
      <point x="470.333" y="0"/>
      <point x="429" y="-0" type="curve"/>
      <point x="427.667" y="0"/>
      <point x="426.667" y="0"/>
      <point x="426" y="0" type="curve"/>
      <point x="285" y="0" type="line" smooth="yes"/>
      <point x="131.667" y="0"/>
      <point x="62" y="36"/>
      <point x="62" y="176" type="curve" smooth="yes"/>
      <point x="62" y="285" type="line" smooth="yes"/>
      <point x="62" y="425"/>
      <point x="131.667" y="461"/>
      <point x="285" y="461" type="curve" smooth="yes"/>
      <point x="314" y="461" type="line" smooth="yes"/>
      <point x="467.333" y="461"/>
      <point x="536" y="425"/>
    </contour>
    <contour>
      <point x="314" y="409" type="curve" smooth="yes"/>
      <point x="285" y="409" type="line" smooth="yes"/>
      <point x="155.667" y="409"/>
      <point x="115.333" y="391.667"/>
      <point x="114" y="297" type="curve"/>
      <point x="484" y="297" type="line"/>
      <point x="482.667" y="391.667"/>
      <point x="442" y="409"/>
    </contour>
  </outline>
</glyph>
<glyph name="f" format="1">
  <advance width="323"/>
  <unicode hex="0066"/>
  <outline>
    <contour>
      <point x="284" y="636" type="curve" smooth="yes"/>
      <point x="313.333" y="636"/>
      <point x="328" y="627.333"/>
      <point x="328" y="610" type="curve"/>
      <point x="329" y="609" type="line"/>
      <point x="329" y="608" type="line"/>
      <point x="329" y="592"/>
      <point x="315.333" y="584"/>
      <point x="288" y="584" type="curve" smooth="yes"/>
      <point x="260" y="584"/>
      <point x="237.333" y="582.667"/>
      <point x="220" y="580" type="curve" smooth="yes"/>
      <point x="202.667" y="578"/>
      <point x="186.667" y="573"/>
      <point x="172" y="565" type="curve" smooth="yes"/>
      <point x="145.333" y="550.333"/>
      <point x="132" y="515.667"/>
      <point x="132" y="461" type="curve"/>
      <point x="270" y="461" type="line" smooth="yes"/>
      <point x="318" y="461"/>
      <point x="318" y="409"/>
      <point x="270" y="409" type="curve" smooth="yes"/>
      <point x="132" y="409" type="line"/>
      <point x="132" y="28" type="line" smooth="yes"/>
      <point x="132" y="-18.6667"/>
      <point x="80" y="-18.6667"/>
      <point x="80" y="28" type="curve" smooth="yes"/>
      <point x="80" y="410" type="line"/>
      <point x="38.6667" y="412.667"/>
      <point x="38.6667" y="458.333"/>
      <point x="80" y="461" type="curve"/>
      <point x="81.3333" y="534.333"/>
      <point x="101.333" y="582.667"/>
      <point x="140" y="606" type="curve" smooth="yes"/>
      <point x="173.333" y="626"/>
      <point x="221.333" y="636"/>
    </contour>
  </outline>
</glyph>
<glyph name="g" format="1">
  <advance width="611"/>
  <unicode hex="0067"/>
  <outline>
    <contour>
      <point x="536" y="-87" type="line" smooth="yes"/>
      <point x="536" y="-173.667"/>
      <point x="515.667" y="-205"/>
      <point x="445" y="-205" type="curve" smooth="yes"/>
      <point x="162" y="-205" type="line" smooth="yes"/>
      <point x="106" y="-205"/>
      <point x="73.6667" y="-181"/>
      <point x="65" y="-133" type="curve" smooth="yes"/>
      <point x="61" y="-110.333"/>
      <point x="53.3333" y="-58"/>
      <point x="88" y="-58" type="curve" smooth="yes"/>
      <point x="105.333" y="-58"/>
      <point x="114" y="-69.3333"/>
      <point x="114" y="-92" type="curve" smooth="yes"/>
      <point x="114" y="-137.333"/>
      <point x="127.667" y="-153"/>
      <point x="169" y="-153" type="curve" smooth="yes"/>
      <point x="438" y="-153" type="line" smooth="yes"/>
      <point x="476.667" y="-153"/>
      <point x="484" y="-143"/>
      <point x="484" y="-103" type="curve" smooth="yes"/>
      <point x="484" y="0" type="line"/>
      <point x="284" y="0" type="line" smooth="yes"/>
      <point x="130.667" y="0"/>
      <point x="62" y="36"/>
      <point x="62" y="176" type="curve" smooth="yes"/>
      <point x="62" y="285" type="line" smooth="yes"/>
      <point x="62" y="425"/>
      <point x="130.667" y="461"/>
      <point x="284" y="461" type="curve" smooth="yes"/>
      <point x="313" y="461" type="line" smooth="yes"/>
      <point x="387.667" y="461"/>
      <point x="444.667" y="440"/>
      <point x="484" y="398" type="curve"/>
      <point x="484" y="433" type="line" smooth="yes"/>
      <point x="484" y="479.667"/>
      <point x="536" y="479.333"/>
      <point x="536" y="434" type="curve" smooth="yes"/>
    </contour>
    <contour>
      <point x="484" y="52" type="line"/>
      <point x="484" y="233" type="line" smooth="yes"/>
      <point x="484" y="350.333"/>
      <point x="427" y="409"/>
      <point x="313" y="409" type="curve" smooth="yes"/>
      <point x="284" y="409" type="line"/>
      <point x="100.583" y="404.833"/>
      <point x="125.667" y="366.167"/>
      <point x="114" y="284" type="curve"/>
      <point x="114" y="177" type="line" smooth="yes"/>
      <point x="114" y="121.667"/>
      <point x="127.333" y="86.6667"/>
      <point x="154" y="72" type="curve" smooth="yes"/>
      <point x="178.667" y="58.6667"/>
      <point x="222" y="52"/>
      <point x="284" y="52" type="curve" smooth="yes"/>
    </contour>
  </outline>
</glyph>
<glyph name="h" format="1">
  <advance width="619"/>
  <unicode hex="0068"/>
  <outline>
    <contour>
      <point x="298" y="409" type="line" smooth="yes"/>
      <point x="184" y="409"/>
      <point x="127" y="349.667"/>
      <point x="127" y="231" type="curve" smooth="yes"/>
      <point x="127" y="27" type="line" smooth="yes"/>
      <point x="127" y="-18.3333"/>
      <point x="75" y="-18.3333"/>
      <point x="75" y="27" type="curve" smooth="yes"/>
      <point x="75" y="607" type="line" smooth="yes"/>
      <point x="75" y="655"/>
      <point x="127" y="655"/>
      <point x="127" y="607" type="curve" smooth="yes"/>
      <point x="127" y="398" type="line"/>
      <point x="166.333" y="440"/>
      <point x="223.333" y="461"/>
      <point x="298" y="461" type="curve" smooth="yes"/>
      <point x="327" y="461" type="line" smooth="yes"/>
      <point x="480.333" y="461"/>
      <point x="549" y="425"/>
      <point x="549" y="285" type="curve" smooth="yes"/>
      <point x="549" y="27" type="line" smooth="yes"/>
      <point x="549" y="-18.3333"/>
      <point x="497" y="-18.3333"/>
      <point x="497" y="27" type="curve" smooth="yes"/>
      <point x="497" y="284" type="line"/>
      <point x="496.333" y="340"/>
      <point x="482.667" y="375.333"/>
      <point x="456" y="390" type="curve" smooth="yes"/>
      <point x="432.667" y="402.667"/>
      <point x="392.667" y="409"/>
      <point x="336" y="409" type="curve" smooth="yes"/>
      <point x="333.333" y="409"/>
      <point x="330.333" y="409"/>
      <point x="327" y="409" type="curve" smooth="yes"/>
    </contour>
  </outline>
</glyph>
<glyph name="i" format="1">
  <advance width="200"/>
  <unicode hex="0069"/>
  <outline>
    <contour>
      <point x="126" y="20" type="line" smooth="yes"/>
      <point x="126" y="-22.6667"/>
      <point x="74" y="-22.6667"/>
      <point x="74" y="20" type="curve" smooth="yes"/>
      <point x="74" y="440" type="line" smooth="yes"/>
      <point x="74" y="484"/>
      <point x="126" y="484"/>
      <point x="126" y="440" type="curve" smooth="yes"/>
    </contour>
    <contour>
      <point x="49" y="601" type="curve" smooth="yes"/>
      <point x="49" y="654.02"/>
      <point x="151" y="654.02"/>
      <point x="151" y="601" type="curve" smooth="yes"/>
      <point x="151" y="547.98"/>
      <point x="49" y="547.98"/>
    </contour>
  </outline>
</glyph>
<glyph name="k" format="1">
  <advance width="454"/>
  <unicode hex="006B"/>
  <outline>
    <contour>
      <point x="431" y="43" type="line"/>
      <point x="457.374" y="11.8312"/>
      <point x="428.453" y="-24.3883"/>
      <point x="393" y="6" type="curve"/>
      <point x="156" y="235" type="line"/>
      <point x="127" y="206" type="line"/>
      <point x="127" y="25" type="line" smooth="yes"/>
      <point x="127" y="-17.6667"/>
      <point x="75" y="-17.3333"/>
      <point x="75" y="24" type="curve" smooth="yes"/>
      <point x="75" y="610" type="line" smooth="yes"/>
      <point x="75" y="654"/>
      <point x="127" y="654"/>
      <point x="127" y="610" type="curve" smooth="yes"/>
      <point x="127" y="269" type="line"/>
      <point x="321" y="454" type="line" smooth="yes"/>
      <point x="352.8" y="483.354"/>
      <point x="388.874" y="447.874"/>
      <point x="358" y="417" type="curve"/>
      <point x="192" y="265" type="line"/>
    </contour>
  </outline>
</glyph>
<glyph name="l" format="1">
  <advance width="271"/>
  <unicode hex="006C"/>
  <outline>
    <contour>
      <point x="197" y="0" type="curve" smooth="yes"/>
      <point x="190" y="0" type="line" smooth="yes"/>
      <point x="112.667" y="0"/>
      <point x="90" y="33.6667"/>
      <point x="90" y="127" type="curve" smooth="yes"/>
      <point x="90" y="608" type="line" smooth="yes"/>
      <point x="90" y="654.667"/>
      <point x="142" y="654.667"/>
      <point x="142" y="608" type="curve" smooth="yes"/>
      <point x="142" y="110" type="line" smooth="yes"/>
      <point x="142" y="88.6667"/>
      <point x="146" y="73.6667"/>
      <point x="154" y="65" type="curve" smooth="yes"/>
      <point x="160.667" y="56.3333"/>
      <point x="175.333" y="52"/>
      <point x="198" y="52" type="curve" smooth="yes"/>
      <point x="243.333" y="52"/>
      <point x="243.667" y="0"/>
    </contour>
  </outline>
</glyph>
<glyph name="m" format="1">
  <advance width="830"/>
  <unicode hex="006D"/>
  <outline>
    <contour>
      <point x="265" y="409" type="curve" smooth="yes"/>
      <point x="172.333" y="409"/>
      <point x="126" y="349.667"/>
      <point x="126" y="231" type="curve" smooth="yes"/>
      <point x="126" y="27" type="line" smooth="yes"/>
      <point x="126" y="-18.3333"/>
      <point x="74" y="-18.3333"/>
      <point x="74" y="27" type="curve" smooth="yes"/>
      <point x="74" y="433" type="line" smooth="yes"/>
      <point x="74" y="479.667"/>
      <point x="126" y="480"/>
      <point x="126" y="432" type="curve" smooth="yes"/>
      <point x="126" y="398" type="line"/>
      <point x="163.333" y="443.333"/>
      <point x="193.333" y="461"/>
      <point x="268" y="461" type="curve" smooth="yes"/>
      <point x="352.667" y="461"/>
      <point x="406" y="434.333"/>
      <point x="428" y="381" type="curve"/>
      <point x="462" y="434.333"/>
      <point x="510.333" y="461"/>
      <point x="573" y="461" type="curve" smooth="yes"/>
      <point x="698.333" y="461"/>
      <point x="759" y="423.667"/>
      <point x="759" y="285" type="curve" smooth="yes"/>
      <point x="759" y="27" type="line" smooth="yes"/>
      <point x="759" y="-18.3333"/>
      <point x="707" y="-18.3333"/>
      <point x="707" y="27" type="curve" smooth="yes"/>
      <point x="707" y="284" type="line" smooth="yes"/>
      <point x="707" y="340"/>
      <point x="696.667" y="375.333"/>
      <point x="676" y="390" type="curve" smooth="yes"/>
      <point x="658" y="402.667"/>
      <point x="628" y="409"/>
      <point x="586" y="409" type="curve"/>
      <point x="584" y="409"/>
      <point x="582" y="409"/>
      <point x="580" y="409" type="curve"/>
      <point x="488" y="409"/>
      <point x="442" y="349.667"/>
      <point x="442" y="231" type="curve" smooth="yes"/>
      <point x="442" y="27" type="line" smooth="yes"/>
      <point x="442" y="-18.3333"/>
      <point x="390" y="-18.3333"/>
      <point x="390" y="27" type="curve" smooth="yes"/>
      <point x="390" y="284" type="line" smooth="yes"/>
      <point x="390" y="392"/>
      <point x="358.333" y="409"/>
    </contour>
  </outline>
</glyph>
<glyph name="o" format="1">
  <advance width="598"/>
  <unicode hex="006F"/>
  <outline>
    <contour>
      <point x="314" y="0" type="curve" smooth="yes"/>
      <point x="285" y="0" type="line" smooth="yes"/>
      <point x="131.667" y="0"/>
      <point x="62" y="36"/>
      <point x="62" y="176" type="curve" smooth="yes"/>
      <point x="62" y="285" type="line" smooth="yes"/>
      <point x="62" y="425"/>
      <point x="131.667" y="461"/>
      <point x="285" y="461" type="curve" smooth="yes"/>
      <point x="314" y="461" type="line" smooth="yes"/>
      <point x="467.333" y="461"/>
      <point x="536" y="425"/>
      <point x="536" y="285" type="curve" smooth="yes"/>
      <point x="536" y="176" type="line" smooth="yes"/>
      <point x="536" y="36"/>
      <point x="467.333" y="0"/>
    </contour>
    <contour>
      <point x="285" y="52" type="curve" smooth="yes"/>
      <point x="314" y="52" type="line"/>
      <point x="497.417" y="56.1667"/>
      <point x="472.333" y="94.8333"/>
      <point x="484" y="177" type="curve"/>
      <point x="484" y="284" type="line" smooth="yes"/>
      <point x="484" y="340"/>
      <point x="470.667" y="375.333"/>
      <point x="444" y="390" type="curve" smooth="yes"/>
      <point x="420.667" y="402.667"/>
      <point x="380.333" y="409"/>
      <point x="323" y="409" type="curve" smooth="yes"/>
      <point x="320.333" y="409"/>
      <point x="317.333" y="409"/>
      <point x="314" y="409" type="curve" smooth="yes"/>
      <point x="285" y="409" type="line"/>
      <point x="101.25" y="404.833"/>
      <point x="125.25" y="366.167"/>
      <point x="114" y="284" type="curve"/>
      <point x="114" y="177" type="line" smooth="yes"/>
      <point x="114" y="121.667"/>
      <point x="127.667" y="86.6667"/>
      <point x="155" y="72" type="curve" smooth="yes"/>
      <point x="179.667" y="58.6667"/>
      <point x="223" y="52"/>
    </contour>
  </outline>
</glyph>
<glyph name="q" format="1">
  <advance width="611"/>
  <unicode hex="0071"/>
  <outline>
    <contour>
      <point x="114" y="284" type="curve"/>
      <point x="114" y="177" type="line" smooth="yes"/>
      <point x="114" y="121.667"/>
      <point x="127.333" y="86.6667"/>
      <point x="154" y="72" type="curve" smooth="yes"/>
      <point x="178.667" y="58.6667"/>
      <point x="222" y="52"/>
      <point x="284" y="52" type="curve" smooth="yes"/>
      <point x="484" y="52" type="line"/>
      <point x="484" y="232" type="line" smooth="yes"/>
      <point x="484" y="350"/>
      <point x="427.333" y="409"/>
      <point x="314" y="409" type="curve" smooth="yes"/>
      <point x="285" y="409" type="line"/>
      <point x="101.25" y="404.833"/>
      <point x="125.25" y="366.167"/>
    </contour>
    <contour>
      <point x="62" y="176" type="curve" smooth="yes"/>
      <point x="62" y="285" type="line" smooth="yes"/>
      <point x="62" y="425"/>
      <point x="131.667" y="461"/>
      <point x="285" y="461" type="curve" smooth="yes"/>
      <point x="314" y="461" type="line" smooth="yes"/>
      <point x="389.333" y="461"/>
      <point x="446" y="440"/>
      <point x="484" y="398" type="curve"/>
      <point x="484" y="433" type="line" smooth="yes"/>
      <point x="484" y="479.667"/>
      <point x="536" y="479.333"/>
      <point x="536" y="434" type="curve" smooth="yes"/>
      <point x="536" y="-147" type="line" smooth="yes"/>
      <point x="536" y="-193.667"/>
      <point x="484" y="-193.667"/>
      <point x="484" y="-147" type="curve" smooth="yes"/>
      <point x="484" y="0" type="line"/>
      <point x="284" y="0" type="line" smooth="yes"/>
      <point x="130.667" y="0"/>
      <point x="62" y="36"/>
    </contour>
  </outline>
</glyph>
<glyph name="r" format="1">
  <advance width="383"/>
  <unicode hex="0072"/>
  <outline>
    <contour>
      <point x="287" y="409" type="line" smooth="yes"/>
      <point x="183" y="409"/>
      <point x="126" y="345.667"/>
      <point x="126" y="231" type="curve" smooth="yes"/>
      <point x="126" y="27" type="line" smooth="yes"/>
      <point x="126" y="-18.3333"/>
      <point x="74" y="-18.3333"/>
      <point x="74" y="27" type="curve" smooth="yes"/>
      <point x="74" y="433" type="line" smooth="yes"/>
      <point x="74" y="479.667"/>
      <point x="126" y="480"/>
      <point x="126" y="432" type="curve" smooth="yes"/>
      <point x="126" y="398" type="line"/>
      <point x="165.333" y="440"/>
      <point x="219" y="461"/>
      <point x="287" y="461" type="curve" smooth="yes"/>
      <point x="333" y="461" type="line" smooth="yes"/>
      <point x="379.667" y="461"/>
      <point x="379.667" y="409"/>
      <point x="333" y="409" type="curve" smooth="yes"/>
    </contour>
  </outline>
</glyph>
<glyph name="s" format="1">
  <advance width="586"/>
  <unicode hex="0073"/>
  <outline>
    <contour>
      <point x="398" y="262" type="line" smooth="yes"/>
      <point x="483.333" y="262"/>
      <point x="526" y="216.667"/>
      <point x="526" y="126" type="curve" smooth="yes"/>
      <point x="526" y="43.3333"/>
      <point x="488" y="0"/>
      <point x="388" y="0" type="curve" smooth="yes"/>
      <point x="160" y="0" type="line" smooth="yes"/>
      <point x="104" y="0"/>
      <point x="71.6667" y="23.6667"/>
      <point x="63" y="71" type="curve" smooth="yes"/>
      <point x="59" y="93.6667"/>
      <point x="51.3333" y="147"/>
      <point x="86" y="147" type="curve" smooth="yes"/>
      <point x="103.333" y="147"/>
      <point x="112" y="135.833"/>
      <point x="112" y="113.5" type="curve" smooth="yes"/>
      <point x="112" y="68.8333"/>
      <point x="124.333" y="52"/>
      <point x="167" y="52" type="curve" smooth="yes"/>
      <point x="415" y="52" type="line" smooth="yes"/>
      <point x="454.333" y="52"/>
      <point x="474" y="76.6667"/>
      <point x="474" y="126" type="curve" smooth="yes"/>
      <point x="474" y="175.333"/>
      <point x="449.667" y="210"/>
      <point x="415" y="210" type="curve" smooth="yes"/>
      <point x="189" y="210" type="line" smooth="yes"/>
      <point x="103" y="210"/>
      <point x="60" y="253.333"/>
      <point x="60" y="340" type="curve" smooth="yes"/>
      <point x="60" y="420"/>
      <point x="96.3333" y="461"/>
      <point x="199" y="461" type="curve" smooth="yes"/>
      <point x="424" y="461" type="line" smooth="yes"/>
      <point x="480" y="461"/>
      <point x="512.333" y="437"/>
      <point x="521" y="389" type="curve" smooth="yes"/>
      <point x="525" y="366.333"/>
      <point x="532.667" y="314"/>
      <point x="498" y="314" type="curve" smooth="yes"/>
      <point x="480.667" y="314"/>
      <point x="472" y="325.333"/>
      <point x="472" y="348" type="curve" smooth="yes"/>
      <point x="472" y="393.333"/>
      <point x="458.333" y="409"/>
      <point x="417" y="409" type="curve" smooth="yes"/>
      <point x="171" y="409" type="line" smooth="yes"/>
      <point x="131.667" y="409"/>
      <point x="112" y="386"/>
      <point x="112" y="340" type="curve" smooth="yes"/>
      <point x="112" y="289.333"/>
      <point x="136.333" y="262"/>
      <point x="171" y="262" type="curve" smooth="yes"/>
    </contour>
  </outline>
</glyph>
<glyph name="t" format="1">
  <advance width="344"/>
  <unicode hex="0074"/>
  <outline>
    <contour>
      <point x="130" y="177" type="line" smooth="yes"/>
      <point x="130" y="69"/>
      <point x="168.333" y="52"/>
      <point x="291" y="52" type="curve" smooth="yes"/>
      <point x="337.667" y="52"/>
      <point x="337.667" y="0"/>
      <point x="291" y="0" type="curve" smooth="yes"/>
      <point x="147" y="0"/>
      <point x="78" y="37.3333"/>
      <point x="78" y="176" type="curve" smooth="yes"/>
      <point x="78" y="410" type="line"/>
      <point x="36.6667" y="412.667"/>
      <point x="36.6667" y="459.667"/>
      <point x="78" y="461" type="curve"/>
      <point x="78" y="565" type="line" smooth="yes"/>
      <point x="78" y="613"/>
      <point x="130" y="613"/>
      <point x="130" y="565" type="curve" smooth="yes"/>
      <point x="130" y="461" type="line"/>
      <point x="268" y="461" type="line" smooth="yes"/>
      <point x="316" y="461"/>
      <point x="316" y="409"/>
      <point x="268" y="409" type="curve" smooth="yes"/>
      <point x="130" y="409" type="line"/>
    </contour>
  </outline>
</glyph>
<glyph name="u" format="1">
  <advance width="618"/>
  <unicode hex="0075"/>
  <outline>
    <contour>
      <point x="321" y="52" type="line" smooth="yes"/>
      <point x="435" y="52"/>
      <point x="492" y="111.333"/>
      <point x="492" y="230" type="curve" smooth="yes"/>
      <point x="492" y="434" type="line" smooth="yes"/>
      <point x="492" y="479.333"/>
      <point x="544" y="479.333"/>
      <point x="544" y="434" type="curve" smooth="yes"/>
      <point x="544" y="28" type="line" smooth="yes"/>
      <point x="544" y="-18.6667"/>
      <point x="492" y="-19"/>
      <point x="492" y="29" type="curve" smooth="yes"/>
      <point x="492" y="63" type="line"/>
      <point x="452.667" y="21"/>
      <point x="395.667" y="0"/>
      <point x="321" y="0" type="curve" smooth="yes"/>
      <point x="292" y="0" type="line" smooth="yes"/>
      <point x="138.667" y="0"/>
      <point x="70" y="36"/>
      <point x="70" y="176" type="curve" smooth="yes"/>
      <point x="70" y="434" type="line" smooth="yes"/>
      <point x="70" y="479.333"/>
      <point x="122" y="479.333"/>
      <point x="122" y="434" type="curve" smooth="yes"/>
      <point x="122" y="177" type="line" smooth="yes"/>
      <point x="122" y="121.667"/>
      <point x="135.333" y="86.6667"/>
      <point x="162" y="72" type="curve" smooth="yes"/>
      <point x="186.667" y="58.6667"/>
      <point x="230" y="52"/>
      <point x="292" y="52" type="curve" smooth="yes"/>
    </contour>
  </outline>
</glyph>
<glyph name="v" format="1">
  <advance width="509"/>
  <unicode hex="0076"/>
  <outline>
    <contour>
      <point x="212" y="0" type="line"/>
      <point x="32" y="436" type="line" smooth="yes"/>
      <point x="29.3333" y="442"/>
      <point x="28" y="447.333"/>
      <point x="28" y="452" type="curve" smooth="yes"/>
      <point x="28" y="466"/>
      <point x="36" y="473"/>
      <point x="52" y="473" type="curve" smooth="yes"/>
      <point x="64" y="473"/>
      <point x="73.3333" y="465.667"/>
      <point x="80" y="451" type="curve" smooth="yes"/>
      <point x="252" y="51" type="line"/>
      <point x="430" y="452" type="line"/>
      <point x="440.667" y="480"/>
      <point x="482" y="479.667"/>
      <point x="482" y="453" type="curve" smooth="yes"/>
      <point x="482" y="447.667"/>
      <point x="480.667" y="442"/>
      <point x="478" y="436" type="curve" smooth="yes"/>
      <point x="286" y="0" type="line"/>
    </contour>
  </outline>
</glyph>
<glyph name="w" format="1">
  <advance width="792"/>
  <unicode hex="0077"/>
  <outline>
    <contour>
      <point x="758" y="436" type="curve" smooth="yes"/>
      <point x="603" y="0" type="line"/>
      <point x="524" y="0" type="line"/>
      <point x="397" y="374" type="line"/>
      <point x="260" y="0" type="line"/>
      <point x="181" y="0" type="line"/>
      <point x="35" y="436" type="line" smooth="yes"/>
      <point x="32.3333" y="444"/>
      <point x="31" y="450"/>
      <point x="31" y="454" type="curve" smooth="yes"/>
      <point x="31" y="479.333"/>
      <point x="72.3333" y="480.333"/>
      <point x="83" y="451" type="curve" smooth="yes"/>
      <point x="223" y="48" type="line"/>
      <point x="369" y="446" type="line"/>
      <point x="381" y="474"/>
      <point x="415.667" y="474"/>
      <point x="425" y="446" type="curve" smooth="yes"/>
      <point x="565" y="48" type="line"/>
      <point x="710" y="451" type="line" smooth="yes"/>
      <point x="720.667" y="480.333"/>
      <point x="762" y="479.333"/>
      <point x="762" y="454" type="curve" smooth="yes"/>
      <point x="762" y="450"/>
      <point x="760.667" y="444"/>
    </contour>
  </outline>
</glyph>
<glyph name="x" format="1">
  <advance width="512"/>
  <unicode hex="0078"/>
  <outline>
    <contour>
      <point x="462" y="36" type="line"/>
      <point x="485.852" y="0.221663"/>
      <point x="453.228" y="-29.2281"/>
      <point x="423" y="1" type="curve"/>
      <point x="257" y="194" type="line"/>
      <point x="90" y="1" type="line"/>
      <point x="57.5294" y="-24.5621"/>
      <point x="22.8627" y="-4.00654"/>
      <point x="50" y="36" type="curve"/>
      <point x="221" y="230" type="line"/>
      <point x="50" y="425" type="line"/>
      <point x="24.1314" y="456.042"/>
      <point x="55.8946" y="489.233"/>
      <point x="90" y="460" type="curve"/>
      <point x="257" y="267" type="line"/>
      <point x="423" y="460" type="line"/>
      <point x="453.445" y="490.445"/>
      <point x="488.026" y="456.231"/>
      <point x="462" y="425" type="curve"/>
      <point x="291" y="230" type="line"/>
    </contour>
  </outline>
</glyph>
<glyph name="y" format="1">
  <advance width="619"/>
  <unicode hex="0079"/>
  <outline>
    <contour>
      <point x="321" y="52" type="line" smooth="yes"/>
      <point x="435" y="52"/>
      <point x="492" y="111.333"/>
      <point x="492" y="230" type="curve" smooth="yes"/>
      <point x="492" y="434" type="line" smooth="yes"/>
      <point x="492" y="479.333"/>
      <point x="544" y="479.333"/>
      <point x="544" y="434" type="curve" smooth="yes"/>
      <point x="544" y="-87" type="line" smooth="yes"/>
      <point x="544" y="-173.667"/>
      <point x="523.667" y="-205"/>
      <point x="453" y="-205" type="curve" smooth="yes"/>
      <point x="170" y="-205" type="line" smooth="yes"/>
      <point x="114" y="-205"/>
      <point x="81.6667" y="-181"/>
      <point x="73" y="-133" type="curve" smooth="yes"/>
      <point x="69" y="-110.333"/>
      <point x="61.3333" y="-58"/>
      <point x="96" y="-58" type="curve" smooth="yes"/>
      <point x="113.333" y="-58"/>
      <point x="122" y="-69.3333"/>
      <point x="122" y="-92" type="curve" smooth="yes"/>
      <point x="122" y="-137.333"/>
      <point x="135.667" y="-153"/>
      <point x="177" y="-153" type="curve" smooth="yes"/>
      <point x="446" y="-153" type="line" smooth="yes"/>
      <point x="484.667" y="-153"/>
      <point x="492" y="-143"/>
      <point x="492" y="-103" type="curve" smooth="yes"/>
      <point x="492" y="63" type="line"/>
      <point x="452.667" y="21"/>
      <point x="395.667" y="0"/>
      <point x="321" y="0" type="curve" smooth="yes"/>
      <point x="292" y="0" type="line" smooth="yes"/>
      <point x="138.667" y="0"/>
      <point x="70" y="36"/>
      <point x="70" y="176" type="curve" smooth="yes"/>
      <point x="70" y="434" type="line" smooth="yes"/>
      <point x="70" y="479.333"/>
      <point x="122" y="479.333"/>
      <point x="122" y="434" type="curve" smooth="yes"/>
      <point x="122" y="177" type="line" smooth="yes"/>
      <point x="122" y="121.667"/>
      <point x="135.333" y="86.6667"/>
      <point x="162" y="72" type="curve" smooth="yes"/>
      <point x="186.667" y="58.6667"/>
      <point x="230" y="52"/>
      <point x="292" y="52" type="curve" smooth="yes"/>
    </contour>
  </outline>
</glyph>
<glyph name="z" format="1">
  <advance width="552"/>
  <unicode hex="007A"/>
  <outline>
    <contour>
      <point x="126" y="52" type="line"/>
      <point x="393" y="52" type="line" smooth="yes"/>
      <point x="417" y="52"/>
      <point x="432.333" y="58"/>
      <point x="439" y="70" type="curve" smooth="yes"/>
      <point x="445.667" y="82"/>
      <point x="449" y="100.667"/>
      <point x="449" y="126" type="curve" smooth="yes"/>
      <point x="449" y="151.333"/>
      <point x="457.667" y="164"/>
      <point x="475" y="164" type="curve"/>
      <point x="476" y="165" type="line"/>
      <point x="492.667" y="165"/>
      <point x="501" y="153"/>
      <point x="501" y="129" type="curve" smooth="yes"/>
      <point x="501" y="35.6667"/>
      <point x="478.333" y="0"/>
      <point x="401" y="0" type="curve" smooth="yes"/>
      <point x="59" y="0" type="line"/>
      <point x="59" y="64" type="line"/>
      <point x="416" y="409" type="line"/>
      <point x="166" y="409" type="line" smooth="yes"/>
      <point x="142.667" y="409"/>
      <point x="127.667" y="403"/>
      <point x="121" y="391" type="curve" smooth="yes"/>
      <point x="114.333" y="378.333"/>
      <point x="111" y="359.333"/>
      <point x="111" y="334" type="curve" smooth="yes"/>
      <point x="111" y="283.333"/>
      <point x="59" y="284"/>
      <point x="59" y="332" type="curve" smooth="yes"/>
      <point x="59" y="426.667"/>
      <point x="81.6667" y="461"/>
      <point x="159" y="461" type="curve" smooth="yes"/>
      <point x="480" y="461" type="line"/>
      <point x="480" y="394" type="line"/>
    </contour>
  </outline>
</glyph>
<glyph name="braceleft" format="1">
  <advance width="262"/>
  <unicode hex="007B"/>
  <outline>
    <contour>
      <point x="163" y="236" type="curve" smooth="yes"/>
      <point x="163" y="201.333"/>
      <point x="135" y="131.333"/>
      <point x="135" y="78" type="curve" smooth="yes"/>
      <point x="135" y="24.6667"/>
      <point x="142.333" y="5"/>
      <point x="213" y="5" type="curve"/>
      <point x="213" y="-47" type="line"/>
      <point x="119.667" y="-47"/>
      <point x="83" y="-18.6667"/>
      <point x="83" y="108" type="curve" smooth="yes"/>
      <point x="83" y="120.667"/>
      <point x="87.6667" y="142.333"/>
      <point x="97" y="173" type="curve" smooth="yes"/>
      <point x="106.333" y="203"/>
      <point x="111" y="224.667"/>
      <point x="111" y="238" type="curve" smooth="yes"/>
      <point x="111" y="264.667"/>
      <point x="66" y="299.667"/>
      <point x="38" y="313" type="curve"/>
      <point x="38" y="321" type="line"/>
      <point x="66" y="335.667"/>
      <point x="111" y="371.333"/>
      <point x="111" y="398" type="curve" smooth="yes"/>
      <point x="111" y="418.379"/>
      <point x="83" y="508.839"/>
      <point x="83" y="528" type="curve" smooth="yes"/>
      <point x="83" y="654.667"/>
      <point x="119.667" y="683"/>
      <point x="213" y="683" type="curve"/>
      <point x="213" y="631" type="line"/>
      <point x="178.333" y="631"/>
      <point x="156.667" y="625.333"/>
      <point x="148" y="614" type="curve" smooth="yes"/>
      <point x="130.667" y="592.667"/>
      <point x="130.333" y="533.333"/>
      <point x="149" y="472" type="curve" smooth="yes"/>
      <point x="158.333" y="441.333"/>
      <point x="163" y="415"/>
      <point x="163" y="393" type="curve" smooth="yes"/>
      <point x="163" y="371"/>
      <point x="139.333" y="345.667"/>
      <point x="92" y="317" type="curve"/>
      <point x="139.333" y="291"/>
      <point x="163" y="264"/>
    </contour>
  </outline>
</glyph>
<glyph name="bar" format="1">
  <advance width="214"/>
  <unicode hex="007C"/>
  <outline>
    <contour>
      <point x="133" y="25" type="line" smooth="yes"/>
      <point x="133" y="-17.6667"/>
      <point x="81" y="-17.6667"/>
      <point x="81" y="25" type="curve" smooth="yes"/>
      <point x="81" y="610" type="line" smooth="yes"/>
      <point x="81" y="654"/>
      <point x="133" y="654"/>
      <point x="133" y="610" type="curve" smooth="yes"/>
    </contour>
  </outline>
</glyph>
<glyph name="braceright" format="1">
  <advance width="262"/>
  <unicode hex="007D"/>
  <outline>
    <contour>
      <point x="99" y="236" type="curve" smooth="yes"/>
      <point x="99" y="264"/>
      <point x="122.667" y="291"/>
      <point x="170" y="317" type="curve"/>
      <point x="122.667" y="345.667"/>
      <point x="99" y="371"/>
      <point x="99" y="393" type="curve" smooth="yes"/>
      <point x="99" y="415"/>
      <point x="103.667" y="441.333"/>
      <point x="113" y="472" type="curve"/>
      <point x="132.167" y="569.25"/>
      <point x="148.333" y="638"/>
      <point x="49" y="631" type="curve"/>
      <point x="49" y="683" type="line"/>
      <point x="142.333" y="683"/>
      <point x="179" y="654.667"/>
      <point x="179" y="528" type="curve" smooth="yes"/>
      <point x="179" y="515.333"/>
      <point x="174.333" y="493.667"/>
      <point x="165" y="463" type="curve" smooth="yes"/>
      <point x="155.667" y="433"/>
      <point x="151" y="411.333"/>
      <point x="151" y="398" type="curve" smooth="yes"/>
      <point x="151" y="371.333"/>
      <point x="196" y="335.667"/>
      <point x="224" y="321" type="curve"/>
      <point x="224" y="313" type="line"/>
      <point x="196" y="299.667"/>
      <point x="151" y="264.667"/>
      <point x="151" y="238" type="curve" smooth="yes"/>
      <point x="151" y="217.621"/>
      <point x="179" y="127.161"/>
      <point x="179" y="108" type="curve" smooth="yes"/>
      <point x="179" y="-18.6667"/>
      <point x="142.333" y="-47"/>
      <point x="49" y="-47" type="curve"/>
      <point x="49" y="5" type="line"/>
      <point x="119.667" y="5"/>
      <point x="127" y="24.6667"/>
      <point x="127" y="78" type="curve" smooth="yes"/>
      <point x="127" y="131.333"/>
      <point x="99" y="201.333"/>
    </contour>
  </outline>
</glyph>
<glyph name="asciitilde" format="1">
  <advance width="425"/>
  <unicode hex="007E"/>
  <outline>
    <contour>
      <point x="150" y="274" type="curve"/>
      <point x="163" y="272" type="line"/>
      <point x="261" y="236" type="line"/>
      <point x="266" y="234" type="line"/>
      <point x="268" y="234"/>
      <point x="270.667" y="235.333"/>
      <point x="274" y="238" type="curve" smooth="yes"/>
      <point x="305" y="266" type="line"/>
      <point x="313.667" y="272"/>
      <point x="321" y="275"/>
      <point x="327" y="275" type="curve" smooth="yes"/>
      <point x="344.333" y="275"/>
      <point x="353" y="267.333"/>
      <point x="353" y="252" type="curve" smooth="yes"/>
      <point x="353" y="242.667"/>
      <point x="348.333" y="233.667"/>
      <point x="339" y="225" type="curve" smooth="yes"/>
      <point x="292" y="186" type="line" smooth="yes"/>
      <point x="286.667" y="180.667"/>
      <point x="282" y="178"/>
      <point x="278" y="178" type="curve" smooth="yes"/>
      <point x="269" y="178" type="line"/>
      <point x="267.667" y="179.333"/>
      <point x="265.333" y="180"/>
      <point x="262" y="180" type="curve"/>
      <point x="261" y="180" type="line"/>
      <point x="163" y="216" type="line"/>
      <point x="160.333" y="218.667"/>
      <point x="155.667" y="219.333"/>
      <point x="149" y="214" type="curve" smooth="yes"/>
      <point x="118" y="186" type="line" smooth="yes"/>
      <point x="91.0523" y="159.928"/>
      <point x="49.8301" y="193.15"/>
      <point x="85" y="227" type="curve"/>
      <point x="131" y="265" type="line"/>
      <point x="135.667" y="271"/>
      <point x="142" y="274"/>
    </contour>
  </outline>
</glyph>
<glyph name="exclamdown" format="1">
  <advance width="230"/>
  <unicode hex="00A1"/>
  <outline>
    <contour>
      <point x="141" y="-138" type="line" smooth="yes"/>
      <point x="141" y="-180.667"/>
      <point x="89" y="-180.667"/>
      <point x="89" y="-138" type="curve" smooth="yes"/>
      <point x="89" y="282" type="line" smooth="yes"/>
      <point x="89" y="326"/>
      <point x="141" y="326"/>
      <point x="141" y="282" type="curve" smooth="yes"/>
    </contour>
    <contour>
      <point x="63" y="450" type="curve" smooth="yes"/>
      <point x="63" y="503.02"/>
      <point x="166" y="503.02"/>
      <point x="166" y="450" type="curve" smooth="yes"/>
      <point x="166" y="396.98"/>
      <point x="63" y="396.98"/>
    </contour>
  </outline>
</glyph>
<glyph name="cent" format="1">
  <advance width="478"/>
  <unicode hex="00A2"/>
  <outline>
    <contour>
      <point x="270" y="20" type="line" smooth="yes"/>
      <point x="270" y="-22.6667"/>
      <point x="218" y="-22.6667"/>
      <point x="218" y="20" type="curve" smooth="yes"/>
      <point x="218" y="118" type="line"/>
      <point x="104.667" y="124.667"/>
      <point x="49" y="168.667"/>
      <point x="49" y="298" type="curve" smooth="yes"/>
      <point x="49" y="340" type="line" smooth="yes"/>
      <point x="49" y="466.667"/>
      <point x="107.333" y="512.333"/>
      <point x="218" y="519" type="curve"/>
      <point x="218" y="615" type="line" smooth="yes"/>
      <point x="218" y="659"/>
      <point x="270" y="659"/>
      <point x="270" y="615" type="curve" smooth="yes"/>
      <point x="270" y="520" type="line"/>
      <point x="322" y="520" type="line" smooth="yes"/>
      <point x="377.333" y="520"/>
      <point x="409.333" y="496.667"/>
      <point x="418" y="450" type="curve" smooth="yes"/>
      <point x="422" y="428.667"/>
      <point x="429.667" y="373"/>
      <point x="395" y="373" type="curve" smooth="yes"/>
      <point x="377.667" y="373"/>
      <point x="369" y="384.5"/>
      <point x="369" y="407.5" type="curve" smooth="yes"/>
      <point x="369" y="453.5"/>
      <point x="356.333" y="468"/>
      <point x="315" y="468" type="curve" smooth="yes"/>
      <point x="270" y="468" type="line"/>
      <point x="270" y="170" type="line"/>
      <point x="313" y="170" type="line" smooth="yes"/>
      <point x="333.667" y="170"/>
      <point x="348.167" y="174.333"/>
      <point x="356.5" y="183" type="curve" smooth="yes"/>
      <point x="364.833" y="191.667"/>
      <point x="369" y="207.5"/>
      <point x="369" y="230.5" type="curve" smooth="yes"/>
      <point x="369" y="253.5"/>
      <point x="377.667" y="265"/>
      <point x="395" y="265" type="curve" smooth="yes"/>
      <point x="412.333" y="265"/>
      <point x="421" y="255.167"/>
      <point x="421" y="235.5" type="curve" smooth="yes"/>
      <point x="421" y="196.167"/>
      <point x="417.333" y="178"/>
      <point x="404" y="154" type="curve" smooth="yes"/>
      <point x="391.333" y="130"/>
      <point x="364.333" y="118"/>
      <point x="323" y="118" type="curve"/>
      <point x="321.667" y="118"/>
      <point x="320.667" y="118"/>
      <point x="320" y="118" type="curve"/>
      <point x="270" y="118" type="line"/>
    </contour>
    <contour>
      <point x="218" y="171" type="curve"/>
      <point x="218" y="467" type="line"/>
      <point x="134" y="463"/>
      <point x="101" y="434.667"/>
      <point x="101" y="340" type="curve" smooth="yes"/>
      <point x="101" y="298" type="line" smooth="yes"/>
      <point x="101" y="200.667"/>
      <point x="131.333" y="175"/>
    </contour>
  </outline>
</glyph>
<glyph name="sterling" format="1">
  <advance width="501"/>
  <unicode hex="00A3"/>
  <outline>
    <contour>
      <point x="65" y="23" type="curve" smooth="yes"/>
      <point x="65" y="27"/>
      <point x="65.3333" y="30"/>
      <point x="66" y="32" type="curve" smooth="yes"/>
      <point x="104" y="468" type="line" smooth="yes"/>
      <point x="110.667" y="543.333"/>
      <point x="132.667" y="593"/>
      <point x="170" y="617" type="curve" smooth="yes"/>
      <point x="201.333" y="637.667"/>
      <point x="240.667" y="648"/>
      <point x="288" y="648" type="curve" smooth="yes"/>
      <point x="382.667" y="648"/>
      <point x="441" y="615.667"/>
      <point x="441" y="501" type="curve" smooth="yes"/>
      <point x="441" y="457"/>
      <point x="389" y="457"/>
      <point x="389" y="501" type="curve" smooth="yes"/>
      <point x="389" y="582.333"/>
      <point x="358" y="596"/>
      <point x="282" y="596" type="curve" smooth="yes"/>
      <point x="206" y="596"/>
      <point x="165.333" y="574.667"/>
      <point x="156" y="468" type="curve" smooth="yes"/>
      <point x="147" y="369" type="line"/>
      <point x="181" y="369" type="line" smooth="yes"/>
      <point x="223.667" y="369"/>
      <point x="223.667" y="317"/>
      <point x="181" y="317" type="curve" smooth="yes"/>
      <point x="143" y="317" type="line"/>
      <point x="119" y="47" type="line"/>
      <point x="410" y="47" type="line" smooth="yes"/>
      <point x="454" y="47"/>
      <point x="454" y="-5"/>
      <point x="410" y="-5" type="curve" smooth="yes"/>
      <point x="87" y="-5" type="line" smooth="yes"/>
      <point x="72.3333" y="-5"/>
      <point x="65" y="4.33333"/>
    </contour>
  </outline>
</glyph>
<glyph name="currency" format="1">
  <advance width="495"/>
  <unicode hex="00A4"/>
  <outline>
    <contour>
      <point x="247.5" y="335" type="curve" smooth="yes"/>
      <point x="189.5" y="335"/>
      <point x="143" y="288.5"/>
      <point x="143" y="230.5" type="curve" smooth="yes"/>
      <point x="143" y="172.5"/>
      <point x="190.667" y="126"/>
      <point x="248" y="126" type="curve" smooth="yes"/>
      <point x="305.333" y="126"/>
      <point x="352" y="172.667"/>
      <point x="352" y="230" type="curve" smooth="yes"/>
      <point x="352" y="287.333"/>
      <point x="305.5" y="335"/>
    </contour>
    <contour>
      <point x="125" y="146" type="line"/>
      <point x="90.3333" y="195.333"/>
      <point x="90.3333" y="265.667"/>
      <point x="125" y="315" type="curve"/>
      <point x="80" y="360" type="line"/>
      <point x="51.2945" y="393.49"/>
      <point x="84.7555" y="424.638"/>
      <point x="117" y="397" type="curve"/>
      <point x="162" y="352" type="line"/>
      <point x="212.667" y="388"/>
      <point x="283.667" y="388"/>
      <point x="333" y="352" type="curve"/>
      <point x="377" y="397" type="line" smooth="yes"/>
      <point x="385.667" y="405"/>
      <point x="393.333" y="409"/>
      <point x="400" y="409" type="curve" smooth="yes"/>
      <point x="418" y="409"/>
      <point x="427" y="401"/>
      <point x="427" y="385" type="curve" smooth="yes"/>
      <point x="427" y="376.333"/>
      <point x="422.333" y="368"/>
      <point x="413" y="360" type="curve"/>
      <point x="369" y="315" type="line"/>
      <point x="405" y="267"/>
      <point x="405" y="194.333"/>
      <point x="369" y="145" type="curve"/>
      <point x="413" y="101" type="line" smooth="yes"/>
      <point x="445.036" y="68.9639"/>
      <point x="407.769" y="31.8637"/>
      <point x="377" y="65" type="curve"/>
      <point x="333" y="109" type="line"/>
      <point x="283.667" y="73"/>
      <point x="212.667" y="73"/>
      <point x="162" y="109" type="curve"/>
      <point x="117" y="65" type="line"/>
      <point x="87.614" y="30.7163"/>
      <point x="48.9823" y="67.3975"/>
      <point x="80" y="101" type="curve"/>
    </contour>
  </outline>
</glyph>
<glyph name="yen" format="1">
  <advance width="538"/>
  <unicode hex="00A5"/>
  <outline>
    <contour>
      <point x="39" y="601" type="line"/>
      <point x="20.5374" y="631.002"/>
      <point x="47.1972" y="673.461"/>
      <point x="81" y="630" type="curve"/>
      <point x="269" y="363" type="line"/>
      <point x="456" y="630" type="line" smooth="yes"/>
      <point x="486.542" y="673.51"/>
      <point x="523.987" y="626.51"/>
      <point x="499" y="601" type="curve"/>
      <point x="295" y="308" type="line"/>
      <point x="295" y="277" type="line"/>
      <point x="389" y="277" type="line" smooth="yes"/>
      <point x="433" y="277"/>
      <point x="433" y="225"/>
      <point x="389" y="225" type="curve" smooth="yes"/>
      <point x="295" y="225" type="line"/>
      <point x="295" y="188" type="line"/>
      <point x="389" y="188" type="line" smooth="yes"/>
      <point x="433" y="188"/>
      <point x="433" y="136"/>
      <point x="389" y="136" type="curve" smooth="yes"/>
      <point x="295" y="136" type="line"/>
      <point x="295" y="20" type="line"/>
      <point x="295" y="19.3333"/>
      <point x="295" y="18.6667"/>
      <point x="295" y="18" type="curve"/>
      <point x="295" y="-2"/>
      <point x="286.667" y="-12"/>
      <point x="270" y="-12" type="curve" smooth="yes"/>
      <point x="252.667" y="-12"/>
      <point x="244" y="-1.33333"/>
      <point x="244" y="20" type="curve" smooth="yes"/>
      <point x="244" y="136" type="line"/>
      <point x="144" y="136" type="line" smooth="yes"/>
      <point x="101.333" y="136"/>
      <point x="101.333" y="188"/>
      <point x="144" y="188" type="curve" smooth="yes"/>
      <point x="244" y="188" type="line"/>
      <point x="244" y="225" type="line"/>
      <point x="144" y="225" type="line" smooth="yes"/>
      <point x="101.333" y="225"/>
      <point x="101.333" y="277"/>
      <point x="144" y="277" type="curve" smooth="yes"/>
      <point x="244" y="277" type="line"/>
      <point x="244" y="308" type="line"/>
    </contour>
  </outline>
</glyph>
<glyph name="brokenbar" format="1">
  <advance width="213"/>
  <unicode hex="00A6"/>
  <outline>
    <contour>
      <point x="81" y="616" type="line" smooth="yes"/>
      <point x="81" y="658.667"/>
      <point x="132" y="658.667"/>
      <point x="132" y="616" type="curve" smooth="yes"/>
      <point x="132" y="401" type="line" smooth="yes"/>
      <point x="132" y="357"/>
      <point x="81" y="357"/>
      <point x="81" y="401" type="curve" smooth="yes"/>
    </contour>
    <contour>
      <point x="81" y="237" type="line" smooth="yes"/>
      <point x="81" y="278.333"/>
      <point x="132" y="278.333"/>
      <point x="132" y="237" type="curve" smooth="yes"/>
      <point x="132" y="22" type="line" smooth="yes"/>
      <point x="132" y="-23.3333"/>
      <point x="81" y="-23.3333"/>
      <point x="81" y="22" type="curve" smooth="yes"/>
    </contour>
  </outline>
</glyph>
<glyph name="section" format="1">
  <advance width="520"/>
  <unicode hex="00A7"/>
  <outline>
    <contour>
      <point x="353" y="547" type="curve" smooth="yes"/>
      <point x="169" y="547" type="line" smooth="yes"/>
      <point x="137" y="547"/>
      <point x="127" y="531"/>
      <point x="127" y="495" type="curve" smooth="yes"/>
      <point x="127" y="451.667"/>
      <point x="140" y="428.333"/>
      <point x="166" y="425" type="curve" smooth="yes"/>
      <point x="341" y="400" type="line" smooth="yes"/>
      <point x="410.333" y="390.667"/>
      <point x="445" y="353.667"/>
      <point x="445" y="289" type="curve" smooth="yes"/>
      <point x="445" y="241"/>
      <point x="429.667" y="209.333"/>
      <point x="399" y="194" type="curve"/>
      <point x="429.667" y="176"/>
      <point x="445" y="144.333"/>
      <point x="445" y="99" type="curve" smooth="yes"/>
      <point x="445" y="29.6667"/>
      <point x="410" y="-5"/>
      <point x="340" y="-5" type="curve" smooth="yes"/>
      <point x="156" y="-5" type="line" smooth="yes"/>
      <point x="123.333" y="-5"/>
      <point x="101.667" y="3.16667"/>
      <point x="91" y="19.5" type="curve" smooth="yes"/>
      <point x="69.6667" y="52.1667"/>
      <point x="66.3333" y="116"/>
      <point x="101" y="116" type="curve" smooth="yes"/>
      <point x="118.333" y="116"/>
      <point x="127" y="107"/>
      <point x="127" y="89" type="curve" smooth="yes"/>
      <point x="127" y="53"/>
      <point x="132.333" y="47"/>
      <point x="167" y="47" type="curve" smooth="yes"/>
      <point x="351" y="47" type="line" smooth="yes"/>
      <point x="383" y="47"/>
      <point x="393" y="61.6667"/>
      <point x="393" y="99" type="curve" smooth="yes"/>
      <point x="393" y="142.333"/>
      <point x="380" y="165.667"/>
      <point x="354" y="169" type="curve" smooth="yes"/>
      <point x="179" y="194" type="line" smooth="yes"/>
      <point x="109.667" y="203.333"/>
      <point x="75" y="240.667"/>
      <point x="75" y="306" type="curve" smooth="yes"/>
      <point x="75" y="353.333"/>
      <point x="90.3333" y="384.667"/>
      <point x="121" y="400" type="curve"/>
      <point x="90.3333" y="418"/>
      <point x="75" y="449.667"/>
      <point x="75" y="495" type="curve" smooth="yes"/>
      <point x="75" y="564.333"/>
      <point x="110" y="599"/>
      <point x="180" y="599" type="curve" smooth="yes"/>
      <point x="365" y="599" type="line"/>
      <point x="388.333" y="598.333"/>
      <point x="406" y="593.333"/>
      <point x="418" y="584" type="curve" smooth="yes"/>
      <point x="436" y="570"/>
      <point x="445" y="546"/>
      <point x="445" y="512" type="curve"/>
      <point x="445" y="510.667"/>
      <point x="445" y="509.333"/>
      <point x="445" y="508" type="curve"/>
      <point x="445" y="468"/>
      <point x="393" y="469"/>
      <point x="393" y="505" type="curve" smooth="yes"/>
      <point x="393" y="541"/>
      <point x="387.667" y="547"/>
    </contour>
    <contour>
      <point x="218" y="368" type="curve" smooth="yes"/>
      <point x="135.333" y="368"/>
      <point x="127" y="361.667"/>
      <point x="127" y="307" type="curve" smooth="yes"/>
      <point x="127" y="252.333"/>
      <point x="210" y="226"/>
      <point x="298" y="226" type="curve" smooth="yes"/>
      <point x="386" y="226"/>
      <point x="393" y="231.833"/>
      <point x="393" y="288.5" type="curve" smooth="yes"/>
      <point x="393" y="345.167"/>
      <point x="300.667" y="368"/>
    </contour>
  </outline>
</glyph>
<glyph name="dieresis" format="1">
  <advance width="367"/>
  <unicode hex="00A8"/>
  <outline>
    <contour>
      <point x="60" y="630" type="curve" smooth="yes"/>
      <point x="60" y="683.02"/>
      <point x="162" y="683.02"/>
      <point x="162" y="630" type="curve" smooth="yes"/>
      <point x="162" y="576.98"/>
      <point x="60" y="576.98"/>
    </contour>
    <contour>
      <point x="206" y="630" type="curve" smooth="yes"/>
      <point x="206" y="683.02"/>
      <point x="308" y="683.02"/>
      <point x="308" y="630" type="curve" smooth="yes"/>
      <point x="308" y="576.98"/>
      <point x="206" y="576.98"/>
    </contour>
  </outline>
</glyph>
<glyph name="copyright" format="1">
  <advance width="612"/>
  <unicode hex="00A9"/>
  <outline>
    <contour>
      <point x="351" y="421" type="line" smooth="yes"/>
      <point x="387.667" y="421"/>
      <point x="406" y="401.667"/>
      <point x="406" y="363" type="curve" smooth="yes"/>
      <point x="406" y="351.667"/>
      <point x="399.5" y="346"/>
      <point x="386.5" y="346" type="curve" smooth="yes"/>
      <point x="360.5" y="346"/>
      <point x="373" y="380"/>
      <point x="349" y="380" type="curve" smooth="yes"/>
      <point x="301" y="380" type="line" smooth="yes"/>
      <point x="269" y="380"/>
      <point x="246" y="363.667"/>
      <point x="246" y="337" type="curve" smooth="yes"/>
      <point x="246" y="298" type="line" smooth="yes"/>
      <point x="246" y="271.333"/>
      <point x="269" y="255"/>
      <point x="301" y="255" type="curve" smooth="yes"/>
      <point x="349" y="255" type="line"/>
      <point x="359" y="254.333"/>
      <point x="364.667" y="258.667"/>
      <point x="366" y="268" type="curve" smooth="yes"/>
      <point x="368.667" y="294.667"/>
      <point x="406" y="294.667"/>
      <point x="406" y="272" type="curve" smooth="yes"/>
      <point x="406" y="233.333"/>
      <point x="387.667" y="214"/>
      <point x="351" y="214" type="curve" smooth="yes"/>
      <point x="301" y="214" type="line" smooth="yes"/>
      <point x="249" y="214"/>
      <point x="206" y="243.333"/>
      <point x="206" y="298" type="curve" smooth="yes"/>
      <point x="206" y="337" type="line" smooth="yes"/>
      <point x="206" y="391.667"/>
      <point x="249" y="421"/>
      <point x="301" y="421" type="curve" smooth="yes"/>
    </contour>
    <contour>
      <point x="292" y="82" type="line"/>
      <point x="88.25" y="87.25"/>
      <point x="89.25" y="156.25"/>
      <point x="79" y="262" type="curve"/>
      <point x="79" y="373" type="line" smooth="yes"/>
      <point x="79" y="447"/>
      <point x="98.6667" y="496.333"/>
      <point x="138" y="521" type="curve" smooth="yes"/>
      <point x="172" y="542.333"/>
      <point x="223.333" y="553"/>
      <point x="292" y="553" type="curve" smooth="yes"/>
      <point x="321" y="553" type="line" smooth="yes"/>
      <point x="465" y="553"/>
      <point x="533" y="515.667"/>
      <point x="533" y="373" type="curve" smooth="yes"/>
      <point x="533" y="262" type="line" smooth="yes"/>
      <point x="533" y="119.333"/>
      <point x="465" y="82"/>
      <point x="321" y="82" type="curve" smooth="yes"/>
    </contour>
    <contour>
      <point x="292" y="134" type="curve" smooth="yes"/>
      <point x="321" y="134" type="line" smooth="yes"/>
      <point x="442.333" y="134"/>
      <point x="481" y="152.667"/>
      <point x="481" y="262" type="curve" smooth="yes"/>
      <point x="481" y="373" type="line" smooth="yes"/>
      <point x="481" y="482.333"/>
      <point x="442.333" y="501"/>
      <point x="321" y="501" type="curve" smooth="yes"/>
      <point x="292" y="501" type="line" smooth="yes"/>
      <point x="169.333" y="501"/>
      <point x="131" y="482.333"/>
      <point x="131" y="373" type="curve" smooth="yes"/>
      <point x="131" y="262" type="line" smooth="yes"/>
      <point x="131" y="152.667"/>
      <point x="169.333" y="134"/>
    </contour>
  </outline>
</glyph>
<glyph name="ordfeminine" format="1">
  <advance width="380"/>
  <unicode hex="00AA"/>
  <outline>
    <contour>
      <point x="91" y="159" type="line" smooth="yes"/>
      <point x="56.3333" y="159"/>
      <point x="56.3333" y="204"/>
      <point x="91" y="204" type="curve" smooth="yes"/>
      <point x="287" y="204" type="line" smooth="yes"/>
      <point x="324.333" y="204"/>
      <point x="324.333" y="159"/>
      <point x="287" y="159" type="curve" smooth="yes"/>
    </contour>
    <contour>
      <point x="150" y="285" type="curve" smooth="yes"/>
      <point x="187" y="285" type="line" smooth="yes"/>
      <point x="226.333" y="285"/>
      <point x="247" y="306.333"/>
      <point x="249" y="349" type="curve"/>
      <point x="192" y="349" type="line" smooth="yes"/>
      <point x="168.667" y="349"/>
      <point x="152.667" y="346.5"/>
      <point x="144" y="341.5" type="curve" smooth="yes"/>
      <point x="126.667" y="331.5"/>
      <point x="124.667" y="285"/>
    </contour>
    <contour>
      <point x="150" y="425" type="line" smooth="yes"/>
      <point x="124.667" y="425"/>
      <point x="137.833" y="387"/>
      <point x="110.5" y="387" type="curve" smooth="yes"/>
      <point x="67.9167" y="387"/>
      <point x="97.3333" y="466"/>
      <point x="147" y="466" type="curve" smooth="yes"/>
      <point x="232" y="466" type="line" smooth="yes"/>
      <point x="270.667" y="466"/>
      <point x="290" y="443"/>
      <point x="290" y="397" type="curve" smooth="yes"/>
      <point x="290" y="258" type="line"/>
      <point x="287.333" y="235.333"/>
      <point x="249" y="235.333"/>
      <point x="249" y="258" type="curve" smooth="yes"/>
      <point x="249" y="270" type="line"/>
      <point x="237" y="252.667"/>
      <point x="216.333" y="244"/>
      <point x="187" y="244" type="curve" smooth="yes"/>
      <point x="150" y="244" type="line" smooth="yes"/>
      <point x="115.333" y="244"/>
      <point x="90" y="272"/>
      <point x="90" y="320" type="curve" smooth="yes"/>
      <point x="90" y="366.667"/>
      <point x="124" y="390"/>
      <point x="192" y="390" type="curve" smooth="yes"/>
      <point x="249" y="390" type="line"/>
      <point x="249" y="404" type="line" smooth="yes"/>
      <point x="249" y="418"/>
      <point x="242.333" y="425"/>
      <point x="229" y="425" type="curve" smooth="yes"/>
    </contour>
  </outline>
</glyph>
<glyph name="logicalnot" format="1">
  <advance width="522"/>
  <unicode hex="00AC"/>
  <outline>
    <contour>
      <point x="443" y="141" type="line"/>
      <point x="441.667" y="97"/>
      <point x="390" y="97"/>
      <point x="390" y="141" type="curve" smooth="yes"/>
      <point x="390" y="204" type="line"/>
      <point x="111" y="204" type="line" smooth="yes"/>
      <point x="69.6667" y="204"/>
      <point x="69.6667" y="255.667"/>
      <point x="111" y="257" type="curve"/>
      <point x="409" y="257" type="line" smooth="yes"/>
      <point x="431.667" y="257"/>
      <point x="443" y="246.333"/>
      <point x="443" y="225" type="curve" smooth="yes"/>
    </contour>
  </outline>
</glyph>
<glyph name="uni00AD" format="1">
  <advance width="456"/>
  <unicode hex="00AD"/>
  <outline>
    <contour>
      <point x="349" y="257" type="line" smooth="yes"/>
      <point x="394.333" y="257"/>
      <point x="394.333" y="204"/>
      <point x="349" y="204" type="curve" smooth="yes"/>
      <point x="104" y="204" type="line" smooth="yes"/>
      <point x="62.6667" y="204"/>
      <point x="62.6667" y="257"/>
      <point x="104" y="257" type="curve" smooth="yes"/>
    </contour>
  </outline>
</glyph>
<glyph name="registered" format="1">
  <advance width="612"/>
  <unicode hex="00AE"/>
  <outline>
    <contour>
      <point x="292" y="134" type="curve" smooth="yes"/>
      <point x="321" y="134" type="line" smooth="yes"/>
      <point x="442.333" y="134"/>
      <point x="481" y="152.667"/>
      <point x="481" y="262" type="curve" smooth="yes"/>
      <point x="481" y="373" type="line" smooth="yes"/>
      <point x="481" y="482.333"/>
      <point x="442.333" y="501"/>
      <point x="321" y="501" type="curve" smooth="yes"/>
      <point x="292" y="501" type="line" smooth="yes"/>
      <point x="169.333" y="501"/>
      <point x="131" y="482.333"/>
      <point x="131" y="373" type="curve" smooth="yes"/>
      <point x="131" y="262" type="line" smooth="yes"/>
      <point x="131" y="152.667"/>
      <point x="169.333" y="134"/>
    </contour>
    <contour>
      <point x="292" y="82" type="line"/>
      <point x="88.25" y="87.25"/>
      <point x="89.25" y="156.25"/>
      <point x="79" y="262" type="curve"/>
      <point x="79" y="373" type="line" smooth="yes"/>
      <point x="79" y="447"/>
      <point x="98.6667" y="496.333"/>
      <point x="138" y="521" type="curve" smooth="yes"/>
      <point x="172" y="542.333"/>
      <point x="223.333" y="553"/>
      <point x="292" y="553" type="curve" smooth="yes"/>
      <point x="321" y="553" type="line" smooth="yes"/>
      <point x="465" y="553"/>
      <point x="533" y="515.667"/>
      <point x="533" y="373" type="curve" smooth="yes"/>
      <point x="533" y="262" type="line" smooth="yes"/>
      <point x="533" y="119.333"/>
      <point x="465" y="82"/>
      <point x="321" y="82" type="curve" smooth="yes"/>
    </contour>
    <contour>
      <point x="414" y="361" type="curve" smooth="yes"/>
      <point x="414" y="331"/>
      <point x="398" y="311"/>
      <point x="366" y="301" type="curve"/>
      <point x="384.667" y="285"/>
      <point x="417" y="234.667"/>
      <point x="417" y="216" type="curve"/>
      <point x="416.333" y="207.333"/>
      <point x="411.333" y="203"/>
      <point x="402" y="203" type="curve" smooth="yes"/>
      <point x="384.667" y="203"/>
      <point x="376" y="207.333"/>
      <point x="376" y="216" type="curve"/>
      <point x="372" y="232"/>
      <point x="344.667" y="279.333"/>
      <point x="314" y="298" type="curve"/>
      <point x="243" y="298" type="line"/>
      <point x="243" y="217" type="line" smooth="yes"/>
      <point x="243" y="198.333"/>
      <point x="202" y="198.333"/>
      <point x="202" y="217" type="curve" smooth="yes"/>
      <point x="202" y="411" type="line" smooth="yes"/>
      <point x="202" y="421"/>
      <point x="208.333" y="426"/>
      <point x="221" y="426" type="curve" smooth="yes"/>
      <point x="305" y="426" type="line" smooth="yes"/>
      <point x="377.667" y="426"/>
      <point x="414" y="404.333"/>
    </contour>
    <contour>
      <point x="305" y="339" type="line"/>
      <point x="397.366" y="328.007"/>
      <point x="399.144" y="394.895"/>
      <point x="305" y="385" type="curve"/>
      <point x="243" y="385" type="line"/>
      <point x="243" y="339" type="line"/>
    </contour>
  </outline>
</glyph>
<glyph name="macron" format="1">
  <advance width="429"/>
  <unicode hex="00AF"/>
  <outline>
    <contour>
      <point x="336" y="726" type="line" smooth="yes"/>
      <point x="381.333" y="726"/>
      <point x="381.333" y="673"/>
      <point x="336" y="673" type="curve" smooth="yes"/>
      <point x="91" y="673" type="line" smooth="yes"/>
      <point x="49.6667" y="673"/>
      <point x="49.6667" y="726"/>
      <point x="91" y="726" type="curve" smooth="yes"/>
    </contour>
  </outline>
</glyph>
<glyph name="degree" format="1">
  <advance width="403"/>
  <unicode hex="00B0"/>
  <outline>
    <contour>
      <point x="132" y="466" type="curve"/>
      <point x="172" y="427.333"/>
      <point x="232.5" y="427.5"/>
      <point x="270.5" y="465.5" type="curve" smooth="yes"/>
      <point x="308.5" y="503.5"/>
      <point x="308.667" y="564.333"/>
      <point x="270" y="603" type="curve" smooth="yes"/>
      <point x="231.333" y="641.667"/>
      <point x="170.5" y="641.5"/>
      <point x="132.5" y="603.5" type="curve" smooth="yes"/>
      <point x="94.5" y="565.5"/>
      <point x="94.6667" y="504.667"/>
    </contour>
    <contour>
      <point x="96.5" y="639.5" type="curve" smooth="yes"/>
      <point x="154.5" y="697.5"/>
      <point x="247.333" y="697.5"/>
      <point x="306" y="639.5" type="curve" smooth="yes"/>
      <point x="364.667" y="581.5"/>
      <point x="364.667" y="488.667"/>
      <point x="306" y="430" type="curve" smooth="yes"/>
      <point x="247.333" y="371.333"/>
      <point x="154.5" y="371.333"/>
      <point x="96.5" y="430" type="curve" smooth="yes"/>
      <point x="38.5" y="488.667"/>
      <point x="38.5" y="581.5"/>
    </contour>
  </outline>
</glyph>
<glyph name="plusminus" format="1">
  <advance width="579"/>
  <unicode hex="00B1"/>
  <outline>
    <contour>
      <point x="477" y="53" type="line" smooth="yes"/>
      <point x="522.333" y="53"/>
      <point x="522.333" y="0"/>
      <point x="477" y="0" type="curve" smooth="yes"/>
      <point x="99" y="0" type="line" smooth="yes"/>
      <point x="57.6667" y="0"/>
      <point x="57.6667" y="53"/>
      <point x="99" y="53" type="curve" smooth="yes"/>
    </contour>
    <contour>
      <point x="263" y="143" type="curve" smooth="yes"/>
      <point x="263" y="265" type="line"/>
      <point x="99" y="265" type="line" smooth="yes"/>
      <point x="57.6667" y="265"/>
      <point x="57.6667" y="318"/>
      <point x="99" y="318" type="curve" smooth="yes"/>
      <point x="263" y="318" type="line"/>
      <point x="263" y="440" type="line" smooth="yes"/>
      <point x="263" y="484"/>
      <point x="315" y="484"/>
      <point x="315" y="440" type="curve" smooth="yes"/>
      <point x="315" y="318" type="line"/>
      <point x="477" y="318" type="line" smooth="yes"/>
      <point x="522.333" y="318"/>
      <point x="522.333" y="265"/>
      <point x="477" y="265" type="curve" smooth="yes"/>
      <point x="315" y="265" type="line"/>
      <point x="315" y="143" type="line" smooth="yes"/>
      <point x="315" y="100.333"/>
      <point x="263" y="100.333"/>
    </contour>
  </outline>
</glyph>
<glyph name="twosuperior" format="1">
  <advance width="325"/>
  <unicode hex="00B2"/>
  <outline>
    <contour>
      <point x="253" y="499" type="line"/>
      <point x="271" y="497.667"/>
      <point x="280" y="490.333"/>
      <point x="280" y="477" type="curve" smooth="yes"/>
      <point x="280" y="469"/>
      <point x="266.333" y="456"/>
      <point x="253" y="456" type="curve" smooth="yes"/>
      <point x="45" y="456" type="line"/>
      <point x="45" y="483" type="line" smooth="yes"/>
      <point x="45" y="529"/>
      <point x="67.6667" y="565.667"/>
      <point x="113" y="593" type="curve" smooth="yes"/>
      <point x="131.667" y="604.333"/>
      <point x="150.333" y="614.667"/>
      <point x="169" y="624" type="curve" smooth="yes"/>
      <point x="214.333" y="646.667"/>
      <point x="237" y="666"/>
      <point x="237" y="682" type="curve" smooth="yes"/>
      <point x="237" y="724.667"/>
      <point x="221.667" y="729"/>
      <point x="155" y="729" type="curve" smooth="yes"/>
      <point x="129" y="729" type="line" smooth="yes"/>
      <point x="103.667" y="729"/>
      <point x="91" y="720.333"/>
      <point x="91" y="703" type="curve" smooth="yes"/>
      <point x="91" y="681.061"/>
      <point x="66.578" y="674.299"/>
      <point x="52.5" y="686.5" type="curve"/>
      <point x="29.4167" y="695.5"/>
      <point x="52.8333" y="773.5"/>
      <point x="125" y="772" type="curve"/>
      <point x="155" y="772" type="line" smooth="yes"/>
      <point x="219.667" y="772"/>
      <point x="258.333" y="758.333"/>
      <point x="271" y="731" type="curve" smooth="yes"/>
      <point x="283" y="705.667"/>
      <point x="289.333" y="662.667"/>
      <point x="252" y="628" type="curve"/>
      <point x="232.667" y="612"/>
      <point x="211.667" y="598.667"/>
      <point x="189" y="588" type="curve" smooth="yes"/>
      <point x="127.667" y="559.333"/>
      <point x="95.3333" y="529.667"/>
      <point x="92" y="499" type="curve"/>
    </contour>
  </outline>
</glyph>
<glyph name="threesuperior" format="1">
  <advance width="295"/>
  <unicode hex="00B3"/>
  <outline>
    <contour>
      <point x="210" y="709" type="curve" smooth="yes"/>
      <point x="204.667" y="722.333"/>
      <point x="184.667" y="729"/>
      <point x="150" y="729" type="curve" smooth="yes"/>
      <point x="138" y="729" type="line" smooth="yes"/>
      <point x="107.333" y="729"/>
      <point x="78" y="717"/>
      <point x="78" y="701" type="curve" smooth="yes"/>
      <point x="78" y="677"/>
      <point x="32" y="675.667"/>
      <point x="32" y="705" type="curve" smooth="yes"/>
      <point x="32" y="734.333"/>
      <point x="74" y="772"/>
      <point x="134" y="772" type="curve" smooth="yes"/>
      <point x="146" y="772" type="line" smooth="yes"/>
      <point x="185.333" y="772"/>
      <point x="213.333" y="765.167"/>
      <point x="230" y="751.5" type="curve" smooth="yes"/>
      <point x="263.333" y="724.167"/>
      <point x="274.667" y="651.333"/>
      <point x="196" y="618" type="curve"/>
      <point x="226.667" y="604.667"/>
      <point x="255" y="580"/>
      <point x="255" y="532" type="curve" smooth="yes"/>
      <point x="255" y="481.333"/>
      <point x="218.667" y="456"/>
      <point x="146" y="456" type="curve" smooth="yes"/>
      <point x="134" y="456" type="line" smooth="yes"/>
      <point x="74" y="456"/>
      <point x="32" y="493.667"/>
      <point x="32" y="523" type="curve" smooth="yes"/>
      <point x="32" y="552.333"/>
      <point x="78" y="551"/>
      <point x="78" y="527" type="curve" smooth="yes"/>
      <point x="78" y="511"/>
      <point x="107.333" y="499"/>
      <point x="138" y="499" type="curve" smooth="yes"/>
      <point x="150" y="499" type="line" smooth="yes"/>
      <point x="203.333" y="499"/>
      <point x="213" y="511.833"/>
      <point x="213" y="540.5" type="curve" smooth="yes"/>
      <point x="213" y="569.167"/>
      <point x="164.833" y="596"/>
      <point x="129.5" y="596" type="curve" smooth="yes"/>
      <point x="94.1667" y="596"/>
      <point x="94.1667" y="639"/>
      <point x="129.5" y="639" type="curve" smooth="yes"/>
      <point x="147.167" y="639"/>
      <point x="165.5" y="643.667"/>
      <point x="184.5" y="653" type="curve" smooth="yes"/>
      <point x="222.5" y="671.667"/>
      <point x="214" y="698.333"/>
    </contour>
  </outline>
</glyph>
<glyph name="acute" format="1">
  <advance width="212"/>
  <unicode hex="00B4"/>
  <outline>
    <contour>
      <point x="175" y="635" type="curve" smooth="yes"/>
      <point x="79" y="520" type="line" smooth="yes"/>
      <point x="46.9395" y="483.007"/>
      <point x="14.5102" y="524.29"/>
      <point x="38" y="553" type="curve" smooth="yes"/>
      <point x="134" y="668" type="line"/>
      <point x="168.537" y="705.004"/>
      <point x="198.114" y="663.25"/>
    </contour>
  </outline>
</glyph>
<glyph name="uni00B5" format="1">
  <advance width="574"/>
  <unicode hex="00B5"/>
  <outline>
    <contour>
      <point x="449" y="228" type="curve" smooth="yes"/>
      <point x="449" y="438" type="line" smooth="yes"/>
      <point x="449" y="484.667"/>
      <point x="501" y="484.667"/>
      <point x="501" y="438" type="curve" smooth="yes"/>
      <point x="501" y="24" type="line" smooth="yes"/>
      <point x="501" y="-24"/>
      <point x="449" y="-24"/>
      <point x="449" y="24" type="curve" smooth="yes"/>
      <point x="449" y="58" type="line"/>
      <point x="409.667" y="16"/>
      <point x="356" y="-5"/>
      <point x="288" y="-5" type="curve" smooth="yes"/>
      <point x="220" y="-5"/>
      <point x="166.333" y="16"/>
      <point x="127" y="58" type="curve"/>
      <point x="127" y="-169" type="line" smooth="yes"/>
      <point x="127" y="-217"/>
      <point x="75" y="-217"/>
      <point x="75" y="-169" type="curve" smooth="yes"/>
      <point x="75" y="438" type="line" smooth="yes"/>
      <point x="75" y="484.667"/>
      <point x="127" y="484.667"/>
      <point x="127" y="438" type="curve" smooth="yes"/>
      <point x="127" y="228" type="line" smooth="yes"/>
      <point x="127" y="110.667"/>
      <point x="184" y="47"/>
      <point x="288" y="47" type="curve" smooth="yes"/>
      <point x="392" y="47"/>
      <point x="449" y="110.667"/>
    </contour>
  </outline>
</glyph>
<glyph name="paragraph" format="1">
  <advance width="467"/>
  <unicode hex="00B6"/>
  <outline>
    <contour>
      <point x="377" y="20" type="line" smooth="yes"/>
      <point x="377" y="-22.6667"/>
      <point x="325" y="-22.6667"/>
      <point x="325" y="20" type="curve" smooth="yes"/>
      <point x="325" y="589" type="line"/>
      <point x="294" y="589" type="line"/>
      <point x="294" y="20" type="line" smooth="yes"/>
      <point x="294" y="-22.6667"/>
      <point x="242" y="-22.6667"/>
      <point x="242" y="20" type="curve" smooth="yes"/>
      <point x="242" y="332" type="line"/>
      <point x="205" y="332" type="line" smooth="yes"/>
      <point x="98.3333" y="332"/>
      <point x="35" y="383.667"/>
      <point x="35" y="493" type="curve" smooth="yes"/>
      <point x="35" y="602.333"/>
      <point x="107" y="641"/>
      <point x="247" y="641" type="curve" smooth="yes"/>
      <point x="377" y="641" type="line"/>
    </contour>
  </outline>
</glyph>
<glyph name="periodcentered" format="1">
  <advance width="242"/>
  <unicode hex="00B7"/>
  <outline>
    <contour>
      <point x="70" y="387" type="curve" smooth="yes"/>
      <point x="70" y="440.02"/>
      <point x="172" y="440.02"/>
      <point x="172" y="387" type="curve" smooth="yes"/>
      <point x="172" y="333.98"/>
      <point x="70" y="333.98"/>
    </contour>
  </outline>
</glyph>
<glyph name="cedilla" format="1">
  <advance width="242"/>
  <unicode hex="00B8"/>
  <outline>
    <contour>
      <point x="143" y="10" type="line"/>
      <point x="143" y="-9.33333"/>
      <point x="154.5" y="-25.3333"/>
      <point x="177.5" y="-38" type="curve" smooth="yes"/>
      <point x="223.5" y="-63.3333"/>
      <point x="221.333" y="-122.5"/>
      <point x="184" y="-152.5" type="curve" smooth="yes"/>
      <point x="146.667" y="-182.5"/>
      <point x="100" y="-179"/>
      <point x="64" y="-163" type="curve" smooth="yes"/>
      <point x="28" y="-147"/>
      <point x="32" y="-107"/>
      <point x="52" y="-107" type="curve" smooth="yes"/>
      <point x="60" y="-107"/>
      <point x="99.3333" y="-125"/>
      <point x="118" y="-125" type="curve" smooth="yes"/>
      <point x="146" y="-125"/>
      <point x="160" y="-116.333"/>
      <point x="160" y="-99" type="curve" smooth="yes"/>
      <point x="160" y="-89"/>
      <point x="152" y="-78.3333"/>
      <point x="136" y="-67" type="curve" smooth="yes"/>
      <point x="106" y="-45.6667"/>
      <point x="91" y="-20.6667"/>
      <point x="91" y="8" type="curve"/>
      <point x="91" y="8.66667"/>
      <point x="91" y="9.33333"/>
      <point x="91" y="10" type="curve"/>
    </contour>
  </outline>
</glyph>
<glyph name="onesuperior" format="1">
  <advance width="154"/>
  <unicode hex="00B9"/>
  <outline>
    <contour>
      <point x="76" y="775" type="curve" smooth="yes"/>
      <point x="91.3333" y="775"/>
      <point x="99" y="767"/>
      <point x="99" y="751" type="curve" smooth="yes"/>
      <point x="99" y="480" type="line" smooth="yes"/>
      <point x="99" y="444"/>
      <point x="55" y="444"/>
      <point x="55" y="480" type="curve" smooth="yes"/>
      <point x="55" y="703" type="line"/>
      <point x="37" y="685" type="line"/>
      <point x="31" y="677"/>
      <point x="24" y="673"/>
      <point x="16" y="673" type="curve" smooth="yes"/>
      <point x="1.33333" y="673"/>
      <point x="-6.33333" y="679.333"/>
      <point x="-7" y="692" type="curve"/>
      <point x="-7" y="700"/>
      <point x="-3" y="707.333"/>
      <point x="5" y="714" type="curve"/>
      <point x="53" y="764" type="line"/>
      <point x="61.6667" y="771.333"/>
      <point x="69.3333" y="775"/>
    </contour>
  </outline>
</glyph>
<glyph name="ordmasculine" format="1">
  <advance width="380"/>
  <unicode hex="00BA"/>
  <outline>
    <contour>
      <point x="185" y="285" type="curve" smooth="yes"/>
      <point x="194" y="285" type="line" smooth="yes"/>
      <point x="239.333" y="285"/>
      <point x="249" y="290.333"/>
      <point x="249" y="333" type="curve" smooth="yes"/>
      <point x="249" y="377" type="line" smooth="yes"/>
      <point x="249" y="419.667"/>
      <point x="239.333" y="425"/>
      <point x="194" y="425" type="curve" smooth="yes"/>
      <point x="185" y="425" type="line" smooth="yes"/>
      <point x="139.667" y="425"/>
      <point x="131" y="419.667"/>
      <point x="131" y="377" type="curve" smooth="yes"/>
      <point x="131" y="333" type="line" smooth="yes"/>
      <point x="131" y="290.333"/>
      <point x="139.667" y="285"/>
    </contour>
    <contour>
      <point x="185" y="244" type="line" smooth="yes"/>
      <point x="113" y="244"/>
      <point x="90" y="263.667"/>
      <point x="90" y="333" type="curve" smooth="yes"/>
      <point x="90" y="377" type="line" smooth="yes"/>
      <point x="90" y="446.333"/>
      <point x="114.333" y="466"/>
      <point x="185" y="466" type="curve" smooth="yes"/>
      <point x="194" y="466" type="line" smooth="yes"/>
      <point x="266" y="466"/>
      <point x="290" y="446.333"/>
      <point x="290" y="377" type="curve" smooth="yes"/>
      <point x="290" y="333" type="line" smooth="yes"/>
      <point x="290" y="263.667"/>
      <point x="266" y="244"/>
      <point x="194" y="244" type="curve" smooth="yes"/>
    </contour>
    <contour>
      <point x="91" y="159" type="line" smooth="yes"/>
      <point x="56.3333" y="159"/>
      <point x="56.3333" y="204"/>
      <point x="91" y="204" type="curve" smooth="yes"/>
      <point x="287" y="204" type="line" smooth="yes"/>
      <point x="324.333" y="204"/>
      <point x="324.333" y="159"/>
      <point x="287" y="159" type="curve" smooth="yes"/>
    </contour>
  </outline>
</glyph>
<glyph name="questiondown" format="1">
  <advance width="529"/>
  <unicode hex="00BF"/>
  <outline>
    <contour>
      <point x="333" y="450" type="curve" smooth="yes"/>
      <point x="333" y="396.98"/>
      <point x="230" y="396.98"/>
      <point x="230" y="450" type="curve" smooth="yes"/>
      <point x="230" y="503.02"/>
      <point x="333" y="503.02"/>
    </contour>
    <contour>
      <point x="255" y="285" type="line" smooth="yes"/>
      <point x="255" y="329"/>
      <point x="307" y="329"/>
      <point x="307" y="285" type="curve" smooth="yes"/>
      <point x="307" y="141" type="line"/>
      <point x="150" y="98" type="line" smooth="yes"/>
      <point x="115.333" y="88.6667"/>
      <point x="90" y="47.5"/>
      <point x="90" y="-6.5" type="curve" smooth="yes"/>
      <point x="90" y="-60.5"/>
      <point x="120.333" y="-118"/>
      <point x="187" y="-118" type="curve" smooth="yes"/>
      <point x="281" y="-118" type="line"/>
      <point x="450.583" y="-116.667"/>
      <point x="430.417" y="-71.0833"/>
      <point x="441" y="3" type="curve"/>
      <point x="441" y="28.3333"/>
      <point x="449.833" y="41"/>
      <point x="467.5" y="41" type="curve" smooth="yes"/>
      <point x="502.833" y="41"/>
      <point x="498.667" y="-36"/>
      <point x="480" y="-84" type="curve"/>
      <point x="469.333" y="-108.667"/>
      <point x="454" y="-127"/>
      <point x="434" y="-139" type="curve" smooth="yes"/>
      <point x="399.333" y="-159.667"/>
      <point x="348.333" y="-170"/>
      <point x="281" y="-170" type="curve" smooth="yes"/>
      <point x="205" y="-170" type="line" smooth="yes"/>
      <point x="87.6667" y="-170"/>
      <point x="38" y="-95.5"/>
      <point x="38" y="-5.5" type="curve" smooth="yes"/>
      <point x="38" y="84.5"/>
      <point x="72.6667" y="129.667"/>
      <point x="166" y="155" type="curve" smooth="yes"/>
      <point x="255" y="180" type="line"/>
    </contour>
  </outline>
</glyph>
<glyph name="AE" format="1">
  <advance width="867"/>
  <unicode hex="00C6"/>
  <outline>
    <contour>
      <point x="452" y="332" type="line"/>
      <point x="452" y="52" type="line"/>
      <point x="785" y="52" type="line" smooth="yes"/>
      <point x="830.333" y="52"/>
      <point x="830.333" y="0"/>
      <point x="785" y="0" type="curve" smooth="yes"/>
      <point x="424" y="0" type="line" smooth="yes"/>
      <point x="408" y="0"/>
      <point x="400" y="12"/>
      <point x="400" y="36" type="curve" smooth="yes"/>
      <point x="400" y="199" type="line"/>
      <point x="185" y="199" type="line"/>
      <point x="62" y="7" type="line" smooth="yes"/>
      <point x="42" y="-23.6667"/>
      <point x="9" y="-22"/>
      <point x="9" y="2" type="curve" smooth="yes"/>
      <point x="9" y="8.66667"/>
      <point x="11.6667" y="16.3333"/>
      <point x="17" y="25" type="curve" smooth="yes"/>
      <point x="405" y="631" type="line" smooth="yes"/>
      <point x="409.667" y="637.667"/>
      <point x="416" y="641"/>
      <point x="424" y="641" type="curve" smooth="yes"/>
      <point x="785" y="641" type="line" smooth="yes"/>
      <point x="830.333" y="641"/>
      <point x="830.333" y="589"/>
      <point x="785" y="589" type="curve" smooth="yes"/>
      <point x="452" y="589" type="line"/>
      <point x="452" y="384" type="line"/>
      <point x="666" y="384" type="line" smooth="yes"/>
      <point x="714" y="384"/>
      <point x="714" y="332"/>
      <point x="666" y="332" type="curve" smooth="yes"/>
    </contour>
    <contour>
      <point x="400" y="251" type="line"/>
      <point x="400" y="533" type="line"/>
      <point x="219" y="251" type="line"/>
    </contour>
  </outline>
</glyph>
<glyph name="Ccedilla" format="1">
  <advance width="590"/>
  <unicode hex="00C7"/>
  <outline>
    <contour>
      <point x="283" y="0" type="curve"/>
      <point x="136.333" y="1.33333"/>
      <point x="71" y="38.6667"/>
      <point x="71" y="180" type="curve" smooth="yes"/>
      <point x="71" y="466" type="line" smooth="yes"/>
      <point x="71" y="610"/>
      <point x="140" y="646"/>
      <point x="288" y="646" type="curve" smooth="yes"/>
      <point x="435" y="646" type="line" smooth="yes"/>
      <point x="491" y="646"/>
      <point x="523.333" y="622.333"/>
      <point x="532" y="575" type="curve" smooth="yes"/>
      <point x="536" y="552.333"/>
      <point x="543.667" y="499"/>
      <point x="509" y="499" type="curve" smooth="yes"/>
      <point x="491.667" y="499"/>
      <point x="483" y="510.333"/>
      <point x="483" y="533" type="curve" smooth="yes"/>
      <point x="483" y="578.333"/>
      <point x="469.333" y="594"/>
      <point x="428" y="594" type="curve" smooth="yes"/>
      <point x="288" y="594" type="line"/>
      <point x="110.75" y="590.333"/>
      <point x="134.5" y="548.417"/>
      <point x="123" y="466" type="curve"/>
      <point x="123" y="180" type="line" smooth="yes"/>
      <point x="123" y="69.3333"/>
      <point x="162" y="52"/>
      <point x="294" y="52" type="curve" smooth="yes"/>
      <point x="428" y="52" type="line" smooth="yes"/>
      <point x="470.667" y="52"/>
      <point x="483" y="68.8333"/>
      <point x="483" y="113.5" type="curve" smooth="yes"/>
      <point x="483" y="135.833"/>
      <point x="491.667" y="147"/>
      <point x="509" y="147" type="curve" smooth="yes"/>
      <point x="543.667" y="147"/>
      <point x="536" y="93.6667"/>
      <point x="532" y="71" type="curve" smooth="yes"/>
      <point x="530.667" y="59.6667"/>
      <point x="526.667" y="48"/>
      <point x="520" y="36" type="curve" smooth="yes"/>
      <point x="507.333" y="12"/>
      <point x="480" y="0"/>
      <point x="438" y="-0" type="curve"/>
      <point x="436.667" y="0"/>
      <point x="435.667" y="0"/>
      <point x="435" y="0" type="curve"/>
      <point x="336" y="0" type="line"/>
      <point x="339.333" y="-14.6667"/>
      <point x="348.333" y="-26.3333"/>
      <point x="363" y="-35" type="curve" smooth="yes"/>
      <point x="454.079" y="-86.0933"/>
      <point x="377.353" y="-175"/>
      <point x="315.5" y="-175" type="curve"/>
      <point x="242.917" y="-185.333"/>
      <point x="204.833" y="-111.667"/>
      <point x="244" y="-107" type="curve"/>
      <point x="252" y="-107"/>
      <point x="291.333" y="-125"/>
      <point x="310" y="-125" type="curve" smooth="yes"/>
      <point x="338" y="-125"/>
      <point x="352" y="-116.333"/>
      <point x="352" y="-99" type="curve" smooth="yes"/>
      <point x="352" y="-91.6667"/>
      <point x="346.667" y="-84"/>
      <point x="336" y="-76" type="curve" smooth="yes"/>
      <point x="303.333" y="-50.6667"/>
      <point x="285.667" y="-25.3333"/>
    </contour>
  </outline>
</glyph>
<glyph name="multiply" format="1">
  <advance width="493"/>
  <unicode hex="00D7"/>
  <outline>
    <contour>
      <point x="83" y="358" type="line" smooth="yes"/>
      <point x="52.817" y="388.183"/>
      <point x="87.9281" y="425.072"/>
      <point x="119" y="394" type="curve" smooth="yes"/>
      <point x="246" y="266" type="line"/>
      <point x="374" y="393" type="line" smooth="yes"/>
      <point x="404.183" y="423.183"/>
      <point x="441.072" y="388.072"/>
      <point x="410" y="357" type="curve" smooth="yes"/>
      <point x="282" y="230" type="line"/>
      <point x="409" y="102" type="line"/>
      <point x="442.333" y="73.7952"/>
      <point x="404.004" y="34.9961"/>
      <point x="373" y="66" type="curve" smooth="yes"/>
      <point x="246" y="194" type="line"/>
      <point x="118" y="67" type="line"/>
      <point x="89.7952" y="33.667"/>
      <point x="50.9961" y="71.9961"/>
      <point x="82" y="103" type="curve" smooth="yes"/>
      <point x="210" y="230" type="line"/>
    </contour>
  </outline>
</glyph>
<glyph name="Oslash" format="1">
  <advance width="594"/>
  <unicode hex="00D8"/>
  <outline>
    <contour>
      <point x="415" y="558" type="line"/>
      <point x="383.667" y="581.333"/>
      <point x="341.833" y="593"/>
      <point x="289.5" y="593" type="curve" smooth="yes"/>
      <point x="184.833" y="593"/>
      <point x="117" y="522.667"/>
      <point x="117" y="404" type="curve" smooth="yes"/>
      <point x="117" y="222" type="line" smooth="yes"/>
      <point x="117" y="175.333"/>
      <point x="126.333" y="137.333"/>
      <point x="145" y="108" type="curve"/>
    </contour>
    <contour>
      <point x="450" y="619" type="line"/>
      <point x="455.333" y="631.667"/>
      <point x="462" y="638"/>
      <point x="470" y="638" type="curve" smooth="yes"/>
      <point x="490" y="638"/>
      <point x="500.333" y="629.667"/>
      <point x="501" y="613" type="curve"/>
      <point x="501" y="607.667"/>
      <point x="499" y="601"/>
      <point x="495" y="593" type="curve" smooth="yes"/>
      <point x="478" y="566" type="line"/>
      <point x="512" y="524.667"/>
      <point x="529" y="472"/>
      <point x="529" y="408" type="curve" smooth="yes"/>
      <point x="529" y="228" type="line" smooth="yes"/>
      <point x="529" y="154.667"/>
      <point x="507.333" y="96.8333"/>
      <point x="464" y="54.5" type="curve" smooth="yes"/>
      <point x="420.667" y="12.1667"/>
      <point x="367.833" y="-9"/>
      <point x="305.5" y="-9" type="curve" smooth="yes"/>
      <point x="243.167" y="-9"/>
      <point x="193.333" y="5"/>
      <point x="156" y="33" type="curve"/>
      <point x="146" y="17" type="line" smooth="yes"/>
      <point x="139.333" y="4.33333"/>
      <point x="132" y="-2"/>
      <point x="124" y="-2" type="curve" smooth="yes"/>
      <point x="104.667" y="-2"/>
      <point x="95" y="5.33333"/>
      <point x="95" y="20" type="curve"/>
      <point x="95" y="20.6667"/>
      <point x="95" y="21.3333"/>
      <point x="95" y="22" type="curve"/>
      <point x="95" y="28"/>
      <point x="97" y="35"/>
      <point x="101" y="43" type="curve" smooth="yes"/>
      <point x="116" y="68" type="line"/>
      <point x="82" y="109.333"/>
      <point x="65" y="162.667"/>
      <point x="65" y="228" type="curve" smooth="yes"/>
      <point x="65" y="408" type="line" smooth="yes"/>
      <point x="65" y="482"/>
      <point x="86.6667" y="540"/>
      <point x="130" y="582" type="curve" smooth="yes"/>
      <point x="173.333" y="624"/>
      <point x="226.5" y="645"/>
      <point x="289.5" y="645" type="curve" smooth="yes"/>
      <point x="352.5" y="645"/>
      <point x="402.667" y="630.667"/>
      <point x="440" y="602" type="curve"/>
    </contour>
    <contour>
      <point x="477" y="414" type="line" smooth="yes"/>
      <point x="477" y="460"/>
      <point x="468" y="497.333"/>
      <point x="450" y="526" type="curve"/>
      <point x="180" y="77" type="line"/>
      <point x="210.667" y="54.3333"/>
      <point x="252.167" y="43"/>
      <point x="304.5" y="43" type="curve" smooth="yes"/>
      <point x="409.167" y="43"/>
      <point x="477" y="112"/>
      <point x="477" y="232" type="curve" smooth="yes"/>
    </contour>
  </outline>
</glyph>
<glyph name="Thorn" format="1">
  <advance width="520"/>
  <unicode hex="00DE"/>
  <outline>
    <contour>
      <point x="136" y="466" type="line"/>
      <point x="311" y="466" type="line" smooth="yes"/>
      <point x="420.333" y="466"/>
      <point x="485" y="413"/>
      <point x="485" y="313" type="curve" smooth="yes"/>
      <point x="485" y="213"/>
      <point x="419.333" y="159"/>
      <point x="310" y="159" type="curve" smooth="yes"/>
      <point x="136" y="159" type="line"/>
      <point x="136" y="25" type="line" smooth="yes"/>
      <point x="136" y="-17.6667"/>
      <point x="84" y="-17.6667"/>
      <point x="84" y="25" type="curve" smooth="yes"/>
      <point x="84" y="573" type="line" smooth="yes"/>
      <point x="84" y="617"/>
      <point x="136" y="617"/>
      <point x="136" y="573" type="curve" smooth="yes"/>
    </contour>
    <contour>
      <point x="266" y="414" type="curve" smooth="yes"/>
      <point x="136" y="414" type="line"/>
      <point x="136" y="208" type="line"/>
      <point x="265" y="208" type="line" smooth="yes"/>
      <point x="390.333" y="208"/>
      <point x="432" y="226"/>
      <point x="432" y="310" type="curve" smooth="yes"/>
      <point x="432" y="394"/>
      <point x="390" y="414"/>
    </contour>
  </outline>
</glyph>
<glyph name="germandbls" format="1">
  <advance width="464"/>
  <unicode hex="00DF"/>
  <outline>
    <contour>
      <point x="208" y="93" type="curve" smooth="yes"/>
      <point x="208" y="52.3333"/>
      <point x="233.333" y="32"/>
      <point x="284" y="32" type="curve" smooth="yes"/>
      <point x="332" y="32"/>
      <point x="374" y="71.6667"/>
      <point x="374" y="197" type="curve" smooth="yes"/>
      <point x="374" y="233.667"/>
      <point x="364" y="264"/>
      <point x="344" y="288" type="curve" smooth="yes"/>
      <point x="306.667" y="331.333"/>
      <point x="246.333" y="353"/>
      <point x="163" y="353" type="curve"/>
      <point x="163" y="404" type="line"/>
      <point x="238.333" y="404"/>
      <point x="284" y="430.333"/>
      <point x="300" y="483" type="curve" smooth="yes"/>
      <point x="308" y="507"/>
      <point x="313.167" y="544.333"/>
      <point x="284.5" y="567" type="curve" smooth="yes"/>
      <point x="270.167" y="578.333"/>
      <point x="247" y="584"/>
      <point x="215" y="584" type="curve" smooth="yes"/>
      <point x="151" y="584"/>
      <point x="115" y="565"/>
      <point x="115" y="461" type="curve" smooth="yes"/>
      <point x="115" y="29" type="line" smooth="yes"/>
      <point x="115" y="-19"/>
      <point x="63" y="-19"/>
      <point x="63" y="29" type="curve" smooth="yes"/>
      <point x="63" y="410" type="line"/>
      <point x="21.6667" y="412.667"/>
      <point x="21.6667" y="458.333"/>
      <point x="63" y="461" type="curve"/>
      <point x="65" y="556.333"/>
      <point x="99.6667" y="612.667"/>
      <point x="167" y="630" type="curve" smooth="yes"/>
      <point x="183.667" y="634"/>
      <point x="208.167" y="636"/>
      <point x="240.5" y="636" type="curve" smooth="yes"/>
      <point x="305.167" y="636"/>
      <point x="358" y="582.667"/>
      <point x="358" y="520" type="curve" smooth="yes"/>
      <point x="358" y="460.667"/>
      <point x="333.333" y="415"/>
      <point x="284" y="383" type="curve"/>
      <point x="378.667" y="355.667"/>
      <point x="426" y="293.333"/>
      <point x="426" y="196" type="curve" smooth="yes"/>
      <point x="426" y="-43.6769"/>
      <point x="263.842" y="-44.1122"/>
      <point x="191.5" y="9" type="curve" smooth="yes"/>
      <point x="165.167" y="28.3333"/>
      <point x="152" y="52.8333"/>
      <point x="152" y="82.5" type="curve" smooth="yes"/>
      <point x="152" y="112.167"/>
      <point x="161.333" y="127"/>
      <point x="180" y="127" type="curve" smooth="yes"/>
      <point x="198.667" y="127"/>
      <point x="208" y="115.667"/>
    </contour>
  </outline>
</glyph>
<glyph name="ae" format="1">
  <advance width="944"/>
  <unicode hex="00E6"/>
  <outline>
    <contour>
      <point x="260" y="52" type="line" smooth="yes"/>
      <point x="373.333" y="52"/>
      <point x="430" y="110.667"/>
      <point x="430" y="228" type="curve" smooth="yes"/>
      <point x="430" y="243" type="line"/>
      <point x="283" y="243" type="line" smooth="yes"/>
      <point x="159" y="243"/>
      <point x="131.833" y="219.333"/>
      <point x="120.5" y="186" type="curve"/>
      <point x="97.75" y="133.833"/>
      <point x="120" y="44.9167"/>
      <point x="167" y="52" type="curve"/>
    </contour>
    <contour>
      <point x="662" y="409" type="curve" smooth="yes"/>
      <point x="654" y="409" type="line" smooth="yes"/>
      <point x="526" y="409"/>
      <point x="484.333" y="391"/>
      <point x="483" y="295" type="curve"/>
      <point x="832" y="295" type="line"/>
      <point x="830.667" y="391"/>
      <point x="788.667" y="409"/>
    </contour>
    <contour>
      <point x="60" y="349" type="curve" smooth="yes"/>
      <point x="60" y="423.667"/>
      <point x="115.667" y="461"/>
      <point x="227" y="461" type="curve" smooth="yes"/>
      <point x="382" y="461" type="line" smooth="yes"/>
      <point x="429.333" y="461"/>
      <point x="459.333" y="445.333"/>
      <point x="472" y="414" type="curve"/>
      <point x="502.667" y="445.333"/>
      <point x="563.333" y="461"/>
      <point x="654" y="461" type="curve" smooth="yes"/>
      <point x="662" y="461" type="line" smooth="yes"/>
      <point x="815.333" y="461"/>
      <point x="884" y="425"/>
      <point x="884" y="285" type="curve" smooth="yes"/>
      <point x="884" y="243" type="line"/>
      <point x="483" y="243" type="line"/>
      <point x="483" y="177" type="line" smooth="yes"/>
      <point x="483" y="121.667"/>
      <point x="496.667" y="86.6667"/>
      <point x="524" y="72" type="curve" smooth="yes"/>
      <point x="548.667" y="58.6667"/>
      <point x="592" y="52"/>
      <point x="654" y="52" type="curve" smooth="yes"/>
      <point x="777" y="52" type="line" smooth="yes"/>
      <point x="798.333" y="52"/>
      <point x="812.833" y="56.6667"/>
      <point x="820.5" y="66" type="curve" smooth="yes"/>
      <point x="828.167" y="75.3333"/>
      <point x="832" y="91.1667"/>
      <point x="832" y="113.5" type="curve" smooth="yes"/>
      <point x="832" y="135.833"/>
      <point x="840.667" y="147"/>
      <point x="858" y="147" type="curve" smooth="yes"/>
      <point x="875.333" y="147"/>
      <point x="884" y="137.167"/>
      <point x="884" y="117.5" type="curve" smooth="yes"/>
      <point x="884" y="78.1667"/>
      <point x="881.333" y="60"/>
      <point x="868" y="36" type="curve" smooth="yes"/>
      <point x="854.667" y="12"/>
      <point x="826.667" y="0"/>
      <point x="784" y="0" type="curve" smooth="yes"/>
      <point x="654" y="0" type="line" smooth="yes"/>
      <point x="543.333" y="0"/>
      <point x="479.667" y="18"/>
      <point x="449" y="78" type="curve"/>
      <point x="413" y="30"/>
      <point x="325.333" y="0"/>
      <point x="260" y="0" type="curve" smooth="yes"/>
      <point x="167" y="0" type="line" smooth="yes"/>
      <point x="104.333" y="0"/>
      <point x="60" y="48.3333"/>
      <point x="60" y="123" type="curve" smooth="yes"/>
      <point x="60" y="257.667"/>
      <point x="131" y="295"/>
      <point x="283" y="295" type="curve" smooth="yes"/>
      <point x="430" y="295" type="line"/>
      <point x="430" y="352" type="line" smooth="yes"/>
      <point x="430" y="393.333"/>
      <point x="417.667" y="409"/>
      <point x="375" y="409" type="curve" smooth="yes"/>
      <point x="234" y="409" type="line" smooth="yes"/>
      <point x="152.667" y="409"/>
      <point x="112" y="389"/>
      <point x="112" y="349" type="curve" smooth="yes"/>
      <point x="112" y="302.333"/>
      <point x="60" y="302.333"/>
    </contour>
  </outline>
</glyph>
<glyph name="ccedilla" format="1">
  <advance width="584"/>
  <unicode hex="00E7"/>
  <outline>
    <contour>
      <point x="268" y="0" type="curve"/>
      <point x="126.667" y="2.66667"/>
      <point x="62" y="41.3333"/>
      <point x="62" y="176" type="curve" smooth="yes"/>
      <point x="62" y="285" type="line" smooth="yes"/>
      <point x="62" y="425"/>
      <point x="131.667" y="461"/>
      <point x="285" y="461" type="curve" smooth="yes"/>
      <point x="426" y="461" type="line" smooth="yes"/>
      <point x="482" y="461"/>
      <point x="514.333" y="437"/>
      <point x="523" y="389" type="curve" smooth="yes"/>
      <point x="527" y="366.333"/>
      <point x="534.667" y="314"/>
      <point x="500" y="314" type="curve" smooth="yes"/>
      <point x="482.667" y="314"/>
      <point x="474" y="325.333"/>
      <point x="474" y="348" type="curve" smooth="yes"/>
      <point x="474" y="393.333"/>
      <point x="460.333" y="409"/>
      <point x="419" y="409" type="curve" smooth="yes"/>
      <point x="285" y="409" type="line"/>
      <point x="101.25" y="404.833"/>
      <point x="125.25" y="366.167"/>
      <point x="114" y="284" type="curve"/>
      <point x="114" y="177" type="line" smooth="yes"/>
      <point x="114" y="121.667"/>
      <point x="127.667" y="86.6667"/>
      <point x="155" y="72" type="curve" smooth="yes"/>
      <point x="179.667" y="58.6667"/>
      <point x="223" y="52"/>
      <point x="285" y="52" type="curve" smooth="yes"/>
      <point x="419" y="52" type="line" smooth="yes"/>
      <point x="440.333" y="52"/>
      <point x="454.833" y="56.6667"/>
      <point x="462.5" y="66" type="curve" smooth="yes"/>
      <point x="470.167" y="75.3333"/>
      <point x="474" y="91.1667"/>
      <point x="474" y="113.5" type="curve" smooth="yes"/>
      <point x="474" y="135.833"/>
      <point x="482.667" y="147"/>
      <point x="500" y="147" type="curve" smooth="yes"/>
      <point x="517.333" y="147"/>
      <point x="526" y="137.167"/>
      <point x="526" y="117.5" type="curve" smooth="yes"/>
      <point x="526" y="78.1667"/>
      <point x="523.333" y="60"/>
      <point x="510" y="36" type="curve" smooth="yes"/>
      <point x="497.333" y="12"/>
      <point x="470.333" y="0"/>
      <point x="429" y="-0" type="curve"/>
      <point x="427.667" y="0"/>
      <point x="426.667" y="0"/>
      <point x="426" y="0" type="curve"/>
      <point x="321" y="0" type="line"/>
      <point x="324.333" y="-14.6667"/>
      <point x="333.333" y="-26.3333"/>
      <point x="348" y="-35" type="curve" smooth="yes"/>
      <point x="439.079" y="-86.0933"/>
      <point x="362.353" y="-175"/>
      <point x="300.5" y="-175" type="curve"/>
      <point x="227.917" y="-185.333"/>
      <point x="189.833" y="-111.667"/>
      <point x="229" y="-107" type="curve"/>
      <point x="237" y="-107"/>
      <point x="276.333" y="-125"/>
      <point x="295" y="-125" type="curve" smooth="yes"/>
      <point x="323" y="-125"/>
      <point x="337" y="-116.333"/>
      <point x="337" y="-99" type="curve" smooth="yes"/>
      <point x="337" y="-91.6667"/>
      <point x="331.667" y="-84"/>
      <point x="321" y="-76" type="curve" smooth="yes"/>
      <point x="288.333" y="-50.6667"/>
      <point x="270.667" y="-25.3333"/>
    </contour>
  </outline>
</glyph>
<glyph name="eth" format="1">
  <advance width="566"/>
  <unicode hex="00F0"/>
  <outline>
    <contour>
      <point x="245" y="568" type="line"/>
      <point x="215.667" y="578"/>
      <point x="187.833" y="583"/>
      <point x="161.5" y="583" type="curve" smooth="yes"/>
      <point x="108.833" y="583"/>
      <point x="111.667" y="636"/>
      <point x="153" y="636" type="curve" smooth="yes"/>
      <point x="200.333" y="636"/>
      <point x="245.333" y="627.333"/>
      <point x="288" y="610" type="curve"/>
      <point x="321" y="642" type="line"/>
      <point x="354.289" y="670.533"/>
      <point x="393.414" y="638.414"/>
      <point x="360" y="605" type="curve" smooth="yes"/>
      <point x="339" y="585" type="line"/>
      <point x="453.667" y="514.333"/>
      <point x="511" y="393.333"/>
      <point x="511" y="222" type="curve" smooth="yes"/>
      <point x="511" y="156.667"/>
      <point x="491.667" y="100.667"/>
      <point x="453" y="54" type="curve" smooth="yes"/>
      <point x="414.333" y="7.33333"/>
      <point x="360" y="-16"/>
      <point x="290" y="-16" type="curve" smooth="yes"/>
      <point x="220" y="-16"/>
      <point x="162" y="5"/>
      <point x="116" y="47" type="curve" smooth="yes"/>
      <point x="70" y="89"/>
      <point x="47" y="146.833"/>
      <point x="47" y="220.5" type="curve" smooth="yes"/>
      <point x="47" y="294.167"/>
      <point x="70" y="351.833"/>
      <point x="116" y="393.5" type="curve" smooth="yes"/>
      <point x="162" y="435.167"/>
      <point x="216" y="456"/>
      <point x="278" y="456" type="curve" smooth="yes"/>
      <point x="340" y="456"/>
      <point x="387.667" y="443"/>
      <point x="421" y="417" type="curve"/>
      <point x="393.667" y="475"/>
      <point x="353" y="518"/>
      <point x="299" y="546" type="curve"/>
      <point x="249" y="499" type="line"/>
      <point x="220.742" y="470.742"/>
      <point x="175.964" y="500.964"/>
      <point x="211" y="536" type="curve"/>
    </contour>
    <contour>
      <point x="290" y="36" type="curve"/>
      <point x="514.699" y="34.719"/>
      <point x="516.81" y="415.163"/>
      <point x="291" y="404" type="curve"/>
      <point x="176.333" y="404"/>
      <point x="99" y="328"/>
      <point x="99" y="220" type="curve" smooth="yes"/>
      <point x="99" y="112"/>
      <point x="176.667" y="36"/>
    </contour>
  </outline>
</glyph>
